<svg width="421" height="69" viewBox="0 0 421 69" fill="none" xmlns="http://www.w3.org/2000/svg">
<path d="M0.7 15L7.7 0.639999L14.7 15H11.34L10.3 12.8H5.1L4.06 15H0.7ZM6.32 10.2H9.08L7.7 7.26L6.32 10.2ZM22.8641 15V14.42C22.2841 14.9 21.4841 15.16 20.6641 15.16C17.7041 15.16 15.8241 12.74 15.8241 10C15.8241 7.26 17.7041 4.84 20.6641 4.84C21.4841 4.84 22.2841 5.12 22.8641 5.6V5H25.8841V15H22.8641ZM21.1641 12.4C21.9041 12.4 22.4441 12.12 22.8641 11.58V8.44C22.4441 7.9 21.9041 7.6 21.1641 7.6C19.7241 7.6 18.8641 8.68 18.8641 10C18.8641 11.32 19.7241 12.4 21.1641 12.4ZM34.9536 15V0.799999H40.2936C42.6136 0.799999 44.5136 2.7 44.5136 5.02C44.5136 6.02 44.1336 6.84 43.5136 7.46C44.7136 8.1 45.5136 9.26 45.5136 10.78C45.5136 13.12 43.6136 15 41.2136 15H34.9536ZM38.1536 6.54H39.9336C40.7936 6.54 41.4136 5.92 41.4136 5.14C41.4136 4.36 40.7936 3.72 39.9336 3.72H38.1536V6.54ZM38.1536 12.06H40.9136C41.7736 12.06 42.3936 11.44 42.3936 10.66C42.3936 9.88 41.7736 9.24 40.9136 9.24H38.1536V12.06ZM48.2703 15V0.799999H51.2903V5.6C51.8703 5.12 52.6703 4.84 53.4903 4.84C56.4503 4.84 58.3303 7.26 58.3303 10C58.3303 12.74 56.4503 15.16 53.4903 15.16C52.6703 15.16 51.8703 14.9 51.2903 14.42V15H48.2703ZM52.9903 7.6C52.2503 7.6 51.6903 7.9 51.2903 8.44V11.58C51.6903 12.12 52.2503 12.4 52.9903 12.4C54.4303 12.4 55.2903 11.32 55.2903 10C55.2903 8.68 54.4303 7.6 52.9903 7.6ZM73.3398 15.16C69.3398 15.16 66.0798 11.9 66.0798 7.9C66.0798 3.9 69.3398 0.639999 73.3398 0.639999C75.7798 0.639999 77.9598 1.86 79.2798 3.72L76.8598 5.7C76.1398 4.54 74.8598 3.72 73.3398 3.72C71.0398 3.72 69.2998 5.62 69.2998 7.9C69.2998 10.18 71.0398 12.08 73.3398 12.08C74.8598 12.08 76.1398 11.26 76.8598 10.1L79.2798 12.08C77.9598 13.94 75.7798 15.16 73.3398 15.16ZM86.34 15.16C83.46 15.16 81.14 12.84 81.14 10C81.14 7.16 83.46 4.84 86.34 4.84C88.18 4.84 89.8 5.78 90.72 7.2L88.32 8.9C87.92 8.16 87.22 7.66 86.34 7.66C85.1 7.66 84.18 8.62 84.18 10C84.18 11.38 85.1 12.34 86.34 12.34C87.22 12.34 87.92 11.84 88.32 11.1L90.72 12.8C89.8 14.22 88.18 15.16 86.34 15.16ZM98.9809 15V0.799999H103.961C107.961 0.799999 111.181 3.98 111.181 7.9C111.181 11.82 107.961 15 103.961 15H98.9809ZM102.181 12.08H103.961C106.341 12.08 107.961 10.18 107.961 7.9C107.961 5.62 106.341 3.72 103.961 3.72H102.181V12.08ZM123.634 15H120.614V14.42C120.034 14.9 119.234 15.16 118.414 15.16C115.454 15.16 113.574 12.74 113.574 10C113.574 7.26 115.454 4.84 118.414 4.84C119.234 4.84 120.034 5.12 120.614 5.6V0.799999H123.634V15ZM118.914 7.6C117.474 7.6 116.614 8.68 116.614 10C116.614 11.32 117.474 12.4 118.914 12.4C119.654 12.4 120.214 12.12 120.614 11.58V8.44C120.214 7.9 119.654 7.6 118.914 7.6ZM132.704 15V0.799999H141.504V3.96H135.904V6.36H140.304V9.44H135.904V11.84H141.504V15H132.704ZM148.881 15.16C146.241 15.16 143.781 13.08 143.781 10C143.781 7.06 145.861 4.84 148.941 4.84C151.921 4.84 154.161 7.04 153.701 10.54H146.681C146.841 11.88 147.961 12.4 148.861 12.4C149.921 12.4 150.601 11.88 151.001 11.14L153.401 12.76C152.481 14.2 150.861 15.16 148.881 15.16ZM148.761 7.26C148.041 7.26 147.001 7.58 146.701 8.78H150.781C150.621 7.72 149.741 7.26 148.761 7.26ZM162.286 15V0.799999H170.686V3.96H165.486V6.36H169.486V9.44H165.486V15H162.286ZM174.038 15V7.64H172.738V5H174.198C173.818 4.56 173.578 3.98 173.578 3.34C173.578 1.92 174.618 0.799999 176.278 0.799999H179.378V3.44H177.418C176.718 3.44 176.438 3.78 176.438 4.22C176.438 4.66 176.778 5 177.218 5H179.378V7.64H177.058V15H174.038ZM193.777 15.16C189.777 15.16 186.517 11.9 186.517 7.9C186.517 3.9 189.777 0.639999 193.777 0.639999C196.217 0.639999 198.137 1.62 199.517 3.32L197.097 5.3C196.237 4.22 195.297 3.72 193.777 3.72C191.477 3.72 189.737 5.62 189.737 7.9C189.737 10.18 191.477 12.08 193.777 12.08C194.937 12.08 195.817 11.88 196.517 11.38V9.4H193.097L194.457 6.4H199.617V12.84C198.217 14.44 196.177 15.16 193.777 15.16ZM207.46 18.88C205.96 18.88 204.38 18.68 202.96 17.76L204.32 15.1C205.12 15.72 206.1 16.12 207.26 16.12C208.46 16.12 209.54 15.72 209.54 14.52C209.54 14.32 209.5 13.98 209.28 13.68C208.7 14.16 207.88 14.44 207.06 14.44C204.04 14.44 202.34 12.08 202.34 9.64C202.34 7.2 204.04 4.84 207.06 4.84C207.88 4.84 208.68 5.12 209.26 5.6V5H212.28V13.06C212.58 13.76 212.7 14.42 212.7 15.02C212.7 17.84 210.06 18.88 207.46 18.88ZM207.46 11.68C208.2 11.68 208.82 11.38 209.26 10.84V8.44C208.82 7.9 208.2 7.6 207.46 7.6C206.12 7.6 205.38 8.62 205.38 9.64C205.38 10.66 206.12 11.68 207.46 11.68ZM221.411 15V0.799999H224.611V6.36H230.291V0.799999H233.491V15H230.291V9.44H224.611V15H221.411ZM237.013 15V0.799999H240.033V5.62C240.633 5.12 241.453 4.84 242.333 4.84C245.153 4.84 246.693 6.72 246.693 9.42V15H243.673V9.96C243.673 8.62 243.153 7.6 241.833 7.6C241.253 7.6 240.533 7.9 240.033 8.46V15H237.013ZM255.641 15V0.799999H258.841V15H255.641ZM262.515 3.58C262.255 3.28 262.115 2.88 262.115 2.44C262.115 1.44 262.915 0.639999 263.915 0.639999C264.915 0.639999 265.715 1.44 265.715 2.44C265.715 2.88 265.575 3.28 265.315 3.58H262.515ZM262.395 15V5H265.415V15H262.395ZM277.134 15.16C274.734 15.16 272.734 13.84 272.734 10.76H275.934C275.934 11.76 276.374 12.18 277.134 12.18C277.894 12.18 278.334 11.76 278.334 10.76V0.799999H281.534V10.96C281.534 13.94 279.534 15.16 277.134 15.16ZM285.285 3.58C285.025 3.28 284.885 2.88 284.885 2.44C284.885 1.44 285.685 0.639999 286.685 0.639999C287.685 0.639999 288.485 1.44 288.485 2.44C288.485 2.88 288.345 3.28 288.085 3.58H285.285ZM283.085 18.68V15.82H283.585C284.545 15.82 285.165 15.58 285.165 14.62V5H288.185V15C288.185 17.44 286.405 18.68 283.765 18.68H283.085ZM297.266 15V0.799999H300.466V7.92L305.426 0.799999H309.106L304.126 7.98L309.746 15H305.786L300.466 8.34V15H297.266ZM311.638 15V0.799999H314.658V9.58L317.918 5H321.398L317.998 9.74L321.918 15H318.358L314.658 10.02V15H311.638ZM329.602 15V0.799999H332.802V11.82H338.322V15H329.602ZM340.946 15V0.799999H343.966V15H340.946ZM353.051 15V0.639999L360.131 7.74L367.211 0.639999V15H364.011V8.04L360.131 11.92L356.251 8.04V15H353.051ZM376.983 15V9.96C376.983 8.66 376.603 7.62 375.403 7.62C374.763 7.62 374.143 7.92 373.743 8.42V15H370.723V5H373.743V5.6C374.323 5.14 375.183 4.84 376.023 4.84C377.203 4.84 378.163 5.3 378.863 6.06C379.443 5.48 380.523 4.84 382.063 4.84C385.043 4.84 386.263 6.92 386.263 9.42V15H383.243V9.96C383.243 8.66 382.863 7.62 381.663 7.62C380.983 7.62 380.343 7.96 379.943 8.48C379.983 8.78 380.003 9.1 380.003 9.42V15H376.983ZM407.371 15.16L398.411 7.58V15H395.211V0.639999L404.171 8.22V0.799999H407.371V15.16ZM410.872 15V5H413.892V5.62C414.492 5.12 415.312 4.84 416.192 4.84C419.012 4.84 420.552 6.72 420.552 9.42V15H417.532V9.96C417.532 8.62 417.012 7.6 415.692 7.6C415.112 7.6 414.392 7.9 413.892 8.46V15H410.872ZM9 40.16C5 40.16 1.74 36.9 1.74 32.9C1.74 28.9 5 25.64 9 25.64C13 25.64 16.26 28.9 16.26 32.9C16.26 36.9 13 40.16 9 40.16ZM9 37.08C11.3 37.08 13.04 35.18 13.04 32.9C13.04 30.62 11.3 28.72 9 28.72C6.7 28.72 4.96 30.62 4.96 32.9C4.96 35.18 6.7 37.08 9 37.08ZM23.8361 40.16C20.9561 40.16 18.6361 37.84 18.6361 35C18.6361 32.16 20.9561 29.84 23.8361 29.84C26.7161 29.84 29.0361 32.16 29.0361 35C29.0361 37.84 26.7161 40.16 23.8361 40.16ZM23.8361 37.34C25.0761 37.34 25.9961 36.38 25.9961 35C25.9961 33.62 25.0761 32.66 23.8361 32.66C22.5961 32.66 21.6761 33.62 21.6761 35C21.6761 36.38 22.5961 37.34 23.8361 37.34ZM37.5513 40V25.8H42.2313C45.0113 25.8 47.0913 27.96 47.0913 30.62C47.0913 33.28 45.0113 35.44 42.2313 35.44H40.7513V40H37.5513ZM40.7513 32.46H42.1913C43.2313 32.46 43.9913 31.58 43.9913 30.62C43.9913 29.66 43.2313 28.8 42.1913 28.8H40.7513V32.46ZM49.657 30H52.677V30.58C53.257 30.1 54.057 29.84 54.877 29.84C57.837 29.84 59.717 32.26 59.717 35C59.717 37.74 57.837 40.16 54.877 40.16C54.057 40.16 53.257 39.88 52.677 39.4V43.68H49.657V30ZM54.377 37.4C55.817 37.4 56.677 36.32 56.677 35C56.677 33.68 55.817 32.6 54.377 32.6C53.637 32.6 53.077 32.88 52.677 33.42V36.56C53.077 37.1 53.637 37.4 54.377 37.4ZM74.7266 40.16C70.7266 40.16 67.4666 36.9 67.4666 32.9C67.4666 28.9 70.7266 25.64 74.7266 25.64C78.7266 25.64 81.9866 28.9 81.9866 32.9C81.9866 34.12 81.6866 35.28 81.1466 36.28L83.1666 37.92L81.3466 40.16L79.3266 38.52C78.0666 39.54 76.4666 40.16 74.7266 40.16ZM74.7266 37.08C75.5066 37.08 76.2266 36.86 76.8266 36.48L74.6666 34.74L76.4866 32.52L78.5666 34.2C78.7066 33.8 78.7666 33.36 78.7666 32.9C78.7666 30.62 77.0266 28.72 74.7266 28.72C72.4266 28.72 70.6866 30.62 70.6866 32.9C70.6866 35.18 72.4266 37.08 74.7266 37.08ZM94.6575 30V43.68H91.6375V39.4C91.0575 39.88 90.2575 40.16 89.4375 40.16C86.4775 40.16 84.5975 37.74 84.5975 35C84.5975 32.26 86.4775 29.84 89.4375 29.84C90.2575 29.84 91.0575 30.1 91.6375 30.58V30H94.6575ZM89.9375 37.4C90.6775 37.4 91.2375 37.1 91.6375 36.56V33.42C91.2375 32.88 90.6775 32.6 89.9375 32.6C88.4975 32.6 87.6375 33.68 87.6375 35C87.6375 36.32 88.4975 37.4 89.9375 37.4ZM103.727 40V25.8H109.087C111.407 25.8 113.307 27.7 113.307 30.02C113.307 31.82 112.167 33.38 110.567 33.98L115.187 40H111.367L106.967 34.24H106.927V40H103.727ZM106.927 31.54H108.727C109.587 31.54 110.207 30.92 110.207 30.14C110.207 29.36 109.587 28.72 108.727 28.72H106.927V31.54ZM117.259 40V30H120.279V30.88C120.839 30.2 121.579 29.84 122.559 29.84C122.879 29.84 123.259 29.88 123.639 30V33.14C123.179 32.9 122.619 32.8 122.099 32.8C121.479 32.8 120.759 33.04 120.279 33.46V40H117.259ZM135.574 40.16C133.294 40.16 131.454 39.22 130.474 37.38L132.894 35.4C133.514 36.38 134.534 37.16 135.514 37.16C136.454 37.16 136.874 36.8 136.874 36.14C136.874 35.5 136.414 35.1 135.214 34.56L134.414 34.2C132.274 33.24 131.094 31.66 131.094 29.74C131.094 27.26 133.154 25.64 135.414 25.64C136.994 25.64 138.194 26.02 139.394 27.42L137.234 29.7C136.514 28.82 136.074 28.64 135.414 28.64C134.874 28.64 134.314 28.98 134.314 29.62C134.314 30.36 134.934 30.76 136.234 31.34L136.994 31.68C138.954 32.56 140.094 33.98 140.094 35.94C140.094 38.5 138.214 40.16 135.574 40.16ZM146.157 40.16C144.417 40.16 142.997 39.54 142.137 38.04L144.437 36.48C144.837 37.2 145.377 37.7 146.277 37.7C146.697 37.7 147.057 37.6 147.057 37.24C147.057 36.86 146.777 36.74 145.797 36.36L145.277 36.16C143.537 35.48 142.637 34.36 142.637 32.94C142.637 31.1 144.157 29.84 146.077 29.84C147.357 29.84 148.477 30.32 149.237 31.42L147.517 33.12C147.137 32.58 146.697 32.22 146.077 32.22C145.677 32.22 145.357 32.36 145.357 32.68C145.357 33.08 145.677 33.2 146.677 33.58L147.097 33.74C148.997 34.46 149.777 35.5 149.777 36.98C149.777 39.02 148.197 40.16 146.157 40.16ZM160.015 40V28.96H156.615V25.8H166.635V28.96H163.215V40H160.015ZM172.297 40C170.417 40 169.237 38.82 169.237 36.92V32.64H167.937L167.277 30H169.237V28.5L172.257 27V30H175.417L174.757 32.64H172.257V36.06C172.257 36.9 172.597 37.24 173.417 37.24H175.057V40H172.297ZM189.246 40.16C185.846 40.16 183.426 37.8 183.426 34.24V25.8H186.626V34.28C186.626 36 187.686 37.08 189.246 37.08C190.806 37.08 191.866 36 191.866 34.28V25.8H195.066V34.26C195.066 37.82 192.646 40.16 189.246 40.16ZM204.888 40V39.26C204.268 39.84 203.348 40.16 202.508 40.16C199.808 40.16 198.228 38.3 198.228 35.58V30H201.248V35.04C201.248 36.4 201.808 37.4 203.008 37.4C203.748 37.4 204.488 37.04 204.888 36.4V30H207.908V40H204.888ZM221.313 40.16L214.613 25.8H218.173L221.313 32.9L224.453 25.8H228.013L221.313 40.16ZM234.067 40.16L228.247 30H231.727L234.067 34.36L236.407 30H239.887L234.067 40.16ZM249.704 40.16L244.784 25.8H248.044L250.244 32.46L253.444 25.64L256.644 32.46L258.844 25.8H262.104L257.184 40.16L253.444 31.96L249.704 40.16ZM266.271 40L263.091 30H266.271L267.931 35.64L270.391 29.84L272.851 35.64L274.511 30H277.691L274.511 40H272.211L270.391 35.9L268.571 40H266.271ZM283.861 40L288.341 32.88L284.161 25.8H287.861L290.601 30.52L293.341 25.8H297.041L292.861 32.88L297.341 40H293.621L290.601 35.12L287.581 40H283.861ZM298.454 40L302.054 34.96L298.634 30H302.134L304.014 32.86L305.894 30H309.394L305.974 34.96L309.574 40H306.074L304.014 37L301.954 40H298.454ZM320.575 40V34.04L315.315 25.8H319.055L322.175 30.84L325.295 25.8H329.035L323.775 34.04V40H320.575ZM331.039 43.68L332.399 40L328.719 30H331.919L333.999 36.34L336.079 30H339.279L334.239 43.68H331.039ZM345.449 40L352.029 28.96H346.289V25.8H357.489L350.909 36.84H357.069V40H345.449ZM359.108 40L363.748 32.6H359.708V30H368.788L364.168 37.38H368.488V40H359.108ZM9.1 65.16C5.1 65.16 1.78 61.9 1.78 57.9C1.78 53.9 5.1 50.64 9.1 50.64C13.1 50.64 16.42 53.9 16.42 57.9C16.42 61.9 13.1 65.16 9.1 65.16ZM9.1 62.34C11.6 62.34 13.38 60.36 13.38 57.9C13.38 55.44 11.6 53.46 9.1 53.46C6.6 53.46 4.82 55.44 4.82 57.9C4.82 60.36 6.6 62.34 9.1 62.34ZM19.5314 65V53.68L22.5714 50.64V65H19.5314ZM25.4098 65L29.8098 59.6C28.0298 59.26 26.5098 57.28 26.4898 55.22C26.4698 52.66 28.6298 50.64 31.1898 50.64C33.7498 50.64 35.9098 52.66 35.9098 55.22C35.9098 56.34 35.4898 57.34 34.8298 58.14L31.5698 62.18H35.8898V65H25.4098ZM31.1898 57C32.2098 57 32.8698 56.18 32.8698 55.22C32.8698 54.26 32.2098 53.46 31.1898 53.46C30.1698 53.46 29.5298 54.26 29.5298 55.22C29.5298 56.18 30.1698 57 31.1898 57ZM42.7063 65.16C40.9063 65.16 39.3263 64.4 38.3663 63.16L40.5063 61.18C40.9463 61.84 41.5663 62.34 42.5063 62.34C43.8263 62.34 44.6663 61.52 44.6663 60.2C44.6663 58.88 43.8263 58.06 42.5063 58.06H41.0663L43.1663 53.62H39.0263V50.8H47.6063L45.2463 55.8C46.9463 56.7 47.7263 58.34 47.7263 60.2C47.7263 63.2 45.7063 65.16 42.7063 65.16ZM57.1294 65V61.8H49.6094L60.1694 50.64V59.16H61.6894V61.8H60.1694V65H57.1294ZM55.2094 59.16H57.1294V57.14L55.2094 59.16ZM68.6809 65.16C66.8609 65.16 65.2609 64.42 64.3409 63.16L66.5409 61.12C66.9209 61.7 67.5209 62.34 68.4809 62.34C69.7009 62.34 70.4209 61.44 70.4209 60.42C70.4209 59.4 69.7009 58.5 68.4809 58.5C67.5609 58.5 66.9409 59 66.6809 59.68L64.7209 58.86V50.8H72.4609V53.62H67.7609V55.74C68.2209 55.7 68.4409 55.68 68.6809 55.68C71.5609 55.68 73.4809 57.54 73.4809 60.42C73.4809 63.3 71.5609 65.16 68.6809 65.16ZM80.9813 65.16C78.1413 65.16 76.0013 63.1 76.0013 60.42C76.0013 59.38 76.4413 58.5 76.9013 57.66L80.6413 50.8H84.0213L81.3613 55.7C83.8813 55.82 85.9613 57.74 85.9613 60.42C85.9613 63.1 83.8213 65.16 80.9813 65.16ZM80.9813 62.34C82.2013 62.34 82.9213 61.44 82.9213 60.42C82.9213 59.4 82.2013 58.5 80.9813 58.5C79.7613 58.5 79.0413 59.4 79.0413 60.42C79.0413 61.44 79.7613 62.34 80.9813 62.34ZM88.1378 65L93.2978 53.62H88.0178V50.8H97.8578L91.4178 65H88.1378ZM103.959 65.16C101.119 65.16 98.9788 63.1 98.9788 60.42C98.9788 58.88 99.6988 57.62 100.839 56.82C100.339 56.24 100.039 55.48 100.039 54.58C100.039 52.4 101.779 50.64 103.959 50.64C106.139 50.64 107.879 52.4 107.879 54.58C107.879 55.48 107.579 56.24 107.079 56.82C108.219 57.62 108.939 58.88 108.939 60.42C108.939 63.1 106.799 65.16 103.959 65.16ZM103.959 53.46C103.279 53.46 102.879 53.98 102.879 54.58C102.879 55.18 103.279 55.7 103.959 55.7C104.639 55.7 105.039 55.18 105.039 54.58C105.039 53.98 104.639 53.46 103.959 53.46ZM103.959 62.34C105.179 62.34 105.899 61.44 105.899 60.42C105.899 59.4 105.179 58.5 103.959 58.5C102.739 58.5 102.019 59.4 102.019 60.42C102.019 61.44 102.739 62.34 103.959 62.34ZM113.107 65L115.767 60.1C113.247 59.98 111.167 58.06 111.167 55.38C111.167 52.7 113.307 50.64 116.147 50.64C118.987 50.64 121.127 52.7 121.127 55.38C121.127 56.42 120.687 57.3 120.227 58.14L116.487 65H113.107ZM116.147 57.3C117.367 57.3 118.087 56.4 118.087 55.38C118.087 54.36 117.367 53.46 116.147 53.46C114.927 53.46 114.207 54.36 114.207 55.38C114.207 56.4 114.927 57.3 116.147 57.3ZM124.915 59.9L124.315 56.22V50.8H127.355V56.22L126.755 59.9H124.915ZM125.835 65.16C124.635 65.16 123.675 64.2 123.675 63C123.675 62.32 123.995 61.72 124.475 61.32H127.195C127.675 61.72 127.995 62.32 127.995 63C127.995 64.2 127.035 65.16 125.835 65.16ZM137.493 65.16C133.173 65.16 130.513 62.12 130.513 58.26C130.513 53.7 134.133 50.64 138.253 50.64C142.193 50.64 145.133 53.06 145.133 56.88C145.133 60.36 143.293 61.74 141.453 61.74C140.573 61.74 139.893 61.32 139.453 60.8C138.693 61.44 137.773 61.7 137.033 61.7C134.833 61.7 133.713 60.14 133.713 58.26C133.713 55.84 135.473 53.88 138.053 53.88C138.793 53.88 139.393 54.08 139.853 54.42L139.933 54.08H141.833L140.893 58.48C140.713 59.36 140.913 60.06 141.773 60.06C142.833 60.06 143.453 59.18 143.453 56.84C143.453 53.72 140.993 52.26 138.233 52.26C135.133 52.26 132.273 54.4 132.273 58.26C132.273 61.42 134.293 63.48 137.493 63.48C138.693 63.48 139.933 63.22 141.013 62.66L141.673 64.28C140.433 64.84 138.793 65.16 137.493 65.16ZM135.793 58.1C135.793 59.14 136.293 59.82 137.353 59.82C137.973 59.82 138.473 59.6 138.833 59.24C138.833 59.18 138.853 59.12 138.853 59.08L139.453 56.3C139.093 55.92 138.573 55.74 138.073 55.74C136.753 55.74 135.793 56.76 135.793 58.1ZM150.333 65H147.773L148.893 61.38H147.233V59.1H149.613L150.353 56.7H148.693V54.42H151.073L152.193 50.8H154.753L153.633 54.42H156.253L157.373 50.8H159.933L158.813 54.42H160.453V56.7H158.093L157.353 59.1H159.013V61.38H156.633L155.513 65H152.953L154.073 61.38H151.453L150.333 65ZM152.173 59.1H154.793L155.533 56.7H152.913L152.173 59.1ZM166.726 66.76V65.12C164.866 64.9 163.506 63.98 162.646 62.38L164.846 60.58C165.466 61.56 166.326 62.34 167.506 62.34C168.446 62.34 168.866 61.8 168.866 61.14C168.866 60.5 168.406 60.1 167.206 59.56L166.406 59.2C164.266 58.24 163.266 56.66 163.266 54.74C163.266 52.52 164.786 50.98 166.726 50.7V49.04H168.386V50.7C169.446 50.86 170.266 51.34 171.206 52.42L169.286 54.44C168.586 53.66 168.206 53.46 167.606 53.46C166.726 53.46 166.306 53.98 166.306 54.62C166.306 55.36 166.926 55.76 168.226 56.34L168.986 56.68C170.946 57.56 171.906 58.98 171.906 60.94C171.906 63.22 170.546 64.8 168.386 65.1V66.76H166.726ZM177.613 56.1C176.113 56.1 174.933 54.92 174.933 53.42C174.933 51.92 176.113 50.72 177.613 50.72C179.113 50.72 180.313 51.92 180.313 53.42C180.313 54.92 179.113 56.1 177.613 56.1ZM177.613 54.28C178.093 54.28 178.473 53.9 178.473 53.42C178.473 52.94 178.093 52.56 177.613 52.56C177.133 52.56 176.753 52.94 176.753 53.42C176.753 53.9 177.133 54.28 177.613 54.28ZM174.533 59.04V56.76H180.713V59.04H174.533ZM177.613 65.08C176.113 65.08 174.933 63.9 174.933 62.4C174.933 60.9 176.113 59.7 177.613 59.7C179.113 59.7 180.313 60.9 180.313 62.4C180.313 63.9 179.113 65.08 177.613 65.08ZM177.613 63.26C178.093 63.26 178.473 62.88 178.473 62.4C178.473 61.92 178.093 61.54 177.613 61.54C177.133 61.54 176.753 61.92 176.753 62.4C176.753 62.88 177.133 63.26 177.613 63.26ZM187.841 65.16C185.321 65.16 183.281 63.12 183.281 60.6C183.281 58.3 184.861 56.8 186.401 56.26C186.621 56.18 186.921 56.1 187.461 56.04L184.901 50.8H193.001V53.44H189.541L195.201 65H191.841L191.141 63.58C190.221 64.82 189.121 65.16 187.841 65.16ZM187.841 62.3C188.741 62.3 189.481 61.52 189.481 60.6C189.481 59.68 188.741 58.9 187.841 58.9C186.941 58.9 186.201 59.68 186.201 60.6C186.201 61.52 186.941 62.3 187.841 62.3ZM196.423 65L203.043 50.8H205.763L199.143 65H196.423ZM210.141 68.28C208.641 65.52 207.941 62.52 207.941 59C207.941 55.48 208.641 52.48 210.141 49.72L212.361 50.7C211.221 53.38 210.481 56.22 210.481 59C210.481 61.78 211.221 64.62 212.361 67.3L210.141 68.28ZM216.662 68.28L214.442 67.3C215.582 64.62 216.322 61.78 216.322 59C216.322 56.22 215.582 53.38 214.442 50.7L216.662 49.72C218.162 52.48 218.862 55.48 218.862 59C218.862 62.52 218.162 65.52 216.662 68.28ZM222.243 58.44V56.16H230.963V58.44H222.243ZM222.243 62.56V60.28H230.963V62.56H222.243ZM237.04 59.9V57.08H238.38C239.5 57.08 240.36 56.52 240.36 55.28C240.36 54.04 239.5 53.46 238.7 53.46C237.9 53.46 237.1 54.04 237.1 55.28H234.06C234.06 52.7 236.04 50.64 238.7 50.64C241.36 50.64 243.4 52.7 243.4 55.28C243.4 57.86 241.36 59.9 238.38 59.9H237.04ZM238.3 65.16C237.1 65.16 236.14 64.2 236.14 63C236.14 62.32 236.44 61.72 236.94 61.32H239.66C240.14 61.72 240.46 62.32 240.46 63C240.46 64.2 239.5 65.16 238.3 65.16ZM248.66 59.34L247 58.14L248.76 55.74L245.92 54.82L246.56 52.86L249.4 53.78V50.8H251.46V53.78L254.28 52.84L254.92 54.8L252.1 55.74L253.86 58.14L252.2 59.34L250.44 56.96L248.66 59.34Z" fill="#D7D7D7"/>
</svg>
