<svg width="241" height="22" viewBox="0 0 241 22" fill="none" xmlns="http://www.w3.org/2000/svg">
<path d="M0.128 21V1.12H12.448V5.544H4.608V8.904H10.768V13.216H4.608V16.576H12.448V21H0.128ZM25.6032 21V19.964C24.7352 20.776 23.4472 21.224 22.2712 21.224C18.4912 21.224 16.2792 18.62 16.2792 14.812V7H20.5072V14.056C20.5072 15.96 21.2912 17.36 22.9712 17.36C24.0072 17.36 25.0432 16.856 25.6032 15.96V7H29.8312V21H25.6032ZM41.0776 21.224C37.0456 21.224 33.7976 17.976 33.7976 14C33.7976 10.024 37.0456 6.776 41.0776 6.776C43.6536 6.776 45.9216 8.092 47.2096 10.08L43.8496 12.46C43.2896 11.424 42.3096 10.724 41.0776 10.724C39.3416 10.724 38.0536 12.068 38.0536 14C38.0536 15.932 39.3416 17.276 41.0776 17.276C42.3096 17.276 43.2896 16.576 43.8496 15.54L47.2096 17.92C45.9216 19.908 43.6536 21.224 41.0776 21.224ZM50.8292 21V1.12H55.0572V21H50.8292ZM59.9988 5.012C59.6348 4.592 59.4388 4.032 59.4388 3.416C59.4388 2.016 60.5588 0.895998 61.9588 0.895998C63.3588 0.895998 64.4788 2.016 64.4788 3.416C64.4788 4.032 64.2828 4.592 63.9188 5.012H59.9988ZM59.8308 21V7H64.0588V21H59.8308ZM82.1603 21H77.9323V20.188C77.1203 20.86 76.0003 21.224 74.8523 21.224C70.7083 21.224 68.0763 17.836 68.0763 14C68.0763 10.164 70.7083 6.776 74.8523 6.776C76.0003 6.776 77.1203 7.168 77.9323 7.84V1.12H82.1603V21ZM75.5523 10.64C73.5363 10.64 72.3323 12.152 72.3323 14C72.3323 15.848 73.5363 17.36 75.5523 17.36C76.5883 17.36 77.3723 16.968 77.9323 16.212V11.816C77.3723 11.06 76.5883 10.64 75.5523 10.64ZM94.8577 21V1.12H106.618V5.544H99.3377V8.904H104.938V13.216H99.3377V21H94.8577ZM110.384 21V1.12H114.612V21H110.384ZM125.769 21.224C122.073 21.224 118.629 18.312 118.629 14C118.629 9.884 121.541 6.776 125.853 6.776C130.025 6.776 133.161 9.856 132.517 14.756H122.689C122.913 16.632 124.481 17.36 125.741 17.36C127.225 17.36 128.177 16.632 128.737 15.596L132.097 17.864C130.809 19.88 128.541 21.224 125.769 21.224ZM125.601 10.164C124.593 10.164 123.137 10.612 122.717 12.292H128.429C128.205 10.808 126.973 10.164 125.601 10.164ZM134.255 21L139.295 13.944L134.507 7H139.407L142.039 11.004L144.671 7H149.571L144.783 13.944L149.823 21H144.923L142.039 16.8L139.155 21H134.255ZM158.313 21L167.581 1.12H171.389L162.121 21H158.313ZM181.931 21V1.12H189.407C192.655 1.12 195.315 3.78 195.315 7.028C195.315 8.428 194.783 9.576 193.915 10.444C195.595 11.34 196.715 12.964 196.715 15.092C196.715 18.368 194.055 21 190.695 21H181.931ZM186.411 9.156H188.903C190.107 9.156 190.975 8.288 190.975 7.196C190.975 6.104 190.107 5.208 188.903 5.208H186.411V9.156ZM186.411 16.884H190.275C191.479 16.884 192.347 16.016 192.347 14.924C192.347 13.832 191.479 12.936 190.275 12.936H186.411V16.884ZM207.207 21.224C203.175 21.224 199.927 17.976 199.927 14C199.927 10.024 203.175 6.776 207.207 6.776C211.239 6.776 214.487 10.024 214.487 14C214.487 17.976 211.239 21.224 207.207 21.224ZM207.207 17.276C208.943 17.276 210.231 15.932 210.231 14C210.231 12.068 208.943 10.724 207.207 10.724C205.471 10.724 204.183 12.068 204.183 14C204.183 15.932 205.471 17.276 207.207 17.276ZM218.463 21V1.12H222.691V21H218.463ZM240.792 21H236.564V20.188C235.752 20.86 234.632 21.224 233.484 21.224C229.34 21.224 226.708 17.836 226.708 14C226.708 10.164 229.34 6.776 233.484 6.776C234.632 6.776 235.752 7.168 236.564 7.84V1.12H240.792V21ZM234.184 10.64C232.168 10.64 230.964 12.152 230.964 14C230.964 15.848 232.168 17.36 234.184 17.36C235.22 17.36 236.004 16.968 236.564 16.212V11.816C236.004 11.06 235.22 10.64 234.184 10.64Z" fill="#FEFEFE"/>
</svg>
