<svg width="171" height="37" viewBox="0 0 171 37" fill="none" xmlns="http://www.w3.org/2000/svg">
<path d="M0.375977 15.9281C0.375977 9.24012 5.71998 4.50412 11.736 4.50412C17.752 4.50412 23 9.33612 23 15.9281C23 22.4881 17.56 27.3201 11.544 27.3201C5.52798 27.3201 0.375977 22.4881 0.375977 15.9281ZM3.25598 15.9281C3.25598 22.4881 6.19998 27.0001 11.416 27.0001C16.632 27.0001 20.152 22.4881 20.152 15.9281C20.152 9.33612 17.08 4.82412 11.864 4.82412C6.61598 4.82412 3.25598 9.33612 3.25598 15.9281Z" fill="#FEFEFE"/>
<path d="M41.0425 11.5121C40.0825 11.5121 37.0745 10.9361 34.8025 10.9361V11.0001C38.0985 11.4481 39.9865 13.5921 39.9865 16.4721C39.9865 19.8641 37.1065 21.9761 33.2345 21.9761H32.6585C30.7385 22.1041 28.8825 22.6481 28.8825 23.7041C28.8825 24.9201 30.3545 25.0801 33.1385 25.0801H35.9865C39.5385 25.0801 41.1385 26.8721 41.1385 28.7601C41.1385 32.6641 35.8905 36.6321 31.1545 36.6001C27.2825 36.6321 25.9065 34.9361 25.9065 32.6641C25.9065 30.2001 28.6905 28.0241 31.2505 27.1281C28.6905 27.0321 27.1865 26.5201 27.1865 24.9521C27.1865 23.5441 29.1385 22.2321 31.7305 21.8481C29.0105 21.3681 27.2185 19.5761 27.2185 16.5361C27.2185 13.2721 30.1625 10.7441 33.9065 10.7441C37.0425 10.7441 40.7865 9.52812 41.5545 9.52812C41.8745 9.52812 42.4825 9.62412 42.4825 10.0081C42.4825 10.5521 41.9065 11.5121 41.0425 11.5121ZM56.4985 11.5121C55.5385 11.5121 52.5305 10.9361 50.2585 10.9361V11.0001C53.5545 11.4481 55.4425 13.5921 55.4425 16.4721C55.4425 19.8641 52.5625 21.9761 48.6905 21.9761H48.1145C46.1945 22.1041 44.3385 22.6481 44.3385 23.7041C44.3385 24.9201 45.8105 25.0801 48.5945 25.0801H51.9865C56.2105 25.0801 57.5865 26.9361 57.5865 28.7281C57.5865 33.0161 52.0185 36.6001 47.4745 36.5681C44.3705 36.6001 42.5785 35.0961 42.5785 32.6321C42.5785 30.1681 45.3625 28.0241 47.9545 27.1281H47.7945C44.7545 27.1281 42.6425 26.6481 42.6425 24.9521C42.6425 23.5441 44.5945 22.2321 47.1865 21.8481C44.4665 21.3681 42.6745 19.5761 42.6745 16.5361C42.6745 13.2721 45.6185 10.7441 49.3625 10.7441C52.4985 10.7441 56.2425 9.52812 57.0105 9.52812C57.3305 9.52812 57.9385 9.62412 57.9385 10.0081C57.9385 10.5521 57.3625 11.5121 56.4985 11.5121ZM33.0745 34.8401H33.2025C37.6185 34.8401 40.2105 32.6321 40.2105 30.1361C40.2105 28.0881 38.5785 27.1281 34.8665 27.1281H31.9545C29.2025 27.9601 27.3145 29.6241 27.3145 31.4161C27.3145 33.6881 29.5225 34.8401 33.0745 34.8401ZM49.3625 34.8081H49.5225C53.3625 34.8081 56.6585 32.9841 56.6585 30.1041C56.6585 28.0561 55.0585 27.1281 50.6745 27.1281H48.6585C45.8745 27.9281 43.9865 29.5921 43.9865 31.3841C43.9865 33.6561 46.0025 34.8081 49.3625 34.8081ZM33.5865 21.6561C36.1785 21.6561 37.6185 19.8321 37.6185 16.4721C37.6185 13.7521 36.2425 11.0641 33.7145 11.0641C30.9625 11.0641 29.6185 12.7921 29.6185 16.1841C29.6185 19.2881 30.9305 21.6561 33.5865 21.6561ZM49.0425 21.6561C51.6345 21.6561 53.0745 19.8321 53.0745 16.4721C53.0745 13.7521 51.6985 11.0641 49.1705 11.0641C46.4185 11.0641 45.0745 12.7921 45.0745 16.1841C45.0745 19.2881 46.3865 21.6561 49.0425 21.6561Z" fill="#FEFEFE"/>
<path d="M76.7847 19.0961C74.6727 24.2481 72.1447 30.4241 70.1287 35.6721C69.5847 35.8321 69.6167 35.8961 69.2327 35.6401C71.6647 30.3281 74.1927 24.1841 76.3687 18.9681C78.4487 13.7841 81.4247 6.36012 83.1527 1.97611C83.6647 1.84812 83.6327 1.88012 84.0487 2.10412C81.8407 6.68012 78.8647 13.9441 76.7847 19.0961Z" fill="#FEFEFE"/>
<path d="M98.514 18.7121V13.1121C98.514 5.24012 98.354 5.11212 96.786 5.11212H96.114C95.858 5.11212 95.858 4.82412 96.114 4.82412C97.01 4.82412 99.314 4.92012 99.762 4.92012C100.242 4.92012 102.482 4.82412 103.378 4.82412C103.634 4.82412 103.634 5.11212 103.378 5.11212H102.706C101.138 5.11212 100.978 5.24012 100.978 13.1121V18.7121C100.978 26.5841 101.138 26.7121 102.706 26.7121H103.378C103.634 26.7121 103.634 27.0001 103.378 27.0001C102.482 27.0001 100.242 26.9041 99.762 26.9041C99.314 26.9041 97.01 27.0001 96.114 27.0001C95.858 27.0001 95.858 26.7121 96.114 26.7121H96.786C98.354 26.7121 98.514 26.5841 98.514 18.7121Z" fill="#FEFEFE"/>
<path d="M110.458 7.92812V11.0321C111.418 11.0321 113.722 11.0321 114.778 11.0001C115.834 10.9681 115.898 11.0001 115.898 11.0641C115.898 11.2561 115.322 11.8961 114.33 12.7921C114.074 12.7921 111.482 12.7601 110.394 12.7601V22.8081C110.394 25.1121 111.13 26.3281 112.474 26.3281C113.754 26.3281 115.002 25.1441 115.738 23.0001C115.834 22.7441 116.282 22.9361 116.154 23.1921C115.13 25.2721 113.274 27.3201 111.066 27.3201C108.922 27.3201 107.994 25.9761 107.994 22.9041V12.7601H106.234C106.202 12.7601 106.17 12.6641 106.234 12.6001L110.33 7.89612C110.394 7.83212 110.458 7.80012 110.458 7.92812Z" fill="#FEFEFE"/>
<path d="M122.567 27.3521C120.007 27.3521 118.599 25.7201 118.599 23.7681C118.599 21.6241 120.679 19.5121 126.599 17.2081L129.255 16.1841C129.127 12.1841 128.103 10.9681 125.831 10.9681C123.015 10.9681 122.407 13.4961 121.703 14.5201C121.415 14.9361 121.127 15.0961 120.263 15.0961C119.495 15.0961 118.983 14.8081 118.983 14.3601C118.983 13.9761 119.303 13.3681 120.103 12.8561C121.383 12.0241 124.071 10.6801 126.343 10.6801C129.479 10.6801 131.751 12.3121 131.751 16.5041C131.751 18.6481 131.495 22.2641 131.495 23.5121C131.495 25.3361 131.719 26.2321 132.391 26.2321C132.967 26.2321 133.767 25.1121 134.119 24.4721C134.279 24.2161 134.663 24.4721 134.503 24.7281C133.991 25.4641 131.975 27.3201 130.727 27.3201C129.511 27.3201 128.903 26.4881 128.903 25.0481C128.903 24.2161 128.967 23.0961 129.031 22.4241C128.167 23.8961 124.807 27.3521 122.567 27.3521ZM120.839 22.8401C120.839 24.5681 122.599 25.9441 124.167 25.9441C125.959 25.9441 128.807 22.7441 129.095 21.6881C129.127 21.2721 129.287 19.7041 129.287 17.0801V16.4081L126.663 17.5281C121.959 19.5121 120.839 20.4721 120.839 22.8401Z" fill="#FEFEFE"/>
<path d="M139.234 26.9361C138.754 26.9361 137.09 27.0001 136.162 27.0001C135.906 27.0001 135.906 26.7121 136.162 26.7121C137.538 26.7121 137.602 26.3281 137.602 23.1921V5.20812C137.602 2.45612 137.154 2.42412 135.554 2.71212C135.298 2.74412 135.298 2.45612 135.554 2.42412C137.154 2.13612 138.338 1.59212 139.426 0.984116C139.522 0.920115 140.002 1.04812 140.002 1.20812V23.1921C140.002 26.5201 140.13 26.7121 141.89 26.7121C142.146 26.7121 142.146 27.0001 141.89 27.0001C140.962 27.0001 139.714 26.9361 139.234 26.9361Z" fill="#FEFEFE"/>
<path d="M146.3 23.4801V14.9361C146.3 12.5041 145.852 12.4081 144.252 12.7601C143.996 12.8241 143.9 12.5681 144.156 12.5041C145.756 12.1521 146.908 11.5441 148.156 10.6801C148.252 10.6161 148.732 10.7441 148.732 10.9041V23.4801C148.732 26.2321 148.86 26.7121 150.652 26.7121C150.908 26.7121 150.908 27.0001 150.652 27.0001C149.724 27.0001 148.06 26.9361 147.58 26.9361C147.1 26.9361 145.276 27.0001 144.348 27.0001C144.092 27.0001 144.092 26.7121 144.348 26.7121C146.172 26.7121 146.3 26.2321 146.3 23.4801ZM145.724 6.26412C145.724 5.33612 146.46 4.56812 147.388 4.56812C148.316 4.56812 149.084 5.33612 149.084 6.26412C149.084 7.19212 148.316 7.92812 147.388 7.92812C146.46 7.92812 145.724 7.19212 145.724 6.26412Z" fill="#FEFEFE"/>
<path d="M155.983 18.2001C155.983 22.4241 158.991 25.5281 163.311 25.5281C166.319 25.5281 168.399 24.0561 169.999 21.1441C170.063 21.0161 170.159 20.9841 170.223 21.0161C170.287 21.0481 170.319 21.1441 170.255 21.2401C168.463 24.6001 165.103 27.3201 161.583 27.3201C157.071 27.3201 153.903 24.1521 153.903 19.6401C153.903 15.0321 158.351 10.6801 163.023 10.6801C166.159 10.6801 168.367 11.9601 168.367 13.0801C168.367 13.6241 167.823 14.3921 166.799 14.3921C165.455 14.3921 164.783 11.3841 161.679 11.3841C158.511 11.3841 155.983 13.8481 155.983 18.2001Z" fill="#FEFEFE"/>
</svg>
