<svg width="470" height="80" viewBox="0 0 470 80" fill="none" xmlns="http://www.w3.org/2000/svg">
<path d="M29.394 4.9061H29.124C28.764 6.7781 28.26 9.6221 27.864 11.9441C29.214 11.9621 30.402 11.9621 31.248 11.9621C32.094 11.9621 32.994 11.9801 33.426 11.9981C33.768 12.0161 32.76 12.8621 32.346 12.9341C31.842 13.0241 31.518 12.9881 30.762 12.9881C29.952 12.9881 28.89 12.9521 27.702 12.8981L27.36 15.2021C27.18 16.4621 27.342 17.2721 27.396 17.5421C27.468 17.8481 27.774 18.0281 28.116 18.1361C28.656 17.9381 30.384 16.6961 31.014 16.0481L31.122 16.1741C30.474 16.7861 28.71 18.2981 27.63 18.9461C27.45 19.0541 26.874 19.0001 26.784 18.9281C26.352 18.6041 26.172 18.0101 26.154 17.6681C26.1 16.9661 25.992 16.5161 26.19 15.3101C26.28 14.7161 26.424 13.8521 26.604 12.8441C25.074 12.7721 23.4 12.6641 21.762 12.5741C20.376 14.2661 19.314 15.5801 19.062 15.8321C15.894 19.3601 15.012 20.0801 13.212 20.0801C10.242 20.0801 8.91 16.6421 9.972 15.1301C10.998 13.6001 13.248 11.8361 16.146 11.8361C17.352 11.8361 19.548 11.8541 21.978 11.8901L27.81 4.8881C26.874 4.8881 25.722 4.9241 24.732 5.0141C22.806 5.2301 21.258 5.5901 20.88 5.5901C20.538 5.5901 21.726 4.5281 21.87 4.3121C22.14 4.1681 24.03 4.1681 24.804 4.1681H28.08C31.536 4.1681 34.11 4.0421 34.938 4.0421C35.064 4.0421 35.352 4.0421 35.514 4.0961C35.514 4.3301 35.19 4.9601 34.74 5.2301C34.146 5.3741 30.384 4.9061 29.394 4.9061ZM15.084 12.2861C13.05 12.2861 11.988 13.0961 11.196 14.8961C10.368 16.6601 11.646 19.4141 14.238 19.4141C15.264 19.4141 15.57 19.4861 18.72 15.8501C19.26 15.2561 20.232 14.0141 21.474 12.5561C18.954 12.4121 16.578 12.2861 15.084 12.2861ZM28.116 4.9241L22.284 11.8901L26.766 11.9441C27.216 9.4241 27.792 6.4541 28.116 4.9241Z" fill="#D7D7D7"/>
<path d="M39.2778 17.4881C39.1878 16.3721 40.4298 14.8961 41.0418 13.9061C39.4758 15.5981 37.2798 17.6501 35.7678 18.9461C35.6058 19.0721 35.1378 19.0181 35.0478 18.9461C34.1658 18.2801 34.2378 16.1741 34.9398 14.4281C36.0918 11.5661 39.3858 9.7841 40.9518 9.7841C41.8338 9.7841 42.3378 9.9281 43.3998 11.0981C43.6518 10.8821 44.2638 10.3061 44.6598 9.8741C44.8398 9.6941 44.8218 9.9101 44.8218 9.9101C43.6518 11.3681 40.6998 15.8321 40.7898 17.3261C40.8078 17.6321 41.0778 17.9741 41.4378 18.0821C41.8878 17.8841 42.8778 17.2541 43.5978 16.4981L43.7058 16.6241C43.0398 17.2721 41.9958 18.2621 40.8618 18.9461C40.6818 19.0541 39.9258 19.0001 39.8538 18.9281C39.4758 18.4961 39.2958 17.8481 39.2778 17.4881ZM36.1818 18.0461C37.0458 17.8121 40.4298 14.4641 42.4278 12.0521C41.2578 10.5761 40.6278 10.2161 39.9078 10.2161C38.6478 10.2161 36.9738 11.9981 36.2718 14.1941C35.6958 15.9761 35.6958 17.4881 36.1818 18.0461Z" fill="#D7D7D7"/>
<path d="M66.6944 11.1161C67.6304 10.5761 68.3504 9.7301 68.5844 8.7941C68.9804 7.0301 67.9544 4.6901 63.8144 4.6901C59.8544 4.6901 56.9744 6.3101 55.3004 10.3421C55.0124 11.0261 54.6164 11.3681 53.9684 11.3681C53.2664 11.3681 53.1944 10.9361 53.6264 10.2521C55.8044 6.8681 60.6644 3.9341 64.7864 4.0421C68.9984 4.0421 70.3124 6.3281 69.5924 8.4521C69.2324 9.4961 67.9184 10.6121 66.9104 11.1701C68.5304 11.8901 68.6744 14.2301 68.0444 15.5621C67.3964 16.9661 64.5704 19.0361 62.3204 19.0361C60.2504 19.0361 58.7744 19.0001 58.1624 19.0001C54.7064 18.9641 53.4284 19.0541 53.0504 19.0541C52.4744 19.0541 52.1144 18.9461 51.9704 18.7841C51.9164 18.3521 52.4024 17.5961 52.8524 17.3261C53.5364 17.1281 56.5604 18.7481 57.9104 17.9381C58.9904 17.0741 59.7104 14.5721 60.9344 11.5661C62.1944 8.4161 63.8504 5.8061 65.4524 5.0141L65.5784 5.0501C64.7324 5.4641 63.3104 9.2261 62.2304 11.7281L62.1944 11.8001C63.7784 11.4221 65.3084 11.2421 66.6944 11.1161ZM57.7844 18.1181C58.6844 18.2081 61.2584 18.2981 63.4184 18.1181C65.7044 17.9201 66.4424 17.4341 67.0364 16.0121C67.6664 14.5541 67.1804 12.4661 65.6324 11.8541C64.7144 11.7281 63.2204 11.7641 62.1404 11.9261C60.7004 15.3281 59.4044 17.6861 57.7844 18.1181Z" fill="#D7D7D7"/>
<path d="M79.6004 9.7121C80.0504 9.7841 80.5004 10.4681 80.6444 11.0441C80.9144 12.0881 80.4284 13.6001 79.9064 14.5361C78.9884 16.1921 77.4764 17.3441 76.2344 18.1181C75.1184 18.7301 74.2004 19.0901 73.4624 19.0901C72.7064 19.0901 72.0044 18.5321 71.3924 17.7041L70.6904 18.8561C70.3124 18.8741 69.3044 19.1261 69.7004 18.1181C70.6184 16.6601 74.4524 9.5861 75.3164 8.2361C76.6304 6.0761 80.2304 2.9441 84.7844 2.9441C85.5404 2.9441 86.4404 2.9621 86.8724 3.0341C87.4484 3.1241 86.6924 4.2941 86.2604 4.2941C85.1084 4.2941 83.4704 3.9881 81.7244 3.9881C79.9784 3.9881 78.9164 4.3301 76.6304 8.2721C75.6584 9.8921 74.3264 12.3401 72.6704 15.2921C74.2184 13.7621 75.8924 12.2861 77.0084 11.3321C77.7824 10.6661 79.0244 9.7121 79.6004 9.7121ZM74.6684 18.3521C75.1364 18.3521 75.6044 18.2981 76.1624 18.0101C76.9004 17.3981 77.7284 16.7321 78.4664 15.0761C79.2224 13.4021 79.3304 12.0341 79.1864 11.4041C79.0604 10.8641 78.8804 10.7381 78.6284 10.6121C78.3764 10.6121 77.7824 10.9001 77.0984 11.4761C75.4064 12.8981 73.1024 15.0581 72.0224 16.4801C72.8864 17.8841 73.7504 18.3521 74.6684 18.3521Z" fill="#D7D7D7"/>
<path d="M100.899 17.0021C99.5313 18.6761 97.0113 20.6381 94.8513 20.6381C89.4873 20.6381 87.9393 14.6621 91.1433 9.9461C92.8713 7.4261 96.6873 4.0961 101.133 4.0961C103.563 4.0961 105.165 5.2841 105.507 5.5361C105.759 5.7341 104.769 6.3641 104.463 6.3641C103.671 6.3641 102.051 4.7081 99.3873 4.7081C96.5073 4.7081 94.0053 6.8861 92.4213 9.3521C89.5593 13.9061 90.8373 19.6661 95.8413 19.6661C97.6773 19.6661 99.7293 18.1901 100.773 16.8761C100.827 16.8041 101.007 16.8761 100.899 17.0021Z" fill="#D7D7D7"/>
<path d="M105.435 19.1081C104.607 19.1081 103.761 18.5861 103.473 17.7401C103.275 17.0021 102.951 15.7781 104.247 13.6001C104.931 12.3761 106.407 11.1341 108.027 10.2521C108.729 9.8741 109.413 9.6941 110.205 9.6941C111.339 9.6941 111.897 10.1981 111.897 10.8461C111.897 11.4581 111.249 11.8361 110.853 11.8901C110.637 11.0261 110.097 10.2521 108.909 10.2521C108.567 10.2521 108.369 10.2881 108.117 10.3601C107.235 10.9721 106.461 11.8361 105.867 12.8261C105.111 14.0861 104.679 15.5621 104.805 17.0021C105.003 17.7041 105.435 18.0641 105.921 18.1901C106.497 18.3521 107.379 18.1721 108.045 17.8661C108.513 17.6501 109.539 16.9121 110.115 16.1921L110.277 16.2821C109.539 17.1641 108.675 17.8121 107.721 18.3341C107.109 18.6761 106.299 19.1081 105.435 19.1081Z" fill="#D7D7D7"/>
<path d="M130.009 19.0361L126.499 19.0001C123.043 18.9641 120.721 19.0541 120.343 19.0541C119.767 19.0541 119.407 18.9461 119.263 18.7841C119.209 18.3521 119.695 17.5961 120.145 17.3261C120.829 17.1281 124.195 18.7121 125.509 17.7941C126.841 16.8761 127.309 14.7341 128.587 11.5661C129.847 8.4161 131.413 5.9141 133.015 5.1221L133.141 5.1581C132.295 5.5721 130.945 9.2261 129.865 11.7281C128.389 15.2381 126.913 17.3261 125.275 18.1901C125.923 18.2441 129.235 18.2801 131.269 18.1181C134.311 17.9021 135.823 17.0561 137.047 14.4461C139.081 10.1441 137.011 4.7441 130.513 4.7441C126.571 4.7441 124.267 6.0041 122.773 9.6041C122.611 10.3241 122.089 10.6121 121.441 10.6121C120.739 10.6121 120.667 10.1801 121.099 9.5141C122.953 6.6341 127.561 3.9341 131.413 4.0421C138.253 4.0421 140.431 10.0001 138.379 13.8701C137.083 16.2281 133.195 19.0361 130.009 19.0361Z" fill="#D7D7D7"/>
<path d="M151.113 7.8761C152.571 5.7881 155.163 4.1321 157.845 3.2681C159.249 2.9441 159.969 2.9441 160.887 2.9441C161.643 2.9441 162.525 2.9621 162.957 3.0341C163.551 3.1241 162.651 4.2941 162.219 4.2941C161.067 4.2941 159.447 3.9701 157.701 3.9701C155.415 3.9701 154.497 4.6181 150.933 10.0541C149.925 11.6201 147.135 16.1561 147.117 17.2361C147.117 17.5421 147.279 18.1181 147.711 18.1541C148.179 17.9561 149.205 17.3261 149.943 16.5701L150.051 16.6961C149.367 17.3441 148.341 18.2621 147.207 18.9461C147.027 19.0541 146.307 19.0001 146.235 18.9281C145.893 18.5681 145.605 17.7401 145.659 17.4161C145.731 16.4441 147.117 14.2841 147.909 13.0241L148.053 12.8441C146.577 14.6801 143.877 17.3801 142.059 18.9461C141.897 19.0721 141.429 19.0181 141.339 18.9461C140.457 18.2801 140.529 16.1741 141.231 14.4281C142.383 11.5661 145.677 9.7841 147.243 9.7841C147.999 9.7841 148.539 10.0721 149.187 10.7561C149.979 9.5681 150.825 8.2721 151.113 7.8761ZM142.473 18.0461C143.337 17.8121 146.577 14.3921 148.575 11.9801C147.405 10.5041 146.919 10.2161 146.199 10.2161C144.939 10.2161 143.265 11.9981 142.563 14.1941C141.987 15.9761 141.987 17.4881 142.473 18.0461Z" fill="#D7D7D7"/>
<path d="M164.735 10.9901C165.941 10.9901 167.561 10.9721 169.181 10.9541C170.387 8.0021 171.863 6.1481 173.357 5.3201C172.043 4.9961 170.639 4.7081 169.451 4.7081C166.139 4.7081 163.961 6.3821 162.251 10.5041C162.089 11.2241 161.567 11.5121 160.937 11.5121C160.217 11.5121 160.145 11.0801 160.577 10.4141C162.755 7.0301 166.355 4.0961 171.233 4.0961C172.943 4.0961 174.941 4.5101 177.191 5.0501C179.531 5.6261 180.233 5.8601 180.305 6.0581C180.395 6.2741 179.873 6.8861 179.639 6.9581C179.405 6.9581 177.767 6.5261 176.057 6.0581C175.355 5.8781 174.455 5.6081 173.519 5.3741C172.709 5.9681 171.539 8.6141 170.531 10.9181C172.277 10.9001 173.861 10.8641 174.707 10.8641C175.553 10.8641 176.399 10.9001 176.777 10.9901C177.083 11.0441 176.309 12.0161 175.895 12.0881C175.391 12.1781 174.995 12.1601 174.221 12.1061C173.375 12.0521 171.899 11.8541 170.225 11.6561C168.839 14.8601 167.255 17.2001 165.743 18.1001C166.571 18.1181 169.631 18.1721 171.287 17.9741C173.195 17.7761 175.103 17.4881 175.481 17.4881C175.805 17.4881 174.635 18.5501 174.473 18.7841C174.221 18.9101 171.971 18.9101 171.197 18.9101H167.921C164.465 18.9101 160.865 19.0541 160.487 19.0541C159.911 19.0541 159.551 18.9461 159.407 18.7841C159.335 18.3521 159.839 17.7761 160.289 17.4881C160.955 17.3081 164.501 18.6941 165.815 17.7761C167.093 16.8941 167.777 14.5001 168.947 11.4941C167.507 11.3321 165.995 11.1881 164.663 11.1341C164.267 11.1161 164.573 10.9901 164.735 10.9901Z" fill="#D7D7D7"/>
<path d="M186.386 10.5941C186.566 11.7641 184.784 13.2581 179.672 16.1741C179.654 16.4621 179.654 16.7321 179.672 17.0021C179.87 17.7041 180.23 18.0641 180.716 18.1901C181.292 18.3521 182.21 18.1361 182.876 17.8301C183.344 17.6141 184.514 16.7321 185.09 16.0121L185.252 16.1021C184.514 16.9841 183.416 17.8121 182.462 18.3341C181.85 18.6761 181.004 19.1081 180.14 19.1081C179.438 19.1081 178.592 18.4781 178.322 17.6861C178.124 16.9481 177.926 15.7781 179.222 13.6001C179.906 12.3761 181.346 11.0801 182.552 10.3961C183.254 10.0181 184.064 9.7481 184.784 9.7481C185.594 9.7481 186.296 10.0181 186.386 10.5941ZM184.964 12.1061C185.378 11.0081 183.974 10.0181 182.894 10.3781C181.85 11.0801 179.996 13.6181 179.69 15.9941C183.254 13.8881 184.658 12.9881 184.964 12.1061Z" fill="#D7D7D7"/>
<path d="M195.897 11.5121C195.195 11.5121 195.123 11.0801 195.555 10.4141C197.733 7.0301 201.333 4.0961 206.193 4.0961C207.903 4.0961 209.919 4.5101 212.169 5.0501C214.509 5.6261 215.193 5.8601 215.265 6.0581C215.355 6.2741 214.833 6.8861 214.617 6.9581C214.365 6.9581 212.727 6.5261 211.017 6.0581C210.279 5.8601 209.379 5.5901 208.389 5.3381C207.345 6.1661 206.301 8.7221 205.311 10.9181C206.697 10.8821 207.939 10.8641 208.713 10.8641C209.577 10.8641 210.423 10.9001 210.801 10.9901C211.107 11.0441 210.333 11.9081 209.919 11.9801C209.415 12.0701 209.019 12.0521 208.245 11.9981C207.453 11.9441 206.301 11.8001 204.969 11.6381L204.933 11.7281C203.367 15.2381 201.693 17.6681 199.965 18.5681C198.399 19.3781 196.869 19.6301 195.609 19.6301C194.385 19.6301 193.881 19.5401 193.701 19.3421C193.611 18.9461 194.151 18.3521 194.511 18.1361C195.195 17.9561 198.741 19.2881 200.055 18.3701C201.387 17.4521 202.287 14.7341 203.691 11.5661C203.691 11.5481 203.709 11.5121 203.727 11.4761C202.431 11.3321 201.027 11.2061 199.641 11.1341C199.227 11.1161 199.551 10.9901 199.695 10.9901C200.955 10.9901 202.485 10.9721 203.961 10.9541C205.167 8.2721 206.463 6.2741 208.245 5.3021C206.949 4.9781 205.581 4.7081 204.411 4.7081C201.099 4.7081 198.921 6.3821 197.229 10.5041C197.049 11.2241 196.545 11.5121 195.897 11.5121Z" fill="#D7D7D7"/>
<path d="M206.142 20.5301C206.106 20.8721 206.142 21.3941 206.214 21.7181C206.358 22.3661 206.808 23.0681 207.456 23.0681C208.338 23.0681 208.806 22.8521 210.732 19.4141C211.596 17.8481 213.648 13.7441 215.178 10.8821H214.044C213.9 10.8461 213.9 10.7201 213.99 10.6661L215.88 9.5861C216.168 9.0461 216.42 8.6141 216.618 8.3081C218.652 5.0861 221.478 2.8541 224.502 2.8541C225.51 2.8541 226.68 3.0161 227.328 3.2681C227.688 3.4121 226.896 4.3121 226.41 4.3121C225.42 4.3121 224.34 3.6101 222.612 3.6101C221.028 3.6101 220.146 4.2941 217.896 8.2541L217.014 9.8561C218.166 9.8561 219.588 9.7661 219.732 9.8021C219.93 9.8561 219.066 10.9181 218.724 10.9361C218.634 10.9361 217.626 10.9181 216.456 10.9001C214.872 13.8701 213.468 16.6961 212.01 19.3061C210.372 22.2581 208.032 23.4461 206.736 23.4461C205.566 23.4461 204.918 22.8521 204.918 22.0061C204.918 21.2861 205.44 20.6381 206.142 20.5301Z" fill="#D7D7D7"/>
<path d="M233.405 19.0361C227.699 19.0361 226.943 13.0781 229.607 9.1721C231.191 6.8681 234.683 4.0961 239.543 4.0961C241.253 4.0961 242.819 4.3301 245.051 5.0681C245.105 5.0861 245.141 5.1221 245.141 5.1761C245.141 5.4641 244.241 6.1841 243.953 6.1841C243.827 6.1841 243.665 6.1481 243.431 6.0761C241.739 5.5361 239.705 4.7081 237.761 4.7081C234.449 4.7081 232.181 6.6881 230.975 8.5961C228.365 12.7361 229.103 18.1901 234.647 18.2621C237.401 18.2981 240.317 16.7501 242.027 12.3221C241.559 12.2501 240.731 12.1241 239.507 12.1061C237.221 12.0881 234.539 12.6461 234.053 12.6461C233.729 12.6461 234.611 11.6381 235.079 11.4581C235.331 11.3321 237.239 11.3681 238.013 11.3681C240.299 11.3681 242.189 11.2781 242.567 11.2781C242.981 11.2781 243.773 12.0521 243.701 12.4301C241.955 14.8961 239.795 19.1621 238.985 20.9981C238.571 21.8981 235.673 22.7621 234.899 23.0681C234.719 23.1221 234.683 22.9781 234.845 22.9061C235.673 22.5821 236.501 22.2761 237.131 21.3581C237.563 20.6921 239.273 17.9561 240.335 16.0121C238.175 17.7941 235.439 19.0361 233.405 19.0361Z" fill="#D7D7D7"/>
<path d="M244.486 26.1281C243.154 26.1101 241.372 25.7681 240.904 24.6701C240.166 22.9061 243.892 21.1061 246.862 19.0001C246.7 19.0001 246.538 18.9821 246.502 18.9461C245.62 18.2801 245.674 16.1921 246.394 14.4461C247.564 11.5841 250.93 9.7661 252.496 9.7661C253.378 9.7661 253.666 9.9821 254.764 11.2781C255.124 10.9721 255.79 10.3961 256.312 9.9101L256.438 9.9821C255.862 10.6661 255.304 11.4041 254.854 12.1061C250.66 18.7661 251.614 21.8261 250.498 23.6621C249.562 25.2641 246.772 26.1641 244.486 26.1281ZM247.222 18.9101C244.324 20.9801 241.714 22.7261 242.452 24.5261C242.884 25.5521 244.09 25.9481 245.386 25.9481C246.664 25.9481 247.996 25.2461 248.932 23.9141C250.102 22.1321 249.562 18.7301 252.658 13.7621C251.002 15.4541 248.572 17.7761 247.222 18.9101ZM247.672 18.0821C248.662 17.4161 252.01 14.4821 253.828 12.1061C252.622 10.6301 252.208 10.1981 251.488 10.1981C250.228 10.1981 248.41 12.0161 247.726 14.2121C247.168 15.9941 247.132 17.4521 247.672 18.0821Z" fill="#D7D7D7"/>
<path d="M264.148 14.5541C265.174 13.0421 267.802 11.0441 270.718 11.0441C271.942 11.0441 273.922 11.0801 276.046 11.0981C276.604 10.1441 277.126 9.2441 277.522 8.5061C278.134 7.3721 278.548 6.4181 278.512 5.7881C278.512 5.4821 278.296 5.1941 277.954 5.0861C277.396 5.2841 275.686 6.5261 275.056 7.1741L274.948 7.0661C275.578 6.4361 277.342 4.9421 278.44 4.2761C278.602 4.1681 279.196 4.2221 279.286 4.2941C279.718 4.6181 279.916 5.3201 279.934 5.6621C279.988 6.3641 279.304 7.6241 278.692 8.7041C278.296 9.4061 277.81 10.2521 277.288 11.1161C279.412 11.1521 281.536 11.1881 283.138 11.1881C283.804 10.0721 284.362 9.1541 284.632 8.7581C286.792 5.4821 289.762 3.7361 292.336 3.6101C293.434 3.5561 294.496 3.5921 294.91 3.7181C295.45 3.8621 294.514 4.9241 294.046 4.9241C293.38 4.9241 291.67 4.3661 290.59 4.3661C289.186 4.3661 288.088 4.9961 285.82 8.7401C285.316 9.5501 284.83 10.3781 284.344 11.1881C286.396 11.1881 287.71 11.2061 288.124 11.2241C288.52 11.2421 287.566 11.9801 287.116 12.0521C286.63 12.1421 285.838 12.1061 283.822 12.1061C283.318 12.9881 282.832 13.8701 282.364 14.7341C281.734 15.8681 281.356 16.8041 281.392 17.4521C281.41 17.7401 281.608 18.0281 281.968 18.1361C282.508 17.9381 284.218 16.6961 284.866 16.0481L284.974 16.1741C284.326 16.7861 282.562 18.2981 281.482 18.9461C281.302 19.0541 280.708 19.0001 280.636 18.9281C280.204 18.6041 279.988 17.9201 279.97 17.5601C279.916 16.8581 280.618 15.5981 281.212 14.5181C281.662 13.7261 282.13 12.8981 282.598 12.1061C280.978 12.0701 278.944 11.9441 276.874 11.8181C275.794 13.6181 274.732 15.3461 274.426 15.8141C272.266 19.0901 269.008 20.6201 268.126 20.6201C264.958 20.6201 262.438 17.0561 264.148 14.5541ZM269.638 11.4941C267.604 11.4941 266.164 12.5201 265.372 14.3381C264.328 16.5701 266.092 19.9721 268.954 19.9721C269.98 19.9721 271.006 19.4861 273.22 15.8501C273.886 14.7521 274.804 13.2401 275.668 11.7461C273.4 11.6201 271.204 11.4941 269.638 11.4941Z" fill="#D7D7D7"/>
<path d="M296.996 9.7661C298.112 10.0181 298.094 11.2961 296.204 14.4641C295.556 15.6161 294.818 16.7141 294.854 17.3801C294.872 17.6861 295.016 17.9921 295.376 18.1001C295.952 17.9021 296.942 17.2541 297.608 16.5701L297.716 16.6961C297.05 17.3441 296.006 18.2621 294.872 18.9461C294.692 19.0541 294.152 19.0001 294.062 18.9281C293.612 18.5861 293.396 17.8661 293.378 17.5061C293.324 16.7681 294.368 15.2741 294.998 14.1941C296.51 11.6021 296.438 10.9541 296.024 10.5581C294.908 10.8101 291.902 13.2041 289.868 16.1921C289.256 17.1101 288.698 18.2261 288.32 18.8561C287.942 18.8741 286.916 19.1261 287.312 18.1181C288.23 16.6601 292.064 9.5861 292.928 8.2361C294.242 6.0761 297.842 2.9441 302.396 2.9441C303.152 2.9441 304.052 2.9621 304.484 3.0341C305.06 3.1241 304.304 4.2941 303.872 4.2941C302.72 4.2941 301.082 3.9881 299.336 3.9881C297.59 3.9881 296.528 4.3301 294.242 8.2721C293.252 9.9281 291.902 12.4301 290.39 15.1481C292.532 12.5201 295.826 9.9461 296.996 9.7661Z" fill="#D7D7D7"/>
<path d="M313.874 11.4221C315.494 7.9121 316.826 5.6981 318.752 4.8161C317.024 4.6361 313.046 5.5181 312.56 5.5181C312.218 5.5181 313.1 4.5281 313.568 4.3481C313.838 4.2041 315.728 4.2401 316.52 4.2401C318.788 4.2401 322.532 4.0781 322.91 4.0781C323.468 4.0781 323.846 4.1681 323.972 4.3301C324.026 4.5641 323.612 4.9781 323.162 5.2661C322.496 5.4461 319.562 4.3481 318.266 5.2661C316.934 6.1841 316.7 8.4161 315.314 11.5661C313.73 15.0761 311.84 17.4161 310.22 18.2801C310.922 18.5501 315.476 17.5781 316.736 17.6321C317.204 17.6501 316.574 18.9641 315.44 18.9641L312.938 18.9101C309.482 18.9101 306.314 19.0541 305.918 19.0541C305.36 19.0541 305 18.9461 304.856 18.7841C304.838 18.5321 305.396 18.0101 305.738 17.9201C306.17 17.7941 307.538 18.2621 308.87 18.2621C309.644 18.2621 310.256 18.1721 310.76 17.7761C312.02 16.7681 312.488 14.5721 313.874 11.4221Z" fill="#D7D7D7"/>
<path d="M324.317 11.2601C324.317 11.9801 323.003 13.5281 322.373 14.5541C321.671 15.6881 320.879 16.8041 320.915 17.4701C320.933 17.7761 321.329 18.0281 321.689 18.1361C322.265 17.9381 323.183 17.2541 323.849 16.5701L323.957 16.6961C323.291 17.3441 322.301 18.2621 321.167 18.9461C320.987 19.0541 320.267 19.0001 320.177 18.9281C319.727 18.5861 319.457 17.9561 319.439 17.5961C319.385 16.8581 320.411 15.3641 321.077 14.2661C322.049 12.7001 322.625 11.9801 322.787 11.3861C322.877 11.0441 322.517 10.6481 322.247 10.5941C321.815 10.7381 320.681 11.5121 320.015 12.1061L319.889 12.0161C320.537 11.3861 321.941 10.3241 322.859 9.7661C323.075 9.6401 323.291 9.6401 323.453 9.7121C323.867 9.9101 324.317 10.8101 324.317 11.2601ZM324.497 8.4521L324.389 8.3441C326.135 6.5621 327.809 4.6541 328.727 3.3581C328.979 3.0701 329.411 3.3761 329.141 3.6641C328.079 4.8881 326.279 6.6341 324.497 8.4521Z" fill="#D7D7D7"/>
<path d="M341.752 4.9601C339.934 4.7261 336.514 5.6981 335.614 5.6981C335.29 5.6981 336.208 4.6001 336.676 4.4381C336.946 4.2941 337.27 4.2221 339.574 4.2221C341.788 4.2221 342.742 4.0421 343.714 4.0421C344.02 4.0421 343.048 5.1041 342.652 5.1041C339.142 5.1041 338.278 9.1181 336.82 13.4201C334.246 20.9261 333.868 20.7101 328.18 24.0041C327.694 24.3101 327.514 24.0941 328.072 23.7881C332.752 21.0881 333.49 19.2161 335.596 12.8441C337.054 8.6861 338.53 6.3461 341.752 4.9601Z" fill="#D7D7D7"/>
<path d="M343.04 10.5401C342.446 10.7021 341.258 11.5481 340.646 12.1601L340.52 12.0521C341.168 11.3861 342.716 10.2521 343.634 9.6941C343.85 9.5681 344.138 9.6041 344.3 9.6761C344.714 9.8741 344.822 10.8641 344.732 11.5661C344.714 12.0521 343.544 13.9421 341.978 16.7141C339.962 20.2781 338.54 21.2501 336.794 22.1861C335.228 23.0321 333.68 23.2841 332.366 23.2841C331.088 23.2841 330.53 23.1941 330.35 22.9781C330.224 22.5821 330.746 21.9521 331.088 21.7361C331.79 21.5381 335.588 22.9241 336.884 21.9701C338.198 21.0161 339.332 18.9461 340.916 16.2281C341.888 14.5541 343.31 12.1781 343.4 11.4581C343.454 11.0081 343.256 10.6121 343.04 10.5401ZM345.074 8.4521L344.966 8.3441C346.712 6.5621 348.386 4.6541 349.304 3.3581C349.556 3.0701 349.988 3.3761 349.718 3.6641C348.656 4.8881 346.856 6.6341 345.074 8.4521Z" fill="#D7D7D7"/>
<path d="M365.68 10.6661L365.878 10.5221C366.346 13.2221 367.3 15.9221 367.948 17.0021C368.308 17.5961 368.722 17.9921 369.172 18.1541C369.766 17.9921 370.63 17.2721 371.566 16.4081L371.674 16.4801C370.9 17.2181 369.784 18.3161 368.65 18.9461C368.452 19.0541 367.948 19.0001 367.84 18.9281C367.408 18.6041 366.994 17.9921 366.796 17.6501C366.076 16.5161 365.212 13.8161 364.834 11.4401C363.358 12.7541 361.936 14.0321 360.928 14.9141C359.992 16.4261 358.912 17.6501 357.778 18.2981C356.284 19.1441 354.79 19.3961 353.62 19.3961C352.378 19.3961 351.802 19.2341 351.658 19.0901C351.64 18.8921 351.928 18.2081 352.414 17.9021C352.792 17.8481 354.484 18.5141 355.942 18.5141C356.662 18.5141 357.346 18.4241 357.796 18.1181C358.858 17.3621 359.614 15.4541 360.928 12.1961C362.89 7.3901 364.654 5.5001 366.04 4.9061C364.222 4.6721 360.964 5.5721 360.082 5.5721C359.74 5.5721 360.676 4.4921 361.144 4.3121C361.396 4.1681 361.738 4.1681 364.024 4.1681C366.238 4.1681 367.21 3.9881 368.182 3.9881C368.488 3.9881 367.498 4.8881 367.102 4.8881C365.158 4.8881 364.69 6.5441 362.53 11.7281C362.134 12.6821 361.702 13.6181 361.198 14.4641C363.61 12.1781 368.128 8.0921 370.27 6.4361C372.412 4.8161 374.428 4.2221 376.282 4.2221C376.606 4.2221 376.768 4.3481 376.768 4.4561C376.768 4.7621 376.192 5.5901 375.886 5.5901C375.13 5.5901 374.104 5.4461 373.186 5.4461C372.484 5.4461 371.53 5.8241 370.648 6.4721C369.442 7.3541 367.57 8.9921 365.68 10.6661Z" fill="#D7D7D7"/>
<path d="M373.676 18.8561C373.298 18.8741 372.272 19.1261 372.668 18.1181C373.586 16.6601 377.42 9.5861 378.284 8.2361C379.598 6.0761 383.198 2.9441 387.752 2.9441C388.508 2.9441 389.408 2.9621 389.84 3.0341C390.416 3.1241 389.66 4.2941 389.228 4.2941C388.076 4.2941 386.438 3.9881 384.692 3.9881C382.946 3.9881 381.884 4.3301 379.598 8.2721C378.86 9.5141 377.708 11.6021 376.502 13.7801C378.824 11.2601 381.092 9.5861 382.118 9.5861C382.838 9.7481 383.72 10.9541 383.504 11.7101C383.342 12.3581 382.748 13.1501 382.1 13.4921C381.254 14.0321 380.12 14.1941 377.672 14.5361C378.176 14.6081 378.752 14.8781 379.094 15.3461C379.472 15.8501 379.616 17.2181 379.976 17.8841C380.066 18.0461 380.336 18.2441 380.66 18.2441C381.236 18.0461 382.334 17.2001 383 16.5161L383.108 16.6421C382.442 17.2901 381.434 18.2261 380.3 18.9101C380.138 19.0181 379.004 19.0181 378.752 18.6401C378.158 17.7581 378.194 16.2281 377.672 15.4901C377.276 14.9681 376.826 14.7161 375.944 14.7881C375.152 16.2281 374.36 17.6501 373.676 18.8561ZM382.082 11.6561C382.154 11.2061 381.668 10.3061 381.146 10.2521C380.048 10.5041 377.474 12.7181 376.106 14.4821L376.016 14.6621C381.056 13.9781 382.028 12.6821 382.082 11.6561Z" fill="#D7D7D7"/>
<path d="M408.856 18.7841L409 18.8921C408.568 19.3961 408.082 19.9721 407.758 20.2961C406.426 21.6101 405.382 22.4741 403.618 22.4741C401.89 22.4741 399.244 20.3501 396.904 18.7481C395.59 20.8181 393.772 22.6001 391.972 22.6001C390.028 22.6001 388.858 20.6561 389.506 19.0901C389.992 17.8841 392.206 16.4081 394.24 16.4081C394.978 16.4081 395.914 16.8221 396.94 17.3981C397.948 14.8601 399.028 10.6661 400.234 8.1101C401.53 5.1941 404.248 3.6101 407.794 3.6101C409.054 3.6101 411.16 4.0961 411.592 4.2941C412.132 4.5281 411.034 5.4641 410.728 5.4641C409.72 5.4641 407.542 4.1141 405.778 4.1141C404.122 4.1141 403.348 4.6001 401.71 8.2721C400.432 11.1341 399.136 14.4821 397.732 17.2721C397.66 17.4341 397.57 17.5781 397.498 17.7221C399.946 19.1801 402.808 21.3221 404.932 21.3221C406.714 21.3221 407.812 19.9721 408.856 18.7841ZM393.124 16.9121C391.954 16.9121 391.072 17.4161 390.64 18.5681C390.172 19.7741 391.468 21.6821 393.196 21.6821C394.474 21.6821 395.32 20.9801 396.49 18.4601C395.194 17.5781 393.988 16.9121 393.124 16.9121Z" fill="#D7D7D7"/>
<path d="M415.351 8.1461C416.665 5.9861 420.157 2.9441 424.711 2.9441C425.467 2.9441 426.367 2.9621 426.799 3.0341C427.375 3.1241 426.619 4.2941 426.187 4.2941C425.035 4.2941 423.397 3.9881 421.651 3.9881C419.905 3.9881 418.861 4.3301 416.575 8.2721C415.315 10.3421 414.127 12.4661 412.993 14.5361C412.345 15.7241 411.841 16.7141 411.877 17.3801C411.895 17.6861 412.111 17.9921 412.471 18.1001C413.047 17.9021 413.983 17.2541 414.649 16.5701L414.757 16.6961C414.091 17.3441 413.101 18.2621 411.967 18.9461C411.787 19.0541 411.175 19.0001 411.085 18.9281C410.635 18.5861 410.491 17.8481 410.473 17.4881C410.419 16.7501 411.121 15.4361 411.733 14.3201C413.065 11.8901 414.829 8.9381 415.351 8.1461Z" fill="#D7D7D7"/>
<path d="M453.255 4.7441C453.525 4.5461 453.705 4.6541 453.489 4.8881C451.725 7.1201 449.871 11.7461 448.791 14.7341C448.377 15.8861 448.377 16.8041 448.413 17.4521C448.431 17.7401 448.629 18.0281 448.989 18.1361C449.529 17.9381 451.599 16.3541 452.247 15.7061L452.355 15.8141C451.707 16.4441 449.583 18.2981 448.503 18.9461C448.323 19.0541 447.729 19.0001 447.657 18.9281C447.225 18.6041 446.937 17.9201 446.919 17.5601C446.865 16.8581 447.117 15.6341 447.495 14.5181C448.269 12.3041 449.511 9.4601 450.015 8.6681C450.303 8.1461 450.609 7.6601 450.933 7.1741C448.935 9.1181 443.589 14.1761 440.997 17.0201C440.745 17.3081 440.691 18.4241 440.619 18.8021C440.583 18.9641 439.557 19.0001 439.467 18.8381C439.341 18.7121 439.521 17.9561 439.647 16.7141C439.899 14.1041 440.259 10.2701 440.205 7.0841C437.613 10.4501 433.293 16.1201 431.709 17.3801C430.647 18.2261 429.189 19.0181 427.875 19.0181C426.795 19.0181 424.545 18.6581 424.383 18.4421C424.131 18.1181 424.779 17.3081 425.139 17.2001C426.309 17.1461 429.711 18.7121 431.511 17.2721C433.437 15.7601 437.253 10.5761 440.187 6.8501C440.151 5.0861 439.971 3.5201 439.593 2.4941C439.485 2.2421 439.161 1.9361 438.837 1.8281C438.243 2.0081 435.741 3.9521 434.967 4.6001L434.895 4.4921C435.669 3.8621 438.261 1.6661 439.485 1.0181C439.683 0.910103 440.259 0.964101 440.349 1.0361C440.709 1.3601 440.943 2.0081 441.159 3.0881C441.807 6.5081 441.339 13.7081 440.943 16.7681C444.219 13.3121 449.709 8.1821 453.255 4.7441Z" fill="#D7D7D7"/>
<path d="M461.783 16.1921C461.189 17.1101 460.505 18.2981 460.163 18.9281C459.569 18.9281 458.777 19.1081 459.065 18.1721C459.947 16.5881 462.233 13.4561 462.323 11.3321C462.341 10.9901 462.251 10.8101 462.161 10.6841C461.099 11.0081 458.417 13.2041 456.365 16.1921C455.753 17.1101 455.051 18.2981 454.673 18.9281C454.295 18.9461 453.233 19.1981 453.593 18.1901C454.655 16.7321 457.013 13.0601 456.923 11.5661C456.905 11.2601 456.725 10.9181 456.347 10.8101C455.843 10.9361 454.943 11.5121 454.241 12.2681L454.115 12.1421C454.781 11.4941 455.915 10.5221 457.031 9.8921C457.877 9.4241 458.309 10.9541 458.345 11.5481C458.417 12.4841 457.481 14.0861 456.815 15.2381C458.885 12.6101 461.891 10.1261 463.133 9.7661C464.123 9.9821 463.979 12.3221 462.503 14.8421C464.519 12.3581 467.543 10.1081 468.713 9.7661C469.811 10.0181 469.721 11.2781 467.849 14.4641C467.183 15.6161 466.481 16.7141 466.517 17.3801C466.535 17.6861 466.679 17.9921 467.039 18.1001C467.615 17.9021 468.551 17.2541 469.217 16.5701L469.325 16.6961C468.659 17.3441 467.669 18.2621 466.535 18.9461C466.355 19.0541 465.815 19.0001 465.725 18.9281C465.275 18.5861 465.059 17.8661 465.041 17.5061C464.987 16.7681 466.013 15.2741 466.643 14.1941C468.137 11.6201 468.119 11.0981 467.723 10.7021C466.643 11.0441 463.673 13.2221 461.783 16.1921Z" fill="#D7D7D7"/>
<path d="M21.114 45.9741C20.808 46.4781 20.484 47.0541 20.376 47.1621C20.25 47.2881 20.052 47.2341 20.034 47.1261L19.188 40.2501C18.9 37.8381 18.666 36.0921 18.432 34.8501L13.86 41.6721C10.602 46.5321 8.766 49.8081 4.158 49.8081C2.7 49.8081 0.557999 49.1781 0.431999 49.0161C0.287999 48.8181 1.188 47.9001 1.62 47.7741C1.98 47.6661 4.05 48.8001 6.354 48.8001C8.73 48.8001 10.386 46.4601 13.662 41.6001L18.396 34.5801C18.09 33.0321 17.748 32.2941 17.226 31.9701C17.046 31.8621 16.83 31.8081 16.614 31.8081C16.38 31.8081 16.128 31.8621 15.876 31.9521C15.282 32.1501 12.636 34.0581 11.88 34.7061L11.772 34.5801C12.546 33.9501 15.354 31.7541 16.578 31.1061C16.938 30.8901 17.982 30.7461 18.45 30.9621C19.458 31.4121 19.944 33.7881 20.628 39.8721L21.258 45.3081C23.004 42.4461 24.822 39.4941 26.496 37.1181C29.502 32.7441 31.302 31.7901 33.588 31.7901C35.028 31.7901 37.296 32.1681 37.638 32.2761C37.692 32.2941 37.71 32.3121 37.71 32.3481C37.71 32.5641 36.792 33.4641 36.468 33.4641C36.396 33.4641 36.324 33.4641 36.18 33.4461C35.352 33.3381 33.3 32.7981 31.644 32.7981C30.186 32.7981 28.944 33.9681 26.604 37.3341C24.606 40.1781 22.86 43.0761 21.114 45.9741Z" fill="#D7D7D7"/>
<path d="M27.837 46.9281C27.459 46.9461 26.397 47.1981 26.757 46.1901C27.819 44.7321 30.177 41.0601 30.087 39.5661C30.069 39.2601 29.889 38.9181 29.511 38.8101C29.007 38.9361 28.107 39.5121 27.405 40.2681L27.279 40.1421C27.945 39.4941 29.079 38.5221 30.195 37.8921C31.041 37.4241 31.473 38.9541 31.509 39.5481C31.581 40.4841 30.645 42.0861 29.979 43.2561C32.049 40.6281 35.181 38.1261 36.423 37.7661C37.539 38.0181 37.521 39.2961 35.631 42.4641C34.983 43.6161 34.245 44.7141 34.281 45.3801C34.299 45.6861 34.443 45.9921 34.803 46.1001C35.379 45.9021 36.315 45.2541 36.981 44.5701L37.089 44.6961C36.423 45.3441 35.433 46.2621 34.299 46.9461C34.119 47.0541 33.579 47.0001 33.489 46.9281C33.039 46.5861 32.823 45.8661 32.805 45.5061C32.751 44.7681 33.795 43.2741 34.425 42.1941C35.937 39.6021 35.865 39.0801 35.451 38.6841C34.389 39.0081 31.581 41.2041 29.529 44.1921C28.917 45.1101 28.215 46.2981 27.837 46.9281Z" fill="#D7D7D7"/>
<path d="M59.4665 46.3521C62.2205 46.3881 64.3445 44.8941 65.7485 42.5541C68.3585 38.4321 67.6745 32.6901 62.1485 32.6901C59.3585 32.6901 57.3605 34.1301 55.8845 36.5601C53.2745 40.7001 53.9225 46.2801 59.4665 46.3521ZM58.4225 47.0361C52.5185 47.0361 51.7265 41.0781 54.4445 37.2081C56.2265 34.5261 60.1145 32.0421 62.9945 32.0421C69.0245 32.0421 69.8165 38.0001 67.0985 41.8701C65.3165 44.5521 61.5365 47.0361 58.4225 47.0361Z" fill="#D7D7D7"/>
<path d="M77.1431 43.4001C76.4411 44.6601 75.0911 45.7041 73.8491 46.3881C73.2371 46.7301 72.5891 47.1081 71.9051 47.1081C71.0411 47.1081 70.1591 46.4781 69.8891 45.6861C69.6911 44.9481 69.4931 43.7781 70.7891 41.6001C71.4731 40.3761 72.9311 39.0261 74.1371 38.3421C74.8391 37.9641 75.5951 37.6941 76.2611 37.6941H76.2791C77.0891 37.6941 77.8811 38.3421 78.1331 39.1341C78.3311 39.7641 78.3671 41.3301 77.1431 43.4001ZM72.2831 46.1901C72.8591 46.3521 73.6151 46.2081 74.3351 45.9201C75.3431 45.4161 76.9091 41.9061 76.8011 39.9801C76.7291 39.1521 76.4411 38.6301 75.8471 38.4321C75.6491 38.3781 75.1451 38.1621 74.4251 38.3421C73.2371 39.0801 71.0231 42.3741 71.2391 45.0021C71.4371 45.7041 71.7971 46.0641 72.2831 46.1901Z" fill="#D7D7D7"/>
<path d="M92.2499 46.1901C93.1499 46.1901 95.1839 46.2621 96.9299 46.0641C98.8559 45.8661 100.044 45.4881 100.422 45.4881C100.764 45.4881 99.5759 46.5501 99.4319 46.7841C99.1619 46.9101 97.6319 46.9101 96.8399 46.9101H94.8599C91.4039 46.9101 87.7859 47.0541 87.4079 47.0541C86.8499 47.0541 86.4719 46.9461 86.3459 46.7841C86.2739 46.3521 86.7779 45.9561 87.2279 45.6681C87.8939 45.4881 91.2239 46.7841 92.5379 45.8661C93.8699 44.9481 94.5179 42.7341 95.7959 39.5661C97.0199 36.5061 98.5679 34.0581 100.134 33.2121C99.4859 32.9781 98.7119 32.8341 97.8659 32.8341C94.1039 32.8341 91.5299 33.9861 90.5579 37.0101C90.3779 37.7301 90.0179 38.0361 89.3879 38.0361C88.6679 38.0361 88.7579 37.6041 89.2079 36.9201C90.7559 34.6881 94.9679 32.0061 98.4059 32.0961C104.112 32.0061 105.462 36.4161 104.202 38.6301C103.338 40.2501 101.124 41.1861 99.1079 41.2041C98.2619 41.2041 97.4159 40.9881 96.7139 40.6461C95.3639 43.5981 93.9959 45.4161 92.2499 46.1901ZM100.242 40.8441C101.358 40.8441 102.384 40.2321 102.888 39.2421C103.968 37.1721 103.032 34.3101 100.278 33.2481C99.4319 33.8781 98.0819 37.2261 97.1459 39.6381C97.9019 40.2861 99.1259 40.8441 100.242 40.8441Z" fill="#D7D7D7"/>
<path d="M114.226 37.7121C114.676 37.7841 115.126 38.4681 115.27 39.0441C115.54 40.0881 115.054 41.6001 114.532 42.5361C113.614 44.1921 112.084 45.3801 110.842 46.1541C109.726 46.7661 109.024 47.0901 108.232 47.0901C107.566 47.0901 106.936 46.4601 106.504 45.7041C106.378 45.9201 103.264 51.4101 103.264 51.4101C103.426 51.6261 104.92 51.7701 105.37 51.7701C105.55 51.7701 105.568 51.9321 105.298 51.9321C104.902 51.9321 103.3 51.8421 102.742 51.8421C102.184 51.8421 99.6462 51.9861 99.3402 51.9861C99.1782 51.9861 99.1962 51.8601 99.3402 51.8421C101.914 51.5901 101.932 51.4461 105.46 45.2721C107.206 42.2121 108.196 40.5381 108.124 39.5661C108.106 39.2601 107.854 38.9361 107.476 38.8281C106.972 38.9541 106.09 39.5661 105.388 40.3221L105.262 40.1961C105.928 39.5481 107.044 38.5221 108.16 37.8921C109.006 37.4241 109.492 38.9541 109.528 39.5481C109.6 40.5741 108.394 42.4101 107.566 43.7241C109.87 41.0601 113.092 37.7841 114.226 37.7121ZM109.474 46.3521C109.924 46.3521 110.23 46.2981 110.788 46.0101C111.526 45.3981 112.354 44.7321 113.092 43.0761C113.848 41.4021 113.956 40.0341 113.812 39.4041C113.686 38.8641 113.506 38.7381 113.254 38.6121C112.606 38.6841 108.844 42.1941 107.188 44.5701C107.98 45.8661 108.574 46.3521 109.474 46.3521Z" fill="#D7D7D7"/>
<path d="M129.283 47.0541C123.397 47.0541 122.623 41.1321 125.323 37.2801C127.123 34.5621 131.659 31.4121 134.611 31.4121C140.605 31.4121 141.379 37.3341 138.679 41.1861C137.977 42.2481 136.843 43.3641 135.547 44.3541C136.123 45.3981 136.717 46.2981 137.383 46.2981C138.085 46.2801 139.201 45.7221 139.993 44.6601C140.245 44.3181 140.407 44.3721 140.137 44.7501C139.597 45.4881 137.743 47.4861 136.699 47.4861C136.033 47.4861 135.529 47.0361 135.043 46.3341C134.791 45.9921 134.557 45.6141 134.323 45.2001C132.613 46.2981 130.759 47.0541 129.283 47.0541ZM128.653 43.2921C129.985 42.2301 131.677 40.8981 132.487 40.8981C133.207 40.8981 133.927 41.5281 134.305 42.1221C134.683 42.7161 135.043 43.4361 135.421 44.1381C136.213 43.4361 136.897 42.6261 137.365 41.8521C139.975 37.7301 139.273 32.0241 133.801 32.0241C131.083 32.0241 128.095 34.3461 126.709 36.6501C124.117 40.7541 124.765 46.3161 130.273 46.4061C131.569 46.4241 132.973 45.8661 134.233 45.0381C133.783 44.2641 133.351 43.4541 132.955 42.8421C132.577 42.2661 131.875 41.7981 131.425 41.7981C130.993 41.7981 129.715 42.6621 128.743 43.4361C128.347 43.7061 128.401 43.4721 128.653 43.2921Z" fill="#D7D7D7"/>
<path d="M144.269 51.3741C144.071 51.3741 143.819 51.3561 143.819 51.0861C143.801 50.8161 143.873 50.6001 144.215 50.0601C145.583 47.8101 147.257 45.0741 148.733 42.7341C148.931 42.4101 149.147 42.0681 149.525 41.5641C147.653 43.4181 144.971 45.8481 143.459 46.9461C143.297 47.0721 142.829 47.0181 142.739 46.9461C141.857 46.2801 141.929 44.3541 142.631 42.6081C143.819 39.6381 147.275 37.7841 149.201 37.7841C150.083 37.7841 150.533 37.9641 151.595 39.1341C151.847 38.9181 152.513 38.2161 152.963 37.7841C153.143 37.6041 153.125 37.8201 153.125 37.8201C152.459 38.7561 151.325 40.6641 150.317 42.3381C148.895 44.6961 147.617 46.7301 145.673 50.1861C145.709 50.7261 146.213 50.9421 148.067 50.9241C148.283 50.9241 148.301 51.0861 148.049 51.0861C146.321 51.0861 144.305 51.3741 144.269 51.3741ZM143.873 46.0461C144.269 46.2621 148.625 42.4641 150.623 40.0881C149.453 38.6121 148.877 38.2161 148.157 38.2161C146.771 38.2161 144.827 39.9621 143.981 42.3741C143.351 44.1561 143.387 45.4881 143.873 46.0461Z" fill="#D7D7D7"/>
<path d="M158.117 47.0181C158.009 46.7841 158.495 46.0821 158.855 45.8661C159.359 45.7221 161.573 46.5321 163.139 46.5141C163.661 46.5141 164.057 46.3701 164.381 46.1361C165.713 45.2181 166.181 42.7341 167.495 39.5661C168.791 36.4521 170.465 33.9321 172.553 32.8881C172.085 32.7621 171.563 32.6901 171.005 32.6901C167.261 32.6901 165.479 34.0401 164.183 37.0101C163.877 37.7121 163.643 38.0361 162.995 38.0361C162.293 38.0361 162.383 37.6041 162.833 36.9201C164.363 34.6881 168.431 31.9701 171.707 32.0601C176.207 31.9881 177.593 35.3541 176.405 37.6221C175.577 39.2601 173.471 39.6741 171.707 39.9081C171.887 41.6541 172.337 43.3821 173.201 44.9841C173.561 45.6681 173.957 46.0821 174.371 46.2621C174.965 46.1001 175.901 45.3981 176.837 44.5341L176.927 44.6781C176.171 45.4161 174.875 46.5141 173.723 47.1441C173.543 47.2521 173.075 47.1981 172.967 47.1261C172.535 46.8021 172.211 46.2621 171.833 45.5241C170.969 43.8321 170.483 41.7801 170.321 39.9261C170.303 39.6561 170.393 39.6201 170.699 39.6201C170.969 39.6201 171.779 39.6381 172.211 39.6381C173.435 39.6381 174.443 39.2421 175.127 37.8921C176.045 35.9661 175.109 33.6441 172.625 32.9241C171.203 33.7341 169.907 37.2261 168.845 39.7461C167.369 43.2561 166.019 45.4341 164.291 46.3341C162.725 47.1621 161.465 47.4141 160.241 47.4141C158.981 47.4141 158.261 47.1621 158.117 47.0181Z" fill="#D7D7D7"/>
<path d="M179.23 46.9281C178.852 46.9461 177.79 47.1981 178.15 46.1901C179.212 44.7321 181.57 41.0601 181.48 39.5661C181.462 39.2601 181.282 38.9181 180.904 38.8101C180.4 38.9361 179.5 39.5121 178.798 40.2681L178.672 40.1421C179.338 39.4941 180.472 38.5221 181.588 37.8921C182.434 37.4241 182.866 38.9541 182.902 39.5481C182.938 40.0161 182.722 40.6461 182.416 41.3121C183.838 39.4581 185.062 38.0541 186.25 37.8381C186.862 37.7841 188.068 37.8201 188.122 37.9461C188.086 38.3421 187.312 39.2061 186.988 39.2781C186.484 39.2601 185.854 39.0441 184.936 39.0621C183.352 39.5301 182.074 42.3921 179.23 46.9281Z" fill="#D7D7D7"/>
<path d="M197.995 40.8801L198.157 40.9521C197.113 42.0321 195.673 43.4001 195.619 44.1921C195.871 44.6961 197.851 46.2801 200.137 46.2801C202.189 46.2801 204.349 45.3441 205.105 43.7241C207.121 39.2421 196.897 39.9621 198.463 35.9661C199.165 34.2021 203.395 32.0961 205.717 32.0961C207.499 32.0961 209.443 32.8341 210.037 33.8601C208.921 35.4081 207.679 36.6321 206.689 38.0541L206.581 37.9821C207.373 36.8481 208.075 36.0201 208.939 34.7961C208.219 33.7341 206.725 32.8341 204.511 32.8341C202.387 32.8341 200.137 33.9321 199.561 35.4621C198.337 38.6481 208.418 38.3781 206.186 43.0401C205.448 44.6241 201.955 47.1441 199.021 47.1441C196.591 47.1441 195.061 45.9561 194.053 44.9661C194.935 43.9761 196.681 42.1941 197.995 40.8801Z" fill="#D7D7D7"/>
<path d="M215.361 39.7821H215.289C214.551 38.3061 213.687 37.7121 212.607 38.0001C211.689 38.5401 211.905 39.5121 213.003 41.8521C213.939 43.8861 213.957 45.5601 212.535 46.4421C211.779 46.9101 211.041 47.1441 210.087 47.1441C209.313 47.1621 208.521 46.8561 208.161 46.2621C207.765 45.6141 208.125 44.4081 209.169 44.1381L209.241 44.1921C209.205 44.9301 209.493 45.6321 210.015 46.0821C210.645 46.6401 211.347 46.7841 212.103 46.4781C213.183 45.9921 212.553 44.6241 211.617 42.3381C210.627 39.9261 210.807 38.6301 212.121 38.0361C212.715 37.7661 213.417 37.5321 214.173 37.5501C215.019 37.5501 215.703 37.7121 215.973 38.2881C216.207 38.8101 215.829 39.4401 215.361 39.7821Z" fill="#D7D7D7"/>
<path d="M224.334 37.4961C223.632 37.4961 223.614 37.1001 223.992 36.3981C225.846 33.0141 229.068 31.9701 231.642 31.9701C234.648 31.9701 238.104 32.6001 241.722 32.6001C242.784 32.6001 243.324 32.3481 243.45 32.3841C243.63 32.4381 242.838 33.3201 242.514 33.4821C242.064 33.7341 241.65 33.8781 240.606 33.8781C239.652 33.8781 237.78 33.5901 235.818 33.2841C234.432 34.2741 233.928 36.2901 232.596 39.6381C231.12 43.1481 228.438 47.0541 224.172 47.0541C223.092 47.0541 221.256 46.7481 221.094 46.5321C220.86 46.2081 221.526 45.3981 221.886 45.2901C222.822 45.1641 226.17 47.1621 228.204 45.5241C229.464 44.5341 229.842 42.6441 231.12 39.4761C232.56 36.0741 234.072 34.1121 235.674 33.2481C233.352 32.8701 230.922 32.4741 229.662 32.4741C227.754 32.4741 226.602 33.7341 225.486 36.4701C225.144 37.3341 224.982 37.4961 224.334 37.4961Z" fill="#D7D7D7"/>
<path d="M241.137 44.1561L241.263 44.2461C240.453 44.9841 238.689 46.3701 237.681 46.9641C237.501 47.0721 236.979 47.0181 236.889 46.9461C236.439 46.6041 236.295 45.8121 236.277 45.4521C236.223 44.7141 236.691 43.6881 237.321 42.6081C238.113 41.2581 238.887 39.9981 239.607 38.8461H239.409C238.923 38.8461 238.455 38.8641 238.365 38.8461C238.293 38.8281 238.239 38.7561 238.383 38.6841C239.661 37.9821 241.281 36.9921 242.559 36.0021C242.667 35.9121 242.775 35.9661 242.703 36.0741C242.397 36.5781 242.019 37.1361 241.533 37.9101C243.063 37.9101 243.999 37.8021 244.143 37.8381C244.341 37.8921 243.459 38.8821 243.117 38.9001C243.027 38.9001 242.253 38.8821 240.939 38.8641C240.039 40.2861 239.247 41.5641 238.527 42.9141C237.879 44.0841 237.663 44.6601 237.699 45.3261C237.717 45.6681 237.861 46.0641 238.221 46.1721C238.707 46.0101 240.345 44.8761 241.137 44.1561Z" fill="#D7D7D7"/>
<path d="M264.717 39.3681C262.449 43.0401 261.315 44.7681 261.369 45.8841C261.405 46.2441 261.783 46.8201 262.053 46.8741C262.611 46.7121 264.933 44.8581 265.653 44.2281L265.743 44.3541C265.041 44.9661 262.683 47.0721 261.531 47.6841C261.369 47.7921 260.847 47.7201 260.757 47.6481C260.379 47.3421 259.965 46.8381 259.893 46.1361C259.839 45.3261 260.181 44.4801 260.847 43.3101C259.173 45.1821 255.969 47.8641 254.223 47.8641C252.405 47.8641 251.019 46.1361 250.911 44.1021C250.803 42.1041 252.297 40.1241 254.079 37.7481C255.699 35.5881 256.905 34.1301 256.851 33.1761C256.815 32.8161 256.635 32.5101 256.365 32.1861C255.789 32.3481 253.251 34.1481 252.531 34.7781L252.423 34.6341C253.107 34.0401 255.699 32.0421 256.833 31.4301C257.031 31.3221 257.517 31.4121 257.625 31.4841C257.985 31.7901 258.147 32.3121 258.255 33.0141C258.399 34.0941 256.905 35.9481 255.105 38.3781C253.431 40.6461 252.207 42.4821 252.297 43.9941C252.405 45.3621 253.233 47.1981 255.159 47.1981C256.563 47.1981 259.875 44.2641 261.153 42.7881C261.765 41.7621 262.593 40.5201 263.583 38.8821C266.211 34.6161 266.571 34.3461 266.517 33.2121C266.481 32.8521 266.301 32.5461 266.013 32.2221C265.455 32.3841 262.899 34.1481 262.197 34.7781L262.089 34.6341C262.773 34.0401 265.365 32.0421 266.481 31.4301C266.679 31.3221 267.165 31.4121 267.273 31.4841C267.651 31.7901 267.777 32.3121 267.921 33.0141C267.975 34.1301 267.417 34.9761 264.717 39.3681Z" fill="#D7D7D7"/>
<path d="M272.056 39.5481C272.074 40.0341 271.282 41.4021 270.67 42.5001C269.932 43.8321 269.32 44.7501 269.104 45.3801C269.068 45.8121 269.482 46.0461 269.824 46.1361C270.724 46.1361 273.352 43.5801 275.458 40.5921C276.106 39.6741 276.628 38.5401 276.952 38.0361C277.528 37.8741 278.608 37.6041 278.212 38.6121C277.24 39.9981 274.702 44.0481 274.612 45.3801C274.594 45.6861 274.972 45.9921 275.332 46.1001C275.908 45.9021 276.844 45.2541 277.51 44.5701L277.618 44.6961C276.952 45.3441 275.962 46.2621 274.828 46.9461C274.648 47.0541 273.91 47.0001 273.82 46.9281C273.37 46.5861 273.172 45.8661 273.136 45.5061C273.064 44.7681 274.216 42.8961 274.972 41.5821C272.92 44.2281 270.22 46.8201 269.014 47.0541C268.654 47.0001 267.772 46.6761 267.574 45.8661C267.502 45.2721 268.51 43.9401 269.428 42.2661C270.058 41.1141 270.616 40.1421 270.58 39.4761C270.562 39.1881 270.364 38.9181 269.986 38.8101C269.482 38.9361 268.582 39.5121 267.88 40.2681L267.754 40.1421C268.42 39.4941 269.554 38.5221 270.67 37.8921C271.516 37.4241 272.02 38.9541 272.056 39.5481Z" fill="#D7D7D7"/>
<path d="M287.815 48.5121C287.671 48.6921 287.311 48.6561 287.365 48.4041C287.941 45.5601 289.237 37.7841 289.543 35.8221C289.759 34.4901 289.723 33.4641 289.543 33.1041C289.381 32.7801 289.183 32.7081 288.751 32.6901C287.257 32.6541 284.863 33.4281 284.161 33.3381C283.837 33.2841 284.521 32.4561 284.791 32.2941C285.043 32.1501 286.789 32.2041 288.067 32.2041H289.939C293.395 32.2041 296.563 32.0421 297.391 32.0421C297.517 32.0421 297.805 32.0421 297.967 32.0961C297.967 32.3301 297.643 32.9601 297.193 33.2301C296.635 33.3741 293.467 32.8701 290.605 32.7981C290.731 32.9601 290.821 33.1221 290.857 33.3021C290.929 33.6441 291.055 34.5081 290.839 35.7141C290.551 37.6041 289.489 43.6521 288.877 46.8741C296.977 37.4421 299.083 35.0301 301.585 32.1681C302.989 30.5841 304.123 28.9461 304.735 28.1541C304.969 27.9561 305.527 28.4421 305.275 28.6761C304.591 29.1981 302.845 31.0701 301.783 32.2941C297.049 37.7121 292.441 42.9141 287.815 48.5121Z" fill="#D7D7D7"/>
<path d="M301.205 46.1721H301.223C302.141 45.3981 303.851 43.8861 305.075 42.6621C306.227 41.5281 306.605 40.5921 306.605 39.8001C306.605 39.2961 306.353 38.7381 305.921 38.6121C305.471 38.7201 304.643 39.2421 303.941 39.8181L303.869 39.7461C304.571 39.0441 305.849 38.2341 306.695 37.8021C307.181 37.5501 307.883 38.4141 307.847 39.1881C307.811 40.1781 306.245 41.7621 305.201 42.7701C303.905 44.0121 302.303 45.4881 300.503 46.9641C300.377 47.0721 300.233 47.0901 300.107 47.0901C299.927 47.0901 299.243 46.8561 299.243 46.4061C299.567 44.7861 300.233 41.5101 300.233 40.3581C300.215 39.2061 299.783 38.7561 299.459 38.7381C299.099 38.8281 298.253 39.3681 297.659 39.8901L297.569 39.8181C298.199 39.2061 299.279 38.3601 300.143 37.8921C300.971 37.4421 301.565 38.2521 301.637 39.9261C301.673 40.8081 301.133 43.7241 300.719 45.6861C300.737 45.8301 300.863 46.1721 301.205 46.1721Z" fill="#D7D7D7"/>
<path d="M332.279 33.0501C331.901 33.1401 330.443 33.0321 328.211 32.8881C327.635 36.7581 326.825 44.3181 326.519 47.2521C332.711 38.6661 334.907 35.5341 337.229 32.0781C338.381 30.3861 339.263 28.9821 339.731 28.1721C340.073 27.5421 340.775 28.1901 340.361 28.6581C339.659 29.4321 338.633 30.6921 337.517 32.2401C333.521 37.8381 329.723 43.1481 325.727 48.8541C325.601 49.0521 324.863 48.9801 324.899 48.7101C325.259 46.6041 326.267 38.3961 326.591 35.1021C323.423 39.6021 320.201 44.2461 317.159 48.8181C317.015 49.0161 316.439 48.7461 316.475 48.4941C317.051 45.6501 318.689 37.6221 318.995 35.6421C319.211 34.3101 319.247 33.3021 319.067 32.9421C318.905 32.6001 318.707 32.5281 318.275 32.5281C316.781 32.4921 314.387 33.2661 313.685 33.1581C313.361 33.1041 314.045 32.2761 314.315 32.1141C314.567 31.9881 316.313 32.0421 317.591 32.0421H325.961C329.417 32.0421 331.649 31.8621 332.477 31.8621C332.603 31.8621 332.891 31.8621 333.053 31.9341C333.053 32.1501 332.729 32.7801 332.279 33.0501ZM318.149 46.9101C323.693 38.8821 326.105 35.4261 327.905 32.8701C325.835 32.7441 323.153 32.6181 320.039 32.6001C320.219 32.7441 320.327 32.9061 320.381 33.1221C320.453 33.4641 320.507 34.3281 320.291 35.5521C320.003 37.4241 318.797 43.6521 318.149 46.9101Z" fill="#D7D7D7"/>
<path d="M342.038 46.3701C342.146 45.1641 342.398 43.3281 342.506 42.1941C342.272 42.4821 342.056 42.7341 341.768 43.0041C340.85 43.9041 338.348 46.6041 337.7 46.8921C337.556 46.9641 337.394 46.9821 337.016 46.9821C336.494 46.9821 336.368 46.8741 336.458 46.3701C336.674 44.3901 337.088 41.2221 337.052 40.7181C337.052 39.3861 336.602 38.7741 336.224 38.6661C335.864 38.7561 335.036 39.3141 334.442 39.8361L334.352 39.7461C334.982 39.1341 336.062 38.3061 336.926 37.8381C337.808 37.3701 338.402 38.3241 338.42 40.2681C338.42 41.5821 337.934 44.5161 337.7 46.4601C339.158 45.5781 341.048 43.4901 341.66 42.7701C342.488 41.8341 342.596 41.4381 342.56 40.1601C342.542 39.2601 342.164 38.7561 341.786 38.6481C341.426 38.7381 340.616 39.2961 340.022 39.8181L339.896 39.7461C340.526 39.1341 341.624 38.3061 342.488 37.8381C343.37 37.3701 343.964 38.4321 344 40.2681C344 40.9341 343.514 44.4981 343.28 46.4961C344.702 45.6681 346.484 43.7241 347.06 42.8601C347.96 41.6001 348.428 40.7181 348.356 39.7101C348.23 39.1701 347.888 38.6661 347.492 38.5401C346.934 38.7021 346.484 39.0441 345.656 39.7461L345.566 39.6381C346.268 38.9361 347.384 38.0901 348.14 37.8021C348.788 37.5681 349.4 37.9461 349.706 38.9361C350.066 40.2321 348.374 42.0501 347.132 43.2741C346.268 44.1381 343.856 46.6401 343.298 46.8921C343.172 46.9461 343.064 46.9821 342.632 46.9821C342.056 46.9821 341.948 46.8741 342.038 46.3701Z" fill="#D7D7D7"/>
<path d="M365.175 46.9281C364.797 46.6041 364.473 46.2801 364.311 45.9921C363.969 45.3441 364.149 43.8321 364.419 41.9421L364.689 40.1061L360.171 43.7061C358.317 45.1821 356.895 46.4781 356.121 47.2341C355.563 47.7741 355.041 47.0001 355.653 46.5861C356.661 45.9201 358.533 44.6781 360.027 43.5081L364.725 39.8361C364.923 38.5401 365.139 37.1181 365.265 36.1461C365.391 35.1021 365.355 34.0041 365.049 33.5541C364.905 33.3381 364.599 33.1221 364.293 33.0141C363.663 33.2121 361.683 34.4541 360.909 35.1201L360.801 34.9941C361.593 34.3641 363.645 32.8701 364.923 32.2041C365.121 32.0961 365.409 32.1501 365.517 32.2221C365.841 32.5461 366.165 32.7981 366.291 33.0681C366.579 33.5361 366.741 34.3641 366.525 35.9841C366.417 36.6681 366.219 37.8921 366.039 39.1521C368.379 37.3161 370.143 35.9121 371.853 34.5081C373.671 33.0321 375.111 31.7001 375.903 30.9621C376.479 30.4041 377.001 31.1961 376.389 31.6101C375.345 32.2761 373.599 33.5001 372.141 34.6521C369.999 36.2721 367.965 37.8561 366.003 39.4221C365.805 40.8081 365.625 42.2121 365.517 43.0041C365.391 44.0661 365.301 45.1281 365.625 45.5781C365.769 45.8121 366.075 46.0281 366.417 46.1361C366.993 45.9381 368.973 44.6961 369.711 44.0481L369.837 44.1741C369.045 44.7861 366.993 46.2981 365.751 46.9461C365.553 47.0541 365.247 47.0001 365.175 46.9281Z" fill="#D7D7D7"/>
<path d="M375.463 39.0441C375.571 39.6201 375.715 40.7721 375.859 41.9781L376.543 41.3121C378.307 39.6021 379.513 38.4321 380.305 37.6401C380.665 37.4421 381.007 37.6581 380.809 38.0001C379.765 38.7741 378.127 40.0881 376.687 41.4021L375.877 42.1401C376.039 43.4541 376.201 44.7681 376.381 45.3801C376.471 45.6861 376.777 46.0461 377.137 46.1541C377.713 45.9381 378.559 45.2721 379.261 44.5881L379.387 44.6961C378.703 45.3441 377.731 46.2621 376.597 46.9461C376.417 47.0541 375.679 47.0001 375.589 46.9281C375.139 46.5861 374.977 45.8661 374.905 45.5061C374.779 44.9841 374.653 44.0301 374.527 43.0221C373.951 43.5261 372.907 44.5161 372.583 44.8221C370.819 46.5321 369.469 47.8821 368.677 48.6741C368.677 48.6741 367.741 48.6921 368.137 48.0801C369.181 47.3061 370.981 45.9561 372.457 44.6781L374.509 42.8601C374.329 41.3661 374.131 39.7821 373.987 39.2601C373.915 39.0081 373.681 38.5581 373.447 38.5041C373.015 38.6481 371.881 39.4401 371.215 40.0341L371.107 39.9441C371.755 39.3141 373.123 38.2521 374.041 37.6941C374.257 37.5681 374.491 37.6041 374.653 37.6761C375.067 37.8741 375.337 38.4321 375.463 39.0441Z" fill="#D7D7D7"/>
<path d="M391.604 46.9461C389.39 46.9461 387.032 47.0001 386.078 47.0001C385.754 47.0001 386.654 46.0101 387.05 46.0101C391.64 46.0101 391.946 44.0301 394.628 39.2781C394.25 37.0101 393.674 34.9041 392.918 33.8421C392.648 33.4821 392.108 33.2661 391.784 33.1581C391.172 33.3561 389.174 34.5981 388.4 35.2461L388.31 35.1201C389.102 34.5081 391.37 32.8341 392.648 32.1501C392.846 32.0601 393.134 32.0961 393.242 32.1681C393.548 32.3661 394.016 32.8521 394.16 33.1221C395.258 35.1021 395.744 37.5501 395.906 39.0621C398.084 37.2441 400.209 35.5341 401.667 34.2561C403.431 32.6901 404.816 31.5201 405.59 30.7821C406.166 30.1881 406.688 30.9801 406.094 31.3941C405.068 32.0781 403.322 33.3021 401.846 34.4541C400.028 35.8761 397.724 37.7661 395.78 39.6201C393.602 43.6161 393.278 44.5161 389.408 46.1001C391.334 46.1181 394.61 45.6861 395.51 45.6861C395.888 45.6861 395.114 46.7481 394.628 46.9101C394.358 47.0541 393.908 46.9461 391.604 46.9461Z" fill="#D7D7D7"/>
<path d="M403.406 40.4301C403.406 41.9241 403.154 44.8401 402.614 46.2081L404.504 44.2461C406.538 42.1401 407.816 40.7181 407.888 39.8541C407.87 39.2241 407.474 38.8821 407.15 38.7561C406.7 38.9001 406.124 39.2961 405.404 39.9261L405.296 39.8181C405.818 39.2961 407.474 38.0181 408.248 37.7661C408.59 37.6941 409.238 38.3241 409.058 39.0081C408.446 40.3401 406.61 42.2661 404.63 44.3541C403.172 45.8481 401.768 47.3961 399.77 49.1961C398.168 50.6541 395.846 52.1481 393.146 52.1481C392.84 52.1481 392.57 52.0581 392.444 51.8421C392.318 51.5901 392.768 51.0141 393.128 50.7441H395.126C397.214 50.7441 398.438 50.2221 399.662 49.1061C400.292 48.5481 400.526 48.3321 400.832 47.9901C401.786 46.2261 402.02 42.3201 402.02 40.6461C402.02 39.9621 401.966 39.2601 401.66 38.8821C401.534 38.7381 401.39 38.6841 401.138 38.7021C400.886 38.8101 400.022 39.3681 399.428 39.8901L399.32 39.7821C399.968 39.1881 401.03 38.3781 401.894 37.8921C402.02 37.8201 402.182 37.7841 402.29 37.7841C402.47 37.7841 402.704 37.8741 402.848 38.0361C403.244 38.4681 403.406 39.2421 403.406 40.4301Z" fill="#D7D7D7"/>
<path d="M425.982 46.0461C428.16 45.9921 428.322 45.9201 429.78 42.0321C430.068 41.2581 430.464 40.9701 430.968 40.9701C431.526 40.9701 431.634 41.3841 431.256 42.0861C429.708 44.8761 426.936 47.0541 424.38 47.0541C421.194 47.0721 418.188 46.2261 415.38 46.4781C415.056 46.4781 415.848 45.5241 416.244 45.5241C421.482 45.5241 424.92 35.5881 432.336 33.7881C432.228 33.8061 432.066 33.8241 431.814 33.8241C429.834 33.8241 426.648 32.6541 424.722 32.6541C422.886 32.6541 422.562 32.7801 421.302 35.9481C420.996 36.7041 420.708 36.9561 420.15 36.9561C419.556 36.9561 419.448 36.4881 419.808 35.8401C421.338 33.1221 423.894 32.0421 426.594 32.0421C428.754 32.0421 430.662 32.8161 432.588 32.8161C433.65 32.8161 434.19 32.5641 434.316 32.6001C434.442 32.6181 434.172 32.9601 433.902 33.2481C433.614 33.5361 433.182 33.7881 432.93 33.8061C428.592 34.2201 425.028 43.3101 417.648 45.5421C420.15 45.0381 423.39 46.1181 425.982 46.0461Z" fill="#D7D7D7"/>
<path d="M440.896 39.2961C440.914 39.2421 440.914 39.2061 440.842 39.2061C439.96 39.6561 439.114 39.9441 438.61 39.9441C437.458 39.9441 436.45 38.5941 435.676 38.6481C435.262 38.7921 434.506 39.6201 433.894 40.2141L433.75 40.1241C434.344 39.4941 435.514 38.2521 436.36 37.6941C436.558 37.5681 437.26 37.5861 437.44 37.6581C437.872 37.8561 438.844 39.0081 440.248 39.0081C441.148 39.0081 441.634 38.8641 442.48 37.9641C442.714 37.7301 443.074 38.2341 442.786 38.3421C441.616 38.9721 435.928 43.2021 432.778 45.5421C432.76 45.5961 432.778 45.6321 432.814 45.6321C433.822 45.0381 434.776 44.5161 435.298 44.5161C436.234 44.5161 437.872 45.9201 438.502 45.9201C439.114 45.7581 439.852 45.0201 440.59 44.3721L440.698 44.4801C440.086 45.1101 438.502 46.5141 437.962 46.9281C437.782 47.0541 437.008 47.0001 436.918 46.9281C436.468 46.7301 434.812 45.5961 433.75 45.5961C432.994 45.5961 432.382 45.8661 431.392 46.9101C431.014 47.3061 430.564 46.9461 431.05 46.5501C431.05 46.5501 438.61 41.0961 440.896 39.2961Z" fill="#D7D7D7"/>
<path d="M18.36 62.2921C19.08 61.9681 20.826 61.6081 21.564 61.6081C22.518 61.6081 23.616 62.1301 23.994 62.8321C24.876 64.0921 25.056 66.6661 23.508 69.2941C21.726 72.2821 18.81 73.9381 17.496 74.5321C16.848 74.7661 15.102 75.2521 14.382 75.2521C13.41 75.2521 12.132 74.7661 11.736 74.0821C10.926 72.9121 10.422 70.6801 12.006 67.9801C13.788 65.0101 17.046 62.8861 18.36 62.2921ZM17.46 74.3881C18.774 73.7581 19.98 73.3081 22.14 69.5821C23.436 67.2781 23.58 64.5961 22.752 63.3901C22.212 62.5441 20.988 62.1301 19.854 62.1301C19.404 62.1301 18.846 62.2381 18.468 62.4181C17.154 63.0481 15.552 63.9121 13.392 67.6561C12.204 69.7981 12.186 72.1921 13.032 73.3801C13.518 74.1361 14.904 74.6221 15.984 74.6221C16.632 74.6221 17.154 74.5141 17.46 74.3881Z" fill="#D7D7D7"/>
<path d="M29.9215 64.0381C31.6135 63.2641 33.0355 62.4541 34.0255 61.7161C34.2055 61.5721 34.2775 61.5181 34.4035 61.5721C34.5115 61.6081 34.5475 61.7161 34.4755 61.8241C34.0615 62.5621 28.5715 72.3361 27.9595 73.4521C27.3835 74.5141 27.6535 74.8921 29.0755 74.8921C29.1655 74.8921 29.1655 75.0001 29.0575 75.0001C28.5715 75.0001 26.8075 74.9281 26.4295 74.9281C26.0335 74.9281 24.2695 75.0001 23.9275 75.0001C23.8375 75.0001 23.8735 74.8921 23.9635 74.8921C25.1695 74.8921 25.9615 74.3521 26.7535 73.0921C27.2395 72.3181 31.8115 64.2361 32.0455 63.7861C32.1895 63.4981 32.1715 63.3721 31.9735 63.3721C31.7395 63.3721 31.3075 63.5341 30.0115 64.1461C29.8675 64.2181 29.8135 64.0921 29.9215 64.0381Z" fill="#D7D7D7"/>
<path d="M38.775 75.0001C35.823 75.0001 32.601 75.0721 32.385 75.0721C32.295 75.0721 32.223 74.8201 32.331 74.7661C39.801 70.9861 44.661 68.2681 45.669 65.9281C46.533 63.9121 45.381 62.2561 42.843 62.2561C40.665 62.2561 39.567 63.3541 38.757 65.9101C38.577 66.4861 38.361 66.8641 37.731 66.8641C37.083 66.8641 36.993 66.4861 37.335 65.7301C38.235 63.7861 41.043 61.8421 43.977 61.8421C46.461 61.8421 48.153 63.4801 47.181 65.8741C46.281 67.9981 41.115 69.9961 34.941 73.8301L37.965 73.8121C42.717 73.8121 43.671 73.0201 45.147 71.1481C45.237 71.0221 45.345 71.1121 45.255 71.2201C44.931 71.6881 43.815 73.5781 43.149 74.5321C42.951 74.8381 42.825 74.9281 42.627 74.9461C42.213 75.0001 39.999 74.9821 38.775 75.0001Z" fill="#D7D7D7"/>
<path d="M48.466 72.2821C48.772 71.3461 50.05 70.5721 51.31 70.3561C51.418 70.3381 51.418 70.4281 51.346 70.4461C50.698 70.5541 50.032 70.9321 49.78 71.7601C49.402 73.7041 51.472 74.8021 53.362 74.8021C55.072 74.8021 56.8 73.7941 57.502 72.4801C58.708 70.1761 57.7 67.3681 55.126 67.3681C53.776 67.3681 52.948 68.3941 52.354 68.3941C52.12 68.3941 51.994 68.2861 51.994 68.0881C51.994 67.8541 52.156 67.7101 52.516 67.6561C56.368 67.0081 58.618 66.5941 59.464 65.1541C60.454 63.4981 59.554 61.6801 57.664 61.6801C55.936 61.6801 54.928 62.5081 54.406 64.1641C54.208 64.7401 54.046 65.1001 53.506 65.1001C52.966 65.1001 52.75 64.7041 53.056 64.1461C54.118 62.2021 56.8 61.4461 58.51 61.4821C60.67 61.4821 62.146 63.2821 60.976 65.1901C60.184 66.4681 58.186 66.6481 55.396 67.2781C55.828 67.2241 56.368 67.1521 56.692 67.1521C58.96 67.1521 60.346 69.3661 58.636 72.0661C57.628 73.6861 54.1 75.4501 51.886 75.4501C49.816 75.4501 47.962 74.2441 48.466 72.2821Z" fill="#D7D7D7"/>
<path d="M66.9094 74.9281C66.1174 74.9281 64.4434 75.0001 64.1194 75.0001C63.9934 75.0001 64.0114 74.8921 64.1374 74.8921C65.5774 74.8921 66.2974 74.3881 67.0894 73.1461C67.2514 72.8941 67.9894 71.6521 68.8894 70.1221C66.0994 70.1041 62.9314 70.0861 62.9314 70.0861C62.8414 70.0861 62.8054 69.9061 62.8954 69.8521C66.0994 67.7461 71.5534 63.8941 74.4694 61.6441C74.6674 61.4821 74.8114 61.4821 74.9014 61.5181C75.0094 61.5901 74.9914 61.7521 74.8834 61.9141C74.5954 62.3461 72.4714 66.0361 70.7254 69.1321H71.9134C73.6954 69.1321 74.2174 68.7361 75.1714 67.3681C75.2434 67.2781 75.4234 67.3861 75.3334 67.4761C74.7754 68.1421 73.4794 69.9421 73.4794 69.9421C73.3714 70.0861 73.2814 70.1221 73.0294 70.1221H70.1674C69.2854 71.6881 68.5834 72.9481 68.4034 73.3081C67.9354 74.2621 67.9354 74.8921 69.6814 74.8921C69.7714 74.8921 69.7714 75.0001 69.6634 75.0001C69.1774 75.0001 67.7014 74.9281 66.9094 74.9281ZM72.7594 63.4261C72.8314 63.3001 72.8854 63.1201 72.8314 63.1201C72.7594 63.1201 72.4174 63.3541 72.1834 63.5341L65.4514 68.3041C65.1994 68.5021 64.7674 68.7901 64.4614 69.0781C64.7674 69.1501 65.2894 69.1501 65.9194 69.1501H69.4474C70.7614 66.9001 72.2194 64.3621 72.7594 63.4261Z" fill="#D7D7D7"/>
<path d="M79.2654 75.4501C77.2314 75.4501 75.6114 74.4421 76.1694 72.5341C76.4754 71.4901 78.2034 70.4461 79.5354 70.2301C79.6614 70.2121 79.6614 70.3381 79.5894 70.3561C78.4374 70.5541 77.6094 70.9321 77.3754 72.0301C76.9614 73.5061 78.5814 74.6761 80.6514 74.6761C82.6674 74.6761 84.2694 73.9921 85.4394 71.9761C86.6814 69.6001 85.6014 67.0801 83.0814 67.0801C81.8394 67.0801 80.7954 67.6021 79.7334 68.3941C79.5174 68.5561 79.1754 68.8801 78.9054 68.8801C78.6714 68.8801 78.5814 68.7721 78.5814 68.5561C78.5814 68.3581 78.7974 68.1601 79.1394 68.1601C79.4994 68.1601 79.7154 68.0161 80.0574 67.4941L83.5854 62.0401C83.6394 61.9681 83.7114 61.9141 83.8014 61.9141H89.6334C90.8574 61.9141 91.3074 61.5181 91.8474 60.5281C91.9194 60.4201 92.0454 60.4921 91.9734 60.6001C91.4874 61.4821 90.6774 62.9401 90.6774 62.9401C90.5694 63.1201 90.4794 63.1561 90.2274 63.1561C89.7414 63.1561 84.0354 63.0841 83.2434 63.0841C83.1714 63.0841 83.0994 63.1201 83.0634 63.1741C82.1634 64.5241 80.2194 67.4761 79.9854 67.8901C79.9494 67.9621 79.9674 67.9621 80.0214 67.9621C80.1294 67.9621 80.3454 67.8361 80.4354 67.8001C81.1554 67.4041 82.5414 66.5761 84.3234 66.5761C86.6814 66.5761 88.2474 68.9881 86.7174 71.5261C85.7274 73.1821 81.9114 75.4501 79.2654 75.4501Z" fill="#D7D7D7"/>
<path d="M94.4761 75.3601C93.3961 75.3601 92.3521 74.8741 91.7581 74.0641C91.0741 73.1101 90.1021 71.2921 92.0641 67.9801C94.7461 63.4981 100.614 61.5901 105.258 61.1401C105.546 61.1221 105.546 61.2661 105.294 61.3021C100.65 61.7521 96.2761 63.2641 93.6121 67.5841C93.5401 67.7101 93.4141 67.9081 93.2881 68.1601C93.8821 67.6741 94.5121 67.2961 95.2501 66.9721C96.0781 66.5941 97.2481 66.1981 98.4721 66.1981C99.6241 66.1981 100.56 66.8641 100.956 67.6381C101.298 68.2681 102.018 70.0681 100.74 72.0661C100.02 73.3081 98.8681 73.9921 97.3921 74.6581C96.6901 74.9821 95.4841 75.3601 94.4761 75.3601ZM92.6941 69.6721C92.0461 71.1301 92.4061 72.5881 92.9821 73.3801C93.6841 74.3701 94.7821 74.8201 95.8441 74.8201C96.6001 74.8201 96.9781 74.7121 97.3021 74.5681C98.2381 74.1721 99.0121 73.6321 99.8041 71.9221C100.362 70.6081 100.074 68.9341 99.6421 68.1781C98.7961 66.9181 97.0861 66.4141 95.3221 67.0801C94.4041 67.4581 93.4141 68.0701 92.6941 69.6721Z" fill="#D7D7D7"/>
<path d="M105.244 76.6381C104.578 76.6381 104.416 76.0081 104.83 75.4141C106.882 72.3721 112.822 66.2881 116.17 63.1381H109.942C107.944 63.1381 107.026 63.9481 106.18 65.1721C106.126 65.2621 105.964 65.1361 106.036 65.0461C106.612 64.3261 108.214 61.9501 108.214 61.9501C108.304 61.8241 108.52 61.9141 110.194 61.9141H117.538L117.592 62.0941C110.932 68.2861 108.286 70.9681 106.27 75.6301C106.018 76.2421 105.82 76.6381 105.244 76.6381Z" fill="#D7D7D7"/>
<path d="M119.878 64.9561C120.526 63.3361 123.82 61.5541 126.07 61.5541C128.662 61.5541 129.814 63.1561 129.274 64.6321C128.716 65.9641 127.312 66.6661 125.062 67.6381L124.936 67.5661C127.222 66.6121 127.816 65.9461 128.122 64.8661C128.464 63.6421 127.33 62.2021 125.062 62.2021C122.956 62.2021 121.354 63.1381 120.85 64.5061C119.734 67.3501 128.302 67.4221 126.178 71.8501C125.548 73.1101 122.416 75.4141 119.806 75.4141C116.908 75.4141 115.36 73.8481 115.882 72.0121C116.35 70.3381 119.194 68.9161 121.516 67.8721C120.274 67.1701 119.32 66.3601 119.878 64.9561ZM117.088 71.5081C116.764 73.1101 118.456 74.5861 121.012 74.5861C123.208 74.5861 124.468 73.7581 125.098 72.4981C126.232 69.9601 123.658 69.0601 121.678 67.9621C119.212 68.9161 117.448 69.9961 117.088 71.5081Z" fill="#D7D7D7"/>
<path d="M140.734 69.3661L140.878 69.1501C140.446 69.4381 140.05 69.6541 139.69 69.8521C139.006 70.2301 137.35 70.8601 135.91 70.8601C134.794 70.8601 133.858 70.3561 133.318 69.6361C132.256 68.4121 132.31 66.6661 133.3 65.0461C134.02 63.8401 135.226 62.9401 136.522 62.3101C137.17 62.0041 138.754 61.5541 139.69 61.5541C140.716 61.5541 141.994 62.1301 142.552 62.8861C143.29 63.8221 144.262 65.8921 141.994 69.5281C139.798 73.0201 135.208 75.2701 132.904 75.2701C130.726 75.2701 129.772 74.0641 130.24 72.5881C130.528 71.7061 131.41 71.2921 132.31 71.0761C132.382 71.0581 132.364 71.1301 132.328 71.1481C132.022 71.2921 131.662 71.6341 131.518 72.1381C131.104 73.6141 132.508 74.6221 134.362 74.6221C136.81 74.6221 138.34 73.0741 140.734 69.3661ZM141.634 67.6021C142.3 66.1621 142.066 64.2181 141.31 63.2821C140.608 62.3821 139.33 62.1301 138.178 62.1301C137.602 62.1301 137.098 62.2381 136.594 62.4181C135.622 62.9221 135.01 63.3541 134.29 64.7221C133.642 66.0001 133.804 67.8181 134.686 68.9161C135.262 69.6541 136.162 70.1401 137.44 70.1401C138.196 70.1401 139.006 70.0321 139.6 69.7261C140.374 69.3121 140.932 69.1681 141.634 67.6021Z" fill="#D7D7D7"/>
<path d="M145.006 74.8741C144.826 74.5681 145.132 73.5061 145.528 73.3081C145.654 73.2361 145.996 73.1821 146.284 73.1821C146.572 73.1821 146.914 73.2721 146.968 73.3621C147.04 73.9201 146.716 74.6941 146.41 74.9101C146.302 74.9821 146.05 75.0181 145.744 75.0181C145.402 75.0181 145.132 75.0001 145.006 74.8741ZM152.08 59.5741C152.278 59.1961 153.592 59.4661 153.466 59.7541C152.908 61.0501 151.864 62.8321 151.234 63.9301C149.992 66.0901 148.75 67.9801 146.95 71.7601L146.788 71.7241C148.606 67.9261 149.434 65.8381 150.316 63.6241C150.838 62.2921 151.468 60.7261 152.08 59.5741Z" fill="#D7D7D7"/>
<path d="M165.395 76.4941L165.449 76.5301C164.207 77.7541 162.137 78.9601 159.815 78.9601C155.531 78.9601 152.111 76.4581 152.111 71.9401C152.111 66.5221 157.079 63.0481 161.219 63.0481C166.097 63.0481 167.861 66.6661 167.879 68.7541C167.879 72.2281 165.305 74.9821 162.155 74.9821C161.975 74.9821 161.129 74.7481 161.039 74.6581C160.733 74.3161 160.571 73.6861 160.553 73.3801C160.499 72.5881 161.255 71.2381 161.813 70.2661C160.553 71.7421 158.735 73.5601 157.421 74.6761C157.295 74.8021 156.755 74.7481 156.683 74.6761C155.909 74.1181 155.855 72.3001 156.485 70.7881C157.493 68.3221 160.175 66.7921 161.543 66.7921C162.299 66.7921 162.587 66.9721 163.523 67.9981C163.739 67.8001 164.297 67.2421 164.603 66.9001C164.783 66.7381 164.801 66.9181 164.801 66.9181C163.811 68.1601 161.669 72.0661 161.759 73.3621C161.777 73.6141 162.353 74.5501 162.659 74.6401C165.089 74.6401 167.483 72.3721 167.483 68.9701C167.483 66.9001 165.683 63.3181 161.003 63.3181C156.989 63.3181 152.507 66.6661 152.507 71.4721C152.507 76.2961 155.873 78.5821 160.121 78.5821C162.083 78.5821 164.261 77.4481 165.395 76.4941ZM157.655 73.9201C158.393 73.7041 161.183 70.8421 162.695 68.7541C161.651 67.5301 161.309 67.2241 160.715 67.2241C159.617 67.2241 158.213 68.7181 157.619 70.5901C157.151 72.1201 157.223 73.4161 157.655 73.9201Z" fill="#D7D7D7"/>
<path d="M180.003 68.6821V70.9141C181.443 70.8961 182.487 70.8601 183.657 70.8241C183.819 71.0401 183.801 71.0581 183.765 71.3101C182.469 71.2021 181.425 71.1301 180.003 71.0941C180.003 72.1381 180.021 72.9301 180.075 74.7481C179.841 74.9281 179.859 74.9821 179.625 74.9281C179.697 73.0021 179.769 72.1921 179.805 71.0761C179.175 71.0581 178.473 71.0581 177.627 71.0581C176.673 71.0581 175.917 71.0761 175.269 71.0761C175.269 72.1201 175.287 72.9301 175.341 74.7481C175.107 74.9281 175.125 74.9821 174.891 74.9281C174.963 73.0201 175.035 72.1921 175.071 71.0941C173.865 71.1121 172.947 71.1661 171.561 71.2021C171.381 70.9681 171.327 70.9861 171.381 70.7521C172.839 70.8421 173.811 70.8961 175.071 70.9141C175.089 70.3201 175.107 69.6541 175.107 68.7001C175.107 67.7281 175.107 67.0261 175.089 66.3961C173.865 66.4141 172.965 66.4681 171.561 66.5041C171.381 66.2701 171.327 66.2881 171.381 66.0541C172.857 66.1441 173.811 66.1981 175.089 66.2161L175.035 62.7421C175.251 62.5801 175.269 62.5981 175.521 62.6341C175.413 64.2901 175.341 65.1181 175.305 66.2161C175.953 66.2341 176.673 66.2341 177.609 66.2341H179.823L179.769 62.7421C179.985 62.5801 180.003 62.5981 180.255 62.6341C180.147 64.2901 180.075 65.1181 180.039 66.2341C181.461 66.2161 182.487 66.1801 183.657 66.1441C183.819 66.3601 183.801 66.3781 183.765 66.6301C182.469 66.5221 181.443 66.4501 180.021 66.4141C180.003 67.0081 180.003 67.7281 180.003 68.6821ZM177.627 66.3781C176.673 66.3781 175.935 66.3961 175.287 66.3961C175.269 67.0081 175.269 67.7101 175.269 68.6821V70.9141H179.805C179.823 70.3201 179.841 69.6541 179.841 68.7001C179.841 67.7281 179.841 67.0261 179.823 66.3961C179.193 66.3781 178.473 66.3781 177.627 66.3781Z" fill="#D7D7D7"/>
<path d="M187.429 69.4921L187.555 69.5281C186.961 70.8601 186.835 71.4181 186.835 72.3001C186.835 73.3981 187.915 74.3341 189.301 74.7481C190.237 72.8581 191.209 70.8601 191.983 69.2401C190.111 68.0521 188.149 66.9001 189.103 65.0281C189.859 63.4441 191.695 62.7241 193.801 62.7241C194.179 62.7241 194.575 62.7601 194.935 62.8141L195.925 60.6541C196.195 60.5641 196.231 60.6361 196.429 60.7801C196.069 61.4281 195.691 62.1301 195.313 62.8681C196.807 63.1381 198.067 63.7861 198.913 64.4521L196.753 68.2321L196.627 68.1601C197.329 66.9001 197.437 66.3061 197.437 65.3161C197.455 64.3261 196.663 63.4081 195.223 63.0481C194.377 64.6501 193.513 66.3961 192.757 68.0341C194.647 69.2041 196.609 70.5181 195.601 72.6601C194.719 74.5141 192.775 75.1441 190.867 75.1441C190.417 75.1441 189.985 75.1081 189.553 75.0541C189.085 76.0621 188.671 77.0341 188.293 77.8801C188.005 77.9701 187.915 77.9341 187.735 77.7901L189.157 75.0001C187.393 74.6941 185.845 73.9741 185.179 73.3081L187.429 69.4921ZM190.849 74.9641C192.397 74.9641 194.017 74.6581 194.665 73.2541C195.439 71.5261 193.855 70.4101 192.145 69.3301C191.389 70.9681 190.489 72.9661 189.643 74.8381C190.039 74.9281 190.435 74.9641 190.849 74.9641ZM193.801 62.8861C191.713 62.8861 190.543 63.4081 189.985 64.5781C189.337 65.9461 190.903 66.9001 192.577 67.9261C193.315 66.3061 194.125 64.5601 194.863 62.9761C194.539 62.9221 194.179 62.8861 193.801 62.8861Z" fill="#D7D7D7"/>
<path d="M206.638 68.8801C204.46 70.7881 201.958 73.0921 199.816 75.0361C199.564 75.0901 199.438 74.8741 199.276 74.7841C201.67 72.8041 204.208 70.7521 206.44 68.8441C208.654 66.9001 211.876 63.9301 213.676 62.3101C213.964 62.2561 213.964 62.5261 214.126 62.5981C212.002 64.3081 208.852 66.9541 206.638 68.8801ZM211.93 72.2101C211.66 73.2001 210.886 74.0461 209.932 74.5321C209.644 74.6761 208.726 75.1261 208.258 75.1261C206.602 75.1261 206.008 73.7041 206.386 72.3181C206.656 71.2741 207.484 70.4461 208.384 69.9781C208.852 69.7261 209.554 69.3841 210.166 69.3841C211.678 69.3841 212.362 70.6081 211.93 72.2101ZM208.726 74.6041C209.212 74.6041 209.536 74.5861 209.914 74.4421C210.454 73.8661 210.76 73.1641 210.994 72.3181C211.408 70.7521 210.778 69.8341 209.626 69.8341C209.158 69.8341 208.708 69.9241 208.456 70.0501C207.952 70.5541 207.574 71.2381 207.304 72.2101C206.944 73.5961 207.52 74.6041 208.726 74.6041ZM206.836 65.3161C206.566 66.3061 205.792 67.1521 204.838 67.6381C204.55 67.7821 203.632 68.2321 203.164 68.2321C201.508 68.2321 200.914 66.8101 201.292 65.4241C201.562 64.3801 202.39 63.5521 203.29 63.0841C203.758 62.8321 204.46 62.4901 205.072 62.4901C206.584 62.4901 207.268 63.7141 206.836 65.3161ZM203.632 67.7101C204.118 67.7101 204.442 67.6921 204.82 67.5481C205.36 66.9721 205.666 66.2701 205.9 65.4241C206.314 63.8581 205.684 62.9401 204.532 62.9401C204.064 62.9401 203.614 63.0301 203.362 63.1561C202.858 63.6601 202.48 64.3441 202.21 65.3161C201.85 66.7021 202.426 67.7101 203.632 67.7101Z" fill="#D7D7D7"/>
<path d="M218.822 75.6841C216.428 75.6121 214.484 71.9761 215.726 70.1221C216.59 68.8801 218.534 67.5121 220.964 66.8101C220.766 66.0721 220.658 65.4061 220.676 64.8121C220.694 63.7321 221.648 62.3821 222.746 61.3201C223.43 60.6541 224.636 60.0421 226.076 60.0421C227.318 60.0421 228.416 60.6361 228.884 61.3381C228.002 62.3281 227.174 63.3541 226.436 64.3981L226.31 64.3261C227.066 63.2821 227.606 62.4901 227.876 62.0401C227.39 61.3381 226.49 60.7801 225.122 60.7801C224.024 60.7801 223.124 61.0501 222.494 61.7521C221.972 62.2561 221.72 62.9761 221.702 63.9301C221.576 67.2241 226.184 74.4601 228.56 74.4601C229.658 74.4601 230.468 73.5961 231.17 71.5441C231.836 69.5821 232.034 66.9181 228.218 66.9181C227.714 66.9181 226.778 66.9901 226.508 67.0441C226.31 67.0981 226.328 66.9181 226.598 66.5941C226.994 66.1261 227.138 65.7481 227.39 65.7481C227.588 65.7481 230.342 65.7121 231.26 65.6581C233.186 65.4961 234.176 65.2261 235.13 64.8121C235.292 64.7581 235.328 64.8121 235.166 64.9561C234.932 65.1721 232.844 66.8461 232.646 66.8461H232.232C230.756 66.8101 229.712 66.6121 228.686 66.6121C228.56 66.6121 228.614 66.6121 228.74 66.6301C231.872 67.2421 233.348 69.7441 232.556 71.7601C231.908 73.4341 229.316 74.3881 227.462 75.3961C226.346 75.2701 224.834 73.7941 223.52 71.9221C222.512 73.5961 221 75.1981 218.822 75.6841ZM223.412 71.7781C222.404 70.3201 221.54 68.6101 221.054 67.0981C218.516 67.4761 217.292 68.7541 216.77 69.6901C215.852 71.4361 217.958 74.7301 219.812 74.7301C221.306 74.7301 222.476 73.3981 223.412 71.7781Z" fill="#D7D7D7"/>
<path d="M239.158 69.3661C237.448 71.9581 234.424 76.4041 232.75 79.0681C232.426 79.0861 232.426 79.1401 232.246 78.9601C234.172 76.2961 237.178 71.8861 238.96 69.2221C240.652 66.6121 243.352 62.4721 244.774 60.2401C245.098 60.2221 245.08 60.2401 245.278 60.4021C243.568 62.6881 240.868 66.7381 239.158 69.3661Z" fill="#D7D7D7"/>
<path d="M245.808 69.1141C247.554 65.3161 250.722 62.4361 254.286 60.7981C254.484 60.6901 254.61 60.8341 254.394 60.9601C250.812 62.6341 248.022 65.5681 246.312 69.2401C244.638 72.9121 244.188 77.0881 245.916 79.7341C246.006 79.8601 245.79 79.9861 245.718 79.8781C243.954 77.2321 244.044 72.9121 245.808 69.1141Z" fill="#D7D7D7"/>
<path d="M254.239 71.5621C252.493 75.3601 249.325 78.2401 245.761 79.8781C245.563 79.9861 245.437 79.8421 245.653 79.7161C249.235 78.0421 252.025 75.1081 253.735 71.4361C255.409 67.7641 255.859 63.5881 254.131 60.9421C254.041 60.8161 254.257 60.6901 254.329 60.7981C256.093 63.4441 256.003 67.7641 254.239 71.5621Z" fill="#D7D7D7"/>
<path d="M263.697 69.2941C262.221 69.2941 261.716 69.2401 260.6 69.3121C260.492 69.2221 260.474 69.0421 260.51 68.9161C261.662 69.0421 262.202 69.0421 263.678 69.0421C265.154 69.0421 265.875 69.0241 266.757 68.9701C266.865 69.0961 266.864 69.2581 266.81 69.4021C265.838 69.2401 265.155 69.2941 263.697 69.2941ZM263.697 72.0841C262.221 72.0841 261.716 72.0301 260.6 72.1021C260.474 72.0661 260.438 71.8501 260.51 71.7061C261.662 71.8321 262.202 71.8321 263.678 71.8321C265.154 71.8321 265.875 71.8141 266.757 71.7601C266.883 71.8501 266.882 72.0481 266.81 72.1921C265.838 72.0301 265.155 72.0841 263.697 72.0841Z" fill="#D7D7D7"/>
<path d="M272.708 62.2561C273.248 60.5821 275.696 59.7901 277.604 59.8441C281.294 59.8441 283.058 61.7701 282.086 64.0021C281.114 66.3241 275.426 67.1341 274.202 69.0961C273.968 69.4741 273.86 69.7801 273.86 70.1941C273.878 70.5001 274.13 70.8961 274.49 71.0041C275.066 70.7341 276.002 70.1221 276.866 69.4381L276.974 69.5641C276.164 70.2121 275.192 70.9501 273.968 71.7601C273.788 71.8861 273.068 71.8321 272.978 71.7601C272.528 71.4181 272.366 70.6621 272.348 70.3021C272.33 69.6901 272.546 69.1501 272.852 68.6821C274.238 66.5581 279.818 65.7481 280.862 63.4441C281.618 61.7341 280.376 59.9521 277.604 59.9521C275.768 59.9521 274.382 60.5281 274.04 61.8421C273.788 63.1021 274.544 64.0741 275.786 64.0741C276.308 64.0741 277.082 63.7681 277.55 63.5161L277.64 63.6241C276.794 64.0561 275.696 64.6321 274.634 64.6321C273.23 64.6321 272.366 63.6421 272.708 62.2561ZM272.132 75.0181C271.79 75.0181 271.52 75.0001 271.394 74.8741C271.214 74.5681 271.52 73.5061 271.916 73.3081C272.042 73.2361 272.384 73.1821 272.672 73.1821C272.96 73.1821 273.302 73.2721 273.356 73.3621C273.428 73.9201 273.104 74.6941 272.798 74.9101C272.69 74.9821 272.438 75.0181 272.132 75.0181Z" fill="#D7D7D7"/>
<path d="M284.293 66.8461C284.311 66.7921 285.301 65.7841 285.589 65.2081C284.977 65.2801 283.663 65.8201 283.609 65.8201C283.123 65.8741 282.799 65.5681 282.745 65.3881C282.781 65.2081 283.033 64.8841 283.537 64.8301C283.627 64.8301 284.959 65.1901 285.589 65.1541C285.229 64.6321 284.113 63.7861 284.059 63.7321C283.771 63.3001 283.879 62.8861 284.023 62.7781C284.185 62.6701 284.617 62.7421 284.887 63.1741C284.941 63.2281 285.319 64.5421 285.643 65.1001C285.895 64.5241 286.075 63.1561 286.129 63.0841C286.327 62.6161 286.759 62.5081 286.921 62.5621C287.065 62.6341 287.245 63.0481 287.029 63.4981C286.993 63.5881 286.003 64.5781 285.715 65.1361C286.345 65.0641 287.659 64.5241 287.713 64.5241C288.199 64.4701 288.523 64.7761 288.577 64.9741C288.541 65.1361 288.289 65.4601 287.785 65.5141C287.713 65.5141 286.363 65.1541 285.715 65.2081C286.075 65.7301 287.227 66.5761 287.263 66.6121C287.551 67.0441 287.443 67.4581 287.281 67.5841C287.137 67.6741 286.705 67.6021 286.435 67.1701C286.381 67.1341 286.003 65.8021 285.661 65.2621C285.409 65.8381 285.247 67.2061 285.193 67.2601C284.995 67.7281 284.563 67.8361 284.401 67.7821C284.257 67.7101 284.077 67.2961 284.293 66.8461Z" fill="#D7D7D7"/>
</svg>
