<svg width="84" height="63" viewBox="0 0 84 63" fill="none" xmlns="http://www.w3.org/2000/svg">
<g clip-path="url(#clip0_53_349)">
<path d="M41.81 59.3124C40.7166 59.5403 39.625 59.7495 38.5339 59.8897C33.0291 60.5959 25.1088 60.2691 18.6377 54.701C17.7498 53.9366 16.935 53.1287 16.1957 52.2806C15.5863 51.5812 12.8555 52.7193 13.6084 53.629C14.5491 54.766 15.6067 55.8409 16.7767 56.8484C22.3786 61.669 28.8746 63.0005 34.3431 63.0005C35.9687 63.0005 37.5041 62.8829 38.897 62.7037C40.787 62.4611 42.6719 61.998 44.563 61.5423C46.5874 61.0538 44.0813 58.8392 41.81 59.3124Z" fill="#E7A913"/>
<path d="M47.717 6.51775C43.6534 4.7848 38.6354 4.52303 33.5879 5.7799C28.1477 7.1346 22.9362 10.1516 18.5157 14.5051C11.8085 21.1107 7.82149 30.5228 8.10973 39.0688C8.19427 41.5747 8.67485 43.9635 9.42437 46.2415C9.89531 47.673 12.5904 46.6361 12.1995 45.5358C11.463 43.4637 11.0329 41.2693 10.9552 38.9733C10.6925 31.1928 14.3561 22.5903 20.5169 16.523C24.5743 12.5268 29.3324 9.7637 34.2778 8.53283C38.7256 7.42521 43.1007 7.6361 46.5964 9.12706C47.3193 9.4352 48.1562 9.10105 48.4654 8.38073C48.7752 7.65985 48.4399 6.82589 47.717 6.51775Z" fill="#E7A913"/>
<path d="M67.2955 38.2405C63.8372 33.2192 56.7539 37.1566 51.7268 40.5552C46.3264 44.206 44.0069 45.0196 42.863 43.6621C42.3819 43.0916 42.1816 42.3515 42.2678 41.4621C42.442 39.6658 43.7419 37.6304 45.7454 36.0173C46.357 35.5249 46.4524 34.6321 45.9582 34.0226C45.464 33.4131 44.5681 33.3181 43.9564 33.8106C41.3322 35.9235 39.6839 38.6131 39.4343 41.1896C39.2743 42.8422 39.7061 44.3281 40.6831 45.4872C42.0398 47.0963 43.9485 47.5226 46.3559 46.7542C48.0666 46.2086 50.0859 45.0925 53.3252 42.9027C62.6917 36.5703 64.3899 39.036 64.9476 39.8462C66.5908 42.2322 63.8497 46.398 56.7993 52.2278C55.7973 53.0561 54.7045 53.8375 53.5408 54.5618C52.8922 54.9661 56.0435 56.5305 58.6172 54.4108C62.804 50.9625 65.5371 48.0501 66.9931 45.533C68.6061 42.7444 68.7077 40.2912 67.2955 38.2405Z" fill="#E7A913"/>
<path d="M57.0131 60.4098C51.4896 60.4098 45.4485 58.8612 38.9491 55.7696C36.6772 54.6885 34.3634 53.5261 32.1256 52.4021C28.2498 50.4548 24.4857 48.5636 20.906 47.0506C16.1831 50.2705 11.9696 51.8819 8.16299 51.9418C4.55098 51.9984 1.68849 50.6855 0.510589 48.4285C-0.278085 46.9171 -0.14645 45.187 0.862372 43.8012C1.71346 42.6326 4.48857 40.0453 11.8664 41.2615C14.6415 41.7189 17.5437 42.636 20.5514 43.8352C22.7115 42.2532 25.0049 40.3099 27.4424 37.9991C34.4633 31.345 41.5562 22.7515 48.416 14.4407C49.6427 12.9543 50.9114 11.4175 52.1347 9.94749C58.8231 1.90867 65.0377 0.103357 69.073 0.00441249C73.3909 -0.101317 77.4732 1.69608 80.5701 5.06642C82.649 7.32857 83.8286 10.1561 83.9829 13.2443C84.1236 16.0628 83.3747 19.0103 81.8751 21.5432C80.3181 24.1729 78.0838 26.2168 75.4142 27.4539C72.4779 28.8148 69.1468 29.106 65.7816 28.2969C65.0173 28.1132 64.5475 27.347 64.7319 26.5854C64.9163 25.8239 65.6857 25.3557 66.4494 25.5395C72.7446 27.053 77.2786 23.7228 79.4228 20.102C80.6427 18.0417 81.2526 15.6563 81.1392 13.3857C81.0183 10.9658 80.0952 8.75168 78.4701 6.98255C75.9004 4.18609 72.6748 2.75507 69.1428 2.84045C64.2031 2.96144 59.0795 6.04512 54.3259 11.7585C53.1066 13.224 51.8964 14.6906 50.6146 16.2432C43.701 24.6196 36.5518 33.2809 29.4044 40.0549C27.3783 41.9756 25.4332 43.6593 23.5654 45.109C26.7485 46.5225 30.0371 48.1752 33.4074 49.8685C35.6315 50.9857 37.9312 52.1414 40.1752 53.2089C49.8838 57.8276 58.3907 58.7831 65.4593 56.0489C74.6011 52.5129 78.2137 43.8465 78.2489 43.7594C78.5439 43.034 79.3729 42.6829 80.1008 42.9752C80.8294 43.2675 81.1828 44.0913 80.8906 44.8178C80.7295 45.2187 76.8247 54.6755 66.5305 58.6785C63.5608 59.8331 60.3828 60.4098 57.0131 60.4098ZM8.26626 43.782C5.46675 43.782 3.82075 44.5685 3.16711 45.4669C2.78866 45.9865 2.74384 46.5581 3.03661 47.119C3.68628 48.3634 5.67839 49.1425 8.1176 49.1047C10.9534 49.06 14.1195 47.962 17.6753 45.7767C15.496 44.9886 13.3983 44.3893 11.4017 44.0602C10.2283 43.8668 9.18487 43.782 8.26626 43.782Z" fill="#E7A913"/>
<path d="M48.7355 33.3369C47.3238 33.1961 46.5181 31.7063 47.1615 30.4738C47.3249 30.1611 47.5593 29.8744 47.8027 29.6155C51.2172 25.98 53.922 22.9251 57.3422 19.2947C57.3627 19.2727 57.3831 19.2506 57.4035 19.2291C57.6912 18.9295 57.6963 18.9272 57.8529 19.293C58.3562 20.4685 59.0921 21.4738 60.0646 22.3072C60.7176 22.8669 61.4422 23.3096 62.2365 23.6421C62.5855 23.7879 62.5861 23.7987 62.3075 24.0028C57.9686 27.1871 54.3464 29.7981 50.0059 32.9802C49.6138 33.2668 49.1656 33.3601 48.7355 33.3369Z" fill="#E7A913"/>
<path d="M62.6729 10.0034C62.3183 11.8523 63.5728 14.6561 65.3658 16.3585C67.1899 18.0909 69.6144 19.0668 71.3988 18.7869C71.7069 18.7383 71.9878 18.654 72.2431 18.5342C72.8514 18.2475 72.9949 17.9365 73.1708 17.2988C73.2559 16.9895 73.3075 16.6672 73.3439 16.3393C73.7728 12.4533 70.9597 8.95689 67.06 8.52945C65.7329 8.38415 64.4608 8.63518 63.3209 9.13273C62.9793 9.28143 62.7699 9.49798 62.6729 10.0034Z" fill="#E7A913"/>
<path d="M69.9893 20.9965C67.911 20.7686 65.6437 19.6729 63.8371 17.9569C62.169 16.3726 60.9729 14.1427 60.5678 12.0575C60.5309 11.8664 60.2699 11.7918 60.1752 11.9507C59.6719 12.7931 59.3371 13.7531 59.2225 14.7912C58.7936 18.6772 61.6067 22.1736 65.5064 22.601C67.2364 22.791 68.8892 22.3438 70.2305 21.4488C70.4223 21.321 70.4166 21.0326 70.2288 21.0185C70.1488 21.0128 70.0693 21.0055 69.9893 20.9965Z" fill="#E7A913"/>
</g>
<defs>
<clipPath id="clip0_53_349">
<rect width="84" height="63" fill="white"/>
</clipPath>
</defs>
</svg>
