<svg width="181" height="24" viewBox="0 0 181 24" fill="none" xmlns="http://www.w3.org/2000/svg">
<path d="M22.82 17.76L22.98 17.88C22.5 18.44 21.96 19.08 21.6 19.44C20.12 20.9 18.96 21.86 17 21.86C15.08 21.86 12.14 19.5 9.54 17.72C8.08 20.02 6.06 22 4.06 22C1.9 22 0.6 19.84 1.32 18.1C1.86 16.76 4.32 15.12 6.58 15.12C7.4 15.12 8.44 15.58 9.58 16.22C10.7 13.4 11.9 8.74 13.24 5.9C14.68 2.66 17.7 0.9 21.64 0.9C23.04 0.9 25.38 1.44 25.86 1.66C26.46 1.92 25.24 2.96 24.9 2.96C23.78 2.96 21.36 1.46 19.4 1.46C17.56 1.46 16.7 2 14.88 6.08C13.46 9.26 12.02 12.98 10.46 16.08C10.38 16.26 10.28 16.42 10.2 16.58C12.92 18.2 16.1 20.58 18.46 20.58C20.44 20.58 21.66 19.08 22.82 17.76ZM5.34 15.68C4.04 15.68 3.06 16.24 2.58 17.52C2.06 18.86 3.5 20.98 5.42 20.98C6.84 20.98 7.78 20.2 9.08 17.4C7.64 16.42 6.3 15.68 5.34 15.68ZM30.2256 10.7C30.2256 12.36 29.9456 15.6 29.3456 17.12L31.4456 14.94C33.7056 12.6 35.1256 11.02 35.2056 10.06C35.1856 9.36 34.7456 8.98 34.3856 8.84C33.8856 9 33.2456 9.44 32.4456 10.14L32.3256 10.02C32.9056 9.44 34.7456 8.02 35.6056 7.74C35.9856 7.66 36.7056 8.36 36.5056 9.12C35.8256 10.6 33.7856 12.74 31.5856 15.06C29.9656 16.72 28.4056 18.44 26.1856 20.44C24.4056 22.06 21.8256 23.72 18.8256 23.72C18.4856 23.72 18.1856 23.62 18.0456 23.38C17.9056 23.1 18.4056 22.46 18.8056 22.16H21.0256C23.3456 22.16 24.7056 21.58 26.0656 20.34C26.7656 19.72 27.0256 19.48 27.3656 19.1C28.4256 17.14 28.6856 12.8 28.6856 10.94C28.6856 10.18 28.6256 9.4 28.2856 8.98C28.1456 8.82 27.9856 8.76 27.7056 8.78C27.4256 8.9 26.4656 9.52 25.8056 10.1L25.6856 9.98C26.4056 9.32 27.5856 8.42 28.5456 7.88C28.6856 7.8 28.8656 7.76 28.9856 7.76C29.1856 7.76 29.4456 7.86 29.6056 8.04C30.0456 8.52 30.2256 9.38 30.2256 10.7ZM49.7958 5.64C51.4158 3.32 54.2958 1.48 57.2758 0.52C58.8358 0.16 59.6358 0.16 60.6558 0.16C61.4958 0.16 62.4758 0.179999 62.9558 0.26C63.6158 0.359999 62.6158 1.66 62.1358 1.66C60.8558 1.66 59.0558 1.3 57.1158 1.3C54.5758 1.3 53.5558 2.02 49.5958 8.06C48.4758 9.8 45.3758 14.84 45.3558 16.04C45.3558 16.38 45.5358 17.02 46.0158 17.06C46.5358 16.84 47.6758 16.14 48.4958 15.3L48.6158 15.44C47.8558 16.16 46.7158 17.18 45.4558 17.94C45.2558 18.06 44.4558 18 44.3758 17.92C43.9958 17.52 43.6758 16.6 43.7358 16.24C43.8158 15.16 45.3558 12.76 46.2358 11.36L46.3958 11.16C44.7558 13.2 41.7558 16.2 39.7358 17.94C39.5558 18.08 39.0358 18.02 38.9358 17.94C37.9558 17.2 38.0358 14.86 38.8158 12.92C40.0958 9.74 43.7558 7.76 45.4958 7.76C46.3358 7.76 46.9358 8.08 47.6558 8.84C48.5358 7.52 49.4758 6.08 49.7958 5.64ZM40.1958 16.94C41.1558 16.68 44.7558 12.88 46.9758 10.2C45.6758 8.56 45.1358 8.24 44.3358 8.24C42.9358 8.24 41.0758 10.22 40.2958 12.66C39.6558 14.64 39.6558 16.32 40.1958 16.94ZM57.4908 9.4C57.4908 10.2 56.0308 11.92 55.3308 13.06C54.5508 14.32 53.6708 15.56 53.7108 16.3C53.7308 16.64 54.1708 16.92 54.5708 17.04C55.2108 16.82 56.2308 16.06 56.9708 15.3L57.0908 15.44C56.3508 16.16 55.2508 17.18 53.9908 17.94C53.7908 18.06 52.9908 18 52.8908 17.92C52.3908 17.54 52.0908 16.84 52.0708 16.44C52.0108 15.62 53.1508 13.96 53.8908 12.74C54.9708 11 55.6108 10.2 55.7908 9.54C55.8908 9.16 55.4908 8.72 55.1908 8.66C54.7108 8.82 53.4508 9.68 52.7108 10.34L52.5708 10.24C53.2908 9.54 54.8508 8.36 55.8708 7.74C56.1108 7.6 56.3508 7.6 56.5308 7.68C56.9908 7.9 57.4908 8.9 57.4908 9.4ZM57.6908 6.28L57.5708 6.16C59.5108 4.18 61.3708 2.06 62.3908 0.62C62.6708 0.299999 63.1508 0.639999 62.8508 0.959999C61.6708 2.32 59.6708 4.26 57.6908 6.28ZM66.0827 16.32C65.9827 15.08 67.3627 13.44 68.0427 12.34C66.3027 14.22 63.8627 16.5 62.1827 17.94C62.0027 18.08 61.4827 18.02 61.3827 17.94C60.4027 17.2 60.4827 14.86 61.2627 12.92C62.5427 9.74 66.2027 7.76 67.9427 7.76C68.9227 7.76 69.4827 7.92 70.6627 9.22C70.9427 8.98 71.6227 8.34 72.0627 7.86C72.2627 7.66 72.2427 7.9 72.2427 7.9C70.9427 9.52 67.6627 14.48 67.7627 16.14C67.7827 16.48 68.0827 16.86 68.4827 16.98C68.9827 16.76 70.0827 16.06 70.8827 15.22L71.0027 15.36C70.2627 16.08 69.1027 17.18 67.8427 17.94C67.6427 18.06 66.8027 18 66.7227 17.92C66.3027 17.44 66.1027 16.72 66.0827 16.32ZM62.6427 16.94C63.6027 16.68 67.3627 12.96 69.5827 10.28C68.2827 8.64 67.5827 8.24 66.7827 8.24C65.3827 8.24 63.5227 10.22 62.7427 12.66C62.1027 14.64 62.1027 16.32 62.6427 16.94ZM95.8455 15.78C94.3255 17.64 91.5255 19.82 89.1255 19.82C83.1655 19.82 81.4455 13.18 85.0055 7.94C86.9255 5.14 91.1655 1.44 96.1055 1.44C98.8055 1.44 100.585 2.76 100.965 3.04C101.245 3.26 100.145 3.96 99.8055 3.96C98.9255 3.96 97.1255 2.12 94.1655 2.12C90.9655 2.12 88.1855 4.54 86.4255 7.28C83.2455 12.34 84.6655 18.74 90.2255 18.74C92.2655 18.74 94.5455 17.1 95.7055 15.64C95.7655 15.56 95.9655 15.64 95.8455 15.78ZM105.261 16.32C105.161 15.08 106.541 13.44 107.221 12.34C105.481 14.22 103.041 16.5 101.361 17.94C101.181 18.08 100.661 18.02 100.561 17.94C99.5808 17.2 99.6608 14.86 100.441 12.92C101.721 9.74 105.381 7.76 107.121 7.76C108.101 7.76 108.661 7.92 109.841 9.22C110.121 8.98 110.801 8.34 111.241 7.86C111.441 7.66 111.421 7.9 111.421 7.9C110.121 9.52 106.841 14.48 106.941 16.14C106.961 16.48 107.261 16.86 107.661 16.98C108.161 16.76 109.261 16.06 110.061 15.22L110.181 15.36C109.441 16.08 108.281 17.18 107.021 17.94C106.821 18.06 105.981 18 105.901 17.92C105.481 17.44 105.281 16.72 105.261 16.32ZM101.821 16.94C102.781 16.68 106.541 12.96 108.761 10.28C107.461 8.64 106.761 8.24 105.961 8.24C104.561 8.24 102.701 10.22 101.921 12.66C101.281 14.64 101.281 16.32 101.821 16.94ZM114.358 17.92C113.938 17.94 112.758 18.22 113.158 17.1C114.338 15.48 116.958 11.4 116.858 9.74C116.838 9.4 116.638 9.02 116.218 8.9C115.658 9.04 114.658 9.68 113.878 10.52L113.738 10.38C114.478 9.66 115.738 8.58 116.978 7.88C117.918 7.36 118.398 9.06 118.438 9.72C118.478 10.24 118.238 10.94 117.898 11.68C119.478 9.62 120.838 8.06 122.158 7.82C122.838 7.76 124.178 7.8 124.238 7.94C124.198 8.38 123.338 9.34 122.978 9.42C122.418 9.4 121.718 9.16 120.698 9.18C118.938 9.7 117.518 12.88 114.358 17.92ZM130.503 9.72C130.523 10.26 129.643 11.78 128.963 13C128.143 14.48 127.463 15.5 127.223 16.2C127.183 16.68 127.643 16.94 128.023 17.04C129.023 17.04 131.943 14.2 134.283 10.88C135.003 9.86 135.583 8.6 135.943 8.04C136.583 7.86 137.783 7.56 137.343 8.68C136.263 10.22 133.443 14.72 133.343 16.2C133.323 16.54 133.743 16.88 134.143 17C134.783 16.78 135.823 16.06 136.563 15.3L136.683 15.44C135.943 16.16 134.843 17.18 133.583 17.94C133.383 18.06 132.563 18 132.463 17.92C131.963 17.54 131.743 16.74 131.703 16.34C131.623 15.52 132.903 13.44 133.743 11.98C131.463 14.92 128.463 17.8 127.123 18.06C126.723 18 125.743 17.64 125.523 16.74C125.443 16.08 126.563 14.6 127.583 12.74C128.283 11.46 128.903 10.38 128.863 9.64C128.843 9.32 128.623 9.02 128.203 8.9C127.643 9.04 126.643 9.68 125.863 10.52L125.723 10.38C126.463 9.66 127.723 8.58 128.963 7.88C129.903 7.36 130.463 9.06 130.503 9.72ZM145.591 16.32C145.491 15.08 146.871 13.44 147.551 12.34C145.811 14.22 143.371 16.5 141.691 17.94C141.511 18.08 140.991 18.02 140.891 17.94C139.911 17.2 139.991 14.86 140.771 12.92C142.051 9.74 145.711 7.76 147.451 7.76C148.431 7.76 148.991 7.92 150.171 9.22C150.451 8.98 151.131 8.34 151.571 7.86C151.771 7.66 151.751 7.9 151.751 7.9C150.451 9.52 147.171 14.48 147.271 16.14C147.291 16.48 147.591 16.86 147.991 16.98C148.491 16.76 149.591 16.06 150.391 15.22L150.511 15.36C149.771 16.08 148.611 17.18 147.351 17.94C147.151 18.06 146.311 18 146.231 17.92C145.811 17.44 145.611 16.72 145.591 16.32ZM142.151 16.94C143.111 16.68 146.871 12.96 149.091 10.28C147.791 8.64 147.091 8.24 146.291 8.24C144.891 8.24 143.031 10.22 142.251 12.66C141.611 14.64 141.611 16.32 142.151 16.94ZM154.689 17.92C154.269 17.94 153.089 18.22 153.489 17.1C154.669 15.48 157.289 11.4 157.189 9.74C157.169 9.4 156.969 9.02 156.549 8.9C155.989 9.04 154.989 9.68 154.209 10.52L154.069 10.38C154.809 9.66 156.069 8.58 157.309 7.88C158.249 7.36 158.729 9.06 158.769 9.72C158.849 10.76 157.809 12.54 157.069 13.84C159.369 10.92 162.849 8.14 164.229 7.74C165.469 8.02 165.449 9.44 163.349 12.96C162.629 14.24 161.809 15.46 161.849 16.2C161.869 16.54 162.029 16.88 162.429 17C163.069 16.78 164.109 16.06 164.849 15.3L164.969 15.44C164.229 16.16 163.129 17.18 161.869 17.94C161.669 18.06 161.069 18 160.969 17.92C160.469 17.54 160.229 16.74 160.209 16.34C160.149 15.52 161.309 13.86 162.009 12.66C163.689 9.78 163.609 9.2 163.149 8.76C161.969 9.12 158.849 11.56 156.569 14.88C155.889 15.9 155.109 17.22 154.689 17.92ZM173.976 16.32C173.876 15.08 175.256 13.44 175.936 12.34C174.196 14.22 171.756 16.5 170.076 17.94C169.896 18.08 169.376 18.02 169.276 17.94C168.296 17.2 168.376 14.86 169.156 12.92C170.436 9.74 174.096 7.76 175.836 7.76C176.816 7.76 177.376 7.92 178.556 9.22C178.836 8.98 179.516 8.34 179.956 7.86C180.156 7.66 180.136 7.9 180.136 7.9C178.836 9.52 175.556 14.48 175.656 16.14C175.676 16.48 175.976 16.86 176.376 16.98C176.876 16.76 177.976 16.06 178.776 15.22L178.896 15.36C178.156 16.08 176.996 17.18 175.736 17.94C175.536 18.06 174.696 18 174.616 17.92C174.196 17.44 173.996 16.72 173.976 16.32ZM170.536 16.94C171.496 16.68 175.256 12.96 177.476 10.28C176.176 8.64 175.476 8.24 174.676 8.24C173.276 8.24 171.416 10.22 170.636 12.66C169.996 14.64 169.996 16.32 170.536 16.94Z" fill="#E6A912"/>
</svg>
