<svg width="285" height="27" viewBox="0 0 285 27" fill="none" xmlns="http://www.w3.org/2000/svg">
<path d="M0.66 21V1.12H12.14V3.584H3.208V9.604H10.46V12.068H3.208V18.536H12.14V21H0.66ZM26.1691 21V19.432C25.0771 20.776 23.4811 21.224 21.8571 21.224C18.6651 21.224 16.4531 19.012 16.4531 15.54V7H18.8611V15.4C18.8611 17.444 20.2051 18.956 22.3611 18.956C24.2931 18.956 25.6091 17.92 26.1691 16.156V7H28.5771V21H26.1691ZM40.4252 21.224C36.2812 21.224 33.2292 18.032 33.2292 14C33.2292 9.968 36.2812 6.776 40.4252 6.776C42.7492 6.776 44.5412 7.728 45.7732 8.988L44.2332 10.668C43.3372 9.772 42.0772 9.044 40.4252 9.044C37.6812 9.044 35.7212 11.228 35.7212 14C35.7212 16.772 37.6812 18.956 40.4252 18.956C42.0772 18.956 43.3372 18.228 44.2332 17.332L45.7732 19.012C44.5412 20.272 42.7492 21.224 40.4252 21.224ZM50.0461 21V1.12H52.4541V21H50.0461ZM58.0633 3.948C57.7273 3.64 57.5313 3.192 57.5313 2.66C57.5313 1.68 58.2873 0.895998 59.2673 0.895998C60.2473 0.895998 61.0033 1.68 61.0033 2.66C61.0033 3.192 60.8073 3.64 60.4713 3.948H58.0633ZM58.0633 21V7H60.4713V21H58.0633ZM79.1565 21H76.7485V19.6C75.6005 20.664 74.0325 21.224 72.2965 21.224C68.1805 21.224 65.1565 18.06 65.1565 14C65.1565 9.94 68.1805 6.776 72.2965 6.776C74.0325 6.776 75.6005 7.336 76.7485 8.4V1.12H79.1565V21ZM72.3525 9.044C69.6085 9.044 67.6485 11.228 67.6485 14C67.6485 16.772 69.6085 18.956 72.3525 18.956C74.3685 18.956 75.9645 18.004 76.7485 16.688V11.312C75.9645 9.996 74.3685 9.044 72.3525 9.044ZM93.7217 21V1.12H104.866V3.584H96.2697V9.604H102.99V12.068H96.2697V21H93.7217ZM109.027 21V1.12H111.435V21H109.027ZM123.288 21.224C119.144 21.224 116.092 18.032 116.092 14C116.092 9.94 119.2 6.776 123.12 6.776C127.32 6.776 129.952 9.996 129.952 14.588H118.584C118.836 17.276 120.908 18.956 123.288 18.956C125.052 18.956 126.48 18.172 127.376 17.276L128.916 18.956C127.712 20.216 125.724 21.224 123.288 21.224ZM122.98 8.988C121.244 8.988 119.284 10.024 118.724 12.488H127.236C126.9 10.192 125.108 8.96 122.98 8.988ZM132.073 21L137.533 13.888L132.353 7H135.125L139.017 12.152L142.853 7H145.625L140.445 13.888L145.905 21H143.105L138.989 15.568L134.873 21H132.073ZM155.718 21L165.35 1.12H167.618L157.986 21H155.718ZM179.811 21V1.12H185.719C189.611 1.12 192.103 3.332 192.103 6.72C192.103 9.044 190.843 11.48 187.371 12.152L194.259 21H191.179L184.543 12.32H182.359V21H179.811ZM182.359 10.052H185.551C188.155 10.052 189.471 8.82 189.471 6.776C189.471 4.704 188.155 3.472 185.551 3.472H182.359V10.052ZM203.711 21.224C199.567 21.224 196.515 18.032 196.515 14C196.515 9.94 199.623 6.776 203.543 6.776C207.743 6.776 210.375 9.996 210.375 14.588H199.007C199.259 17.276 201.331 18.956 203.711 18.956C205.475 18.956 206.903 18.172 207.799 17.276L209.339 18.956C208.135 20.216 206.147 21.224 203.711 21.224ZM203.403 8.988C201.667 8.988 199.707 10.024 199.147 12.488H207.659C207.323 10.192 205.531 8.96 203.403 8.988ZM220.857 26.432C218.841 26.432 216.573 25.872 214.893 24.78L216.153 22.736C217.329 23.604 219.093 24.192 220.941 24.192C223.377 24.192 225.645 23.296 225.645 20.664C225.645 20.188 225.533 19.404 225.281 18.9C224.161 19.992 222.621 20.58 220.829 20.58C216.685 20.58 213.913 17.584 213.913 13.692C213.913 9.772 216.685 6.776 220.829 6.776C222.593 6.776 224.049 7.364 225.197 8.428V7H227.605V18.144C227.969 19.096 228.137 20.076 228.137 20.888C228.137 24.92 224.441 26.432 220.857 26.432ZM220.885 18.34C222.873 18.34 224.441 17.36 225.197 16.044V11.312C224.441 9.996 222.873 9.044 220.885 9.044C218.225 9.044 216.405 11.032 216.405 13.692C216.405 16.324 218.225 18.34 220.885 18.34ZM242.874 21V19.432C241.782 20.776 240.186 21.224 238.562 21.224C235.37 21.224 233.158 19.012 233.158 15.54V7H235.566V15.4C235.566 17.444 236.91 18.956 239.066 18.956C240.998 18.956 242.314 17.92 242.874 16.156V7H245.282V21H242.874ZM250.886 21V1.12H253.294V21H250.886ZM269.571 21V19.6C268.395 20.664 266.827 21.224 265.119 21.224C261.003 21.224 257.979 18.06 257.979 14C257.979 9.94 261.003 6.776 265.119 6.776C266.827 6.776 268.395 7.336 269.571 8.4V7H271.979V21H269.571ZM265.175 18.956C267.191 18.956 268.759 18.004 269.571 16.688V11.312C268.759 9.996 267.191 9.044 265.175 9.044C262.431 9.044 260.471 11.228 260.471 14C260.471 16.772 262.431 18.956 265.175 18.956ZM277.584 21V7H279.992V8.652C280.944 7.448 282.288 6.86 283.856 6.86C284.192 6.86 284.528 6.888 284.836 6.944V9.436C284.444 9.324 283.996 9.268 283.492 9.268C281.98 9.268 280.608 10.024 279.992 11.48V21H277.584Z" fill="#FEFEFE"/>
</svg>
