<svg width="426" height="68" viewBox="0 0 426 68" fill="none" xmlns="http://www.w3.org/2000/svg">
<path d="M0.86 15L7.78 0.639999L14.7 15H12.74L10.98 11.28H4.58L2.82 15H0.86ZM5.38 9.6H10.18L7.78 4.52L5.38 9.6ZM24.577 15V14C23.737 14.76 22.617 15.16 21.397 15.16C18.457 15.16 16.297 12.9 16.297 10C16.297 7.1 18.457 4.84 21.397 4.84C22.617 4.84 23.737 5.24 24.577 6V5H26.297V15H24.577ZM21.437 13.54C22.877 13.54 23.997 12.86 24.577 11.92V8.08C23.997 7.14 22.877 6.46 21.437 6.46C19.477 6.46 18.077 8.02 18.077 10C18.077 11.98 19.477 13.54 21.437 13.54ZM36.7008 15V0.799999H41.4408C44.1808 0.799999 45.6208 2.5 45.6208 4.5C45.6208 5.94 45.0608 6.84 44.1408 7.46C45.5408 8 46.5608 9.08 46.5608 11C46.5608 13.58 44.5808 15 41.6608 15H36.7008ZM38.5208 6.92H41.4008C42.9008 6.92 43.8008 5.96 43.8008 4.7C43.8008 3.5 42.9008 2.48 41.4008 2.48H38.5208V6.92ZM38.5208 13.32H41.8808C43.8008 13.32 44.7208 12.3 44.7208 10.92C44.7208 9.54 43.8008 8.48 41.8808 8.48H38.5208V13.32ZM49.9375 15V0.799999H51.6575V6C52.4775 5.24 53.5975 4.84 54.8375 4.84C57.7775 4.84 59.9375 7.1 59.9375 10C59.9375 12.9 57.7775 15.16 54.8375 15.16C53.5975 15.16 52.4775 14.76 51.6575 14V15H49.9375ZM54.7975 6.46C53.3575 6.46 52.2175 7.14 51.6575 8.08V11.92C52.2175 12.86 53.3575 13.54 54.7975 13.54C56.7575 13.54 58.1575 11.98 58.1575 10C58.1575 8.02 56.7575 6.46 54.7975 6.46ZM75.9613 15.16C71.9013 15.16 68.7013 12.02 68.7013 7.9C68.7013 3.78 71.9013 0.639999 75.9613 0.639999C78.4613 0.639999 80.5613 1.86 81.6413 3.34L80.3413 4.48C79.4013 3.22 77.8413 2.38 75.9613 2.38C72.8613 2.38 70.5613 4.78 70.5613 7.9C70.5613 11.02 72.8613 13.42 75.9613 13.42C77.8413 13.42 79.4013 12.58 80.3413 11.32L81.6413 12.46C80.5613 13.94 78.4613 15.16 75.9613 15.16ZM89.1748 15.16C86.2148 15.16 84.0348 12.88 84.0348 10C84.0348 7.12 86.2148 4.84 89.1748 4.84C90.8348 4.84 92.1148 5.52 92.9948 6.42L91.8948 7.62C91.2548 6.98 90.3548 6.46 89.1748 6.46C87.2148 6.46 85.8148 8.02 85.8148 10C85.8148 11.98 87.2148 13.54 89.1748 13.54C90.3548 13.54 91.2548 13.02 91.8948 12.38L92.9948 13.58C92.1148 14.48 90.8348 15.16 89.1748 15.16ZM102.447 15V0.799999H106.667C111.047 0.799999 114.247 3.84 114.247 7.9C114.247 11.96 111.047 15 106.667 15H102.447ZM104.267 13.3H106.667C110.107 13.3 112.387 11 112.387 7.9C112.387 4.8 110.107 2.5 106.667 2.5H104.267V13.3ZM127.016 15H125.296V14C124.476 14.76 123.356 15.16 122.116 15.16C119.176 15.16 117.016 12.9 117.016 10C117.016 7.1 119.176 4.84 122.116 4.84C123.356 4.84 124.476 5.24 125.296 6V0.799999H127.016V15ZM122.156 6.46C120.196 6.46 118.796 8.02 118.796 10C118.796 11.98 120.196 13.54 122.156 13.54C123.596 13.54 124.736 12.86 125.296 11.92V8.08C124.736 7.14 123.596 6.46 122.156 6.46ZM137.42 15V0.799999H145.62V2.56H139.24V6.86H144.42V8.62H139.24V13.24H145.62V15H137.42ZM153.28 15.16C150.32 15.16 148.14 12.88 148.14 10C148.14 7.1 150.36 4.84 153.16 4.84C156.16 4.84 158.04 7.14 158.04 10.42H149.92C150.1 12.34 151.58 13.54 153.28 13.54C154.54 13.54 155.56 12.98 156.2 12.34L157.3 13.54C156.44 14.44 155.02 15.16 153.28 15.16ZM153.06 6.42C151.82 6.42 150.42 7.16 150.02 8.92H156.1C155.86 7.28 154.58 6.4 153.06 6.42ZM167.607 15V0.799999H175.567V2.56H169.427V6.86H174.227V8.62H169.427V15H167.607ZM179.299 15V6.56H177.579V5H179.259C178.799 4.56 178.519 3.92 178.519 3.24C178.519 1.84 179.679 0.799999 181.439 0.799999H183.799V2.36H181.719C180.859 2.36 180.199 2.76 180.199 3.62C180.199 4.5 180.919 4.96 181.579 5H183.799V6.56H181.019V15H179.299ZM198.743 15.16C194.683 15.16 191.483 12.02 191.483 7.9C191.483 3.78 194.683 0.639999 198.743 0.639999C200.943 0.639999 202.983 1.62 204.103 2.94L202.803 4.1C201.843 3.06 200.463 2.38 198.743 2.38C195.643 2.38 193.343 4.78 193.343 7.9C193.343 11.02 195.643 13.42 198.743 13.42C200.323 13.42 201.623 12.94 202.363 12.36V8.62H198.003L198.783 6.86H204.183V13.2C203.323 14.2 201.203 15.16 198.743 15.16ZM212.226 18.88C210.786 18.88 209.166 18.48 207.966 17.7L208.866 16.24C209.706 16.86 210.966 17.28 212.286 17.28C214.026 17.28 215.646 16.64 215.646 14.76C215.646 14.42 215.566 13.86 215.386 13.5C214.586 14.28 213.486 14.7 212.206 14.7C209.246 14.7 207.266 12.56 207.266 9.78C207.266 6.98 209.246 4.84 212.206 4.84C213.466 4.84 214.506 5.26 215.326 6.02V5H217.046V12.96C217.306 13.64 217.426 14.34 217.426 14.92C217.426 17.8 214.786 18.88 212.226 18.88ZM212.246 13.1C213.666 13.1 214.786 12.4 215.326 11.46V8.08C214.786 7.14 213.666 6.46 212.246 6.46C210.346 6.46 209.046 7.88 209.046 9.78C209.046 11.66 210.346 13.1 212.246 13.1ZM227.533 15V0.799999H229.353V6.86H237.193V0.799999H239.013V15H237.193V8.62H229.353V15H227.533ZM243.406 15V0.799999H245.126V6.14C245.886 5.18 247.066 4.84 248.226 4.84C250.486 4.84 252.086 6.42 252.086 8.9V15H250.366V9C250.366 7.54 249.406 6.46 247.846 6.46C246.446 6.46 245.486 7.24 245.126 8.54V15H243.406ZM262.369 15V0.799999H264.189V15H262.369ZM268.594 2.82C268.354 2.6 268.214 2.28 268.214 1.9C268.214 1.2 268.754 0.639999 269.454 0.639999C270.154 0.639999 270.694 1.2 270.694 1.9C270.694 2.28 270.554 2.6 270.314 2.82H268.594ZM268.594 15V5H270.314V15H268.594ZM282.755 15.16C280.475 15.16 278.615 13.7 278.615 11.04H280.435C280.435 12.66 281.475 13.42 282.735 13.42C284.075 13.42 285.075 12.66 285.075 11.04V0.799999H286.895V11.16C286.895 13.82 284.975 15.16 282.755 15.16ZM291.324 2.82C291.084 2.6 290.944 2.28 290.944 1.9C290.944 1.2 291.484 0.639999 292.184 0.639999C292.884 0.639999 293.424 1.2 293.424 1.9C293.424 2.28 293.284 2.6 293.044 2.82H291.324ZM289.244 18.68V17.12H289.844C290.944 17.12 291.324 16.54 291.324 15.52V5H293.044V15.78C293.044 17.68 291.944 18.68 290.024 18.68H289.244ZM303.447 15V0.799999H305.267V7.92L311.747 0.799999H313.987L307.427 8.02L314.527 15H312.107L305.267 8.26V15H303.447ZM316.859 15V0.799999H318.579V9.52L322.999 5H325.259L320.619 9.7L325.719 15H323.399L318.579 10V15H316.859ZM334.162 15V0.799999H335.982V13.22H342.202V15H334.162ZM345.055 15V0.799999H346.775V15H345.055ZM357.181 15V0.639999L364.101 8.26L371.021 0.639999V15H369.201V5.12L364.101 10.82L359.001 5.12V15H357.181ZM381.878 15V9C381.878 7.54 381.018 6.46 379.578 6.46C378.418 6.46 377.538 7.16 377.138 8.34V15H375.418V5H377.138V6.1C377.878 5.18 378.958 4.84 379.958 4.84C381.438 4.84 382.398 5.54 382.978 6.48C383.758 5.38 385.018 4.84 386.318 4.84C388.598 4.84 390.038 6.42 390.038 8.9V15H388.318V9C388.318 7.54 387.478 6.46 386.038 6.46C384.938 6.46 384.038 7.04 383.578 8.48C383.598 8.62 383.598 8.76 383.598 8.9V15H381.878ZM412.258 15.16L402.138 4.9V15H400.318V0.639999L410.438 10.9V0.799999H412.258V15.16ZM416.66 15V5H418.38V6.14C419.14 5.18 420.32 4.84 421.48 4.84C423.74 4.84 425.34 6.42 425.34 8.9V15H423.62V9C423.62 7.54 422.66 6.46 421.1 6.46C419.7 6.46 418.74 7.24 418.38 8.54V15H416.66ZM9.18 40.16C5.12 40.16 1.92 37.02 1.92 32.9C1.92 28.78 5.12 25.64 9.18 25.64C13.24 25.64 16.44 28.78 16.44 32.9C16.44 37.02 13.24 40.16 9.18 40.16ZM9.18 38.42C12.28 38.42 14.58 36.02 14.58 32.9C14.58 29.78 12.28 27.38 9.18 27.38C6.08 27.38 3.78 29.78 3.78 32.9C3.78 36.02 6.08 38.42 9.18 38.42ZM24.3872 40.16C21.3672 40.16 19.1872 37.88 19.1872 35C19.1872 32.12 21.3672 29.84 24.3872 29.84C27.3872 29.84 29.5672 32.12 29.5672 35C29.5672 37.88 27.3872 40.16 24.3872 40.16ZM24.3872 38.54C26.4272 38.54 27.7872 36.98 27.7872 35C27.7872 33.02 26.4272 31.46 24.3872 31.46C22.3472 31.46 20.9672 33.02 20.9672 35C20.9672 36.98 22.3472 38.54 24.3872 38.54ZM39.2984 40V25.8H43.3184C46.2984 25.8 48.2384 27.46 48.2384 30.14C48.2384 32.78 46.2984 34.48 43.3184 34.48H41.1184V40H39.2984ZM41.1184 32.8H43.2584C45.2984 32.8 46.3784 31.82 46.3784 30.14C46.3784 28.48 45.2984 27.48 43.2584 27.48H41.1184V32.8ZM51.2852 30H53.0052V31C53.8252 30.24 54.9452 29.84 56.1852 29.84C59.1252 29.84 61.2852 32.1 61.2852 35C61.2852 37.9 59.1252 40.16 56.1852 40.16C54.9452 40.16 53.8252 39.76 53.0052 39V43.68H51.2852V30ZM56.1452 38.54C58.1052 38.54 59.5052 36.98 59.5052 35C59.5052 33.02 58.1052 31.46 56.1452 31.46C54.7052 31.46 53.5652 32.14 53.0052 33.08V36.92C53.5652 37.86 54.7052 38.54 56.1452 38.54ZM77.3089 40.16C73.2489 40.16 70.0489 37.02 70.0489 32.9C70.0489 28.78 73.2489 25.64 77.3089 25.64C81.3689 25.64 84.5689 28.78 84.5689 32.9C84.5689 34.54 84.0489 36.04 83.1889 37.24L85.0089 38.92L83.8489 40.16L82.0289 38.48C80.7689 39.54 79.1289 40.16 77.3089 40.16ZM77.3089 38.42C78.6289 38.42 79.7889 37.98 80.7089 37.26L78.8489 35.54L80.0089 34.3L81.8289 35.98C82.3889 35.12 82.7089 34.06 82.7089 32.9C82.7089 29.78 80.4089 27.38 77.3089 27.38C74.2089 27.38 71.9089 29.78 71.9089 32.9C71.9089 36.02 74.2089 38.42 77.3089 38.42ZM97.6681 30V43.68H95.9481V39C95.1281 39.76 94.0081 40.16 92.7681 40.16C89.8281 40.16 87.6681 37.9 87.6681 35C87.6681 32.1 89.8281 29.84 92.7681 29.84C94.0081 29.84 95.1281 30.24 95.9481 31V30H97.6681ZM92.8081 38.54C94.2481 38.54 95.3881 37.86 95.9481 36.92V33.08C95.3881 32.14 94.2481 31.46 92.8081 31.46C90.8481 31.46 89.4481 33.02 89.4481 35C89.4481 36.98 90.8481 38.54 92.8081 38.54ZM108.072 40V25.8H112.292C115.072 25.8 116.852 27.38 116.852 29.8C116.852 31.46 115.952 33.2 113.472 33.68L118.392 40H116.192L111.452 33.8H109.892V40H108.072ZM109.892 32.18H112.172C114.032 32.18 114.972 31.3 114.972 29.84C114.972 28.36 114.032 27.48 112.172 27.48H109.892V32.18ZM121.055 40V30H122.775V31.18C123.455 30.32 124.415 29.9 125.535 29.9C125.775 29.9 126.015 29.92 126.235 29.96V31.74C125.955 31.66 125.635 31.62 125.275 31.62C124.195 31.62 123.215 32.16 122.775 33.2V40H121.055ZM138.299 40.16C136.239 40.16 134.519 39.16 133.679 37.96L135.059 36.76C135.739 37.64 136.899 38.42 138.279 38.42C139.919 38.42 140.959 37.66 140.959 36.42C140.959 35.12 140.159 34.44 138.639 33.78L137.339 33.22C135.179 32.3 134.239 30.98 134.239 29.2C134.239 27.04 136.279 25.64 138.379 25.64C140.039 25.64 141.399 26.3 142.359 27.46L141.079 28.74C140.339 27.86 139.559 27.38 138.319 27.38C137.119 27.38 136.059 28.06 136.059 29.24C136.059 30.28 136.659 30.98 138.159 31.64L139.459 32.2C141.379 33.04 142.799 34.22 142.799 36.22C142.799 38.54 141.079 40.16 138.299 40.16ZM148.745 40.16C147.265 40.16 146.005 39.5 145.205 38.16L146.565 37.24C147.085 38.12 147.725 38.62 148.785 38.62C149.765 38.62 150.565 38.12 150.565 37.36C150.565 36.6 150.045 36.18 148.865 35.76L148.085 35.46C146.325 34.8 145.705 33.7 145.705 32.5C145.705 31 147.005 29.84 148.825 29.84C150.105 29.84 151.205 30.42 151.825 31.64L150.485 32.42C150.165 31.76 149.605 31.38 148.825 31.38C148.065 31.38 147.405 31.78 147.405 32.48C147.405 33.1 147.705 33.58 148.865 34L149.685 34.3C151.385 34.92 152.285 35.82 152.285 37.3C152.285 38.9 150.925 40.16 148.745 40.16ZM163.66 40V27.56H159.64V25.8H169.52V27.56H165.48V40H163.66ZM175.246 40C173.326 40 172.226 39 172.226 37.1V31.56H170.626L170.246 30H172.226V27.86L173.946 27V30H176.966L176.586 31.56H173.946V36.84C173.946 37.86 174.326 38.44 175.426 38.44H176.766V40H175.246ZM191.751 40.16C188.451 40.16 186.091 38.08 186.091 34.6V25.8H187.911V34.68C187.911 37.14 189.471 38.42 191.751 38.42C194.031 38.42 195.591 37.14 195.591 34.68V25.8H197.411V34.6C197.411 38.08 195.071 40.16 191.751 40.16ZM208.261 40V38.88C207.481 39.84 206.341 40.16 205.181 40.16C202.901 40.16 201.321 38.58 201.321 36.1V30H203.041V36C203.041 37.46 204.001 38.54 205.541 38.54C206.921 38.54 207.861 37.8 208.261 36.54V30H209.981V40H208.261ZM224.38 40.16L217.82 25.8H219.82L224.38 35.98L228.92 25.8H230.92L224.38 40.16ZM237.009 40.16L231.729 30H233.669L237.009 36.76L240.369 30H242.309L237.009 40.16ZM253.204 40.16L248.324 25.8H250.204L253.344 35.28L257.044 25.64L260.764 35.28L263.904 25.8H265.784L260.904 40.16L257.044 30.16L253.204 40.16ZM270.318 40L267.158 30H268.938L271.178 37.28L273.938 29.84L276.698 37.28L278.938 30H280.718L277.558 40H276.178L273.938 33.92L271.718 40H270.318ZM287.397 40L292.517 32.76L287.657 25.8H289.757L293.657 31.38L297.557 25.8H299.657L294.837 32.76L299.937 40H297.877L293.677 34.1L289.517 40H287.397ZM301.251 40L305.151 34.92L301.451 30H303.431L306.211 33.68L308.951 30H310.931L307.231 34.92L311.131 40H309.131L306.191 36.12L303.251 40H301.251ZM323.001 40V33.98L317.801 25.8H319.921L323.921 32.18L327.921 25.8H330.041L324.841 33.98V40H323.001ZM332.48 43.68L334.54 39.16L330.46 30H332.32L335.44 37.28L338.58 30H340.44L334.3 43.68H332.48ZM347.285 40L355.185 27.56H348.145V25.8H358.305L350.405 38.24H358.345V40H347.285ZM360.281 40L366.121 31.56H360.921V30H369.141L363.321 38.44H368.941V40H360.281ZM9.24 65.16C5.18 65.16 1.96 61.98 1.96 57.9C1.96 53.82 5.18 50.64 9.24 50.64C13.3 50.64 16.52 53.82 16.52 57.9C16.52 61.98 13.3 65.16 9.24 65.16ZM9.24 63.58C12.44 63.58 14.78 61.1 14.78 57.9C14.78 54.7 12.44 52.22 9.24 52.22C6.04 52.22 3.72 54.7 3.72 57.9C3.72 61.1 6.04 63.58 9.24 63.58ZM20.3044 65V52.36L22.0244 50.64V65H20.3044ZM25.4736 65L30.9736 59.02C30.6136 59.08 30.4736 59.08 30.3136 59.08C27.8936 59.02 26.1936 57.16 26.1936 54.9C26.1936 52.5 28.0736 50.64 30.4936 50.64C32.9136 50.64 34.8136 52.5 34.8136 54.9C34.8136 56.58 34.0736 57.9 32.3536 59.76L29.0736 63.4H34.8136V65H25.4736ZM30.4936 57.58C32.0136 57.58 33.1136 56.44 33.1136 54.9C33.1136 53.38 32.0136 52.22 30.4936 52.22C28.9536 52.22 27.8936 53.38 27.8936 54.9C27.8936 56.44 28.9536 57.58 30.4936 57.58ZM41.6497 65.16C39.9897 65.16 38.3897 64.3 37.5697 62.98L38.8897 61.96C39.3697 62.86 40.3897 63.58 41.6297 63.58C43.3897 63.58 44.7097 62.36 44.7097 60.5C44.7097 58.66 43.4697 57.34 41.5297 57.34H40.2697L43.1297 52.4H38.1497V50.8H45.7897L42.8297 55.94C45.2697 56.48 46.4697 58.46 46.4697 60.5C46.4697 63.1 44.5297 65.16 41.6497 65.16ZM56.6575 65V61.08H48.6375L58.3575 50.64V59.48H60.2175V61.08H58.3575V65H56.6575ZM52.1375 59.48H56.6575V54.62L52.1375 59.48ZM67.0952 65.16C65.3952 65.16 63.7552 64.3 62.9552 62.98L64.2952 61.94C64.7552 62.84 65.8152 63.58 67.0552 63.58C68.8152 63.58 70.0952 62.3 70.0952 60.54C70.0952 58.76 68.8752 57.42 66.9752 57.42C65.8952 57.42 65.1752 58.02 64.7552 58.52L63.5752 58.02V50.8H70.7352V52.4H65.2952V56.24C65.9352 55.98 66.5352 55.86 67.0352 55.86C70.0352 55.86 71.8352 57.96 71.8352 60.54C71.8352 63.1 69.9152 65.16 67.0952 65.16ZM79.1616 65.16C76.5216 65.16 74.4616 63.1 74.4616 60.54C74.4616 59.56 74.8216 58.68 75.2816 57.9L79.5216 50.8H81.5016L78.3416 56.04C78.7016 55.94 78.9416 55.92 79.2616 55.92C81.7616 55.92 83.8816 58 83.8816 60.54C83.8816 63.1 81.8016 65.16 79.1616 65.16ZM79.1616 63.58C80.9216 63.58 82.1216 62.22 82.1216 60.54C82.1216 58.86 80.9216 57.5 79.1616 57.5C77.4216 57.5 76.2016 58.86 76.2016 60.54C76.2016 62.22 77.4216 63.58 79.1616 63.58ZM86.4684 65L92.5084 52.4H85.7884V50.8H95.0884L88.2884 65H86.4684ZM101.238 65.16C98.7183 65.16 96.6783 63.22 96.6783 60.6C96.6783 58.92 97.5183 57.52 98.7983 56.72C98.1383 56.1 97.7183 55.2 97.7183 54.16C97.7183 52.12 99.2983 50.64 101.238 50.64C103.178 50.64 104.758 52.12 104.758 54.16C104.758 55.2 104.338 56.1 103.678 56.72C104.938 57.52 105.798 58.92 105.798 60.6C105.798 63.22 103.758 65.16 101.238 65.16ZM101.238 52.26C100.238 52.26 99.4183 53.06 99.4183 54.16C99.4183 55.26 100.238 56.06 101.238 56.06C102.238 56.06 103.058 55.26 103.058 54.16C103.058 53.06 102.238 52.26 101.238 52.26ZM101.238 63.54C102.798 63.54 104.018 62.26 104.018 60.6C104.018 58.94 102.798 57.66 101.238 57.66C99.6783 57.66 98.4583 58.94 98.4583 60.6C98.4583 62.26 99.6783 63.54 101.238 63.54ZM110.714 65.02L113.874 59.78C113.514 59.88 113.274 59.9 112.954 59.9C110.454 59.9 108.334 57.82 108.334 55.28C108.334 52.72 110.414 50.64 113.054 50.64C115.694 50.64 117.754 52.72 117.754 55.28C117.754 56.26 117.374 57.14 116.914 57.92L112.674 65.02H110.714ZM113.054 58.32C114.794 58.32 116.014 56.96 116.014 55.28C116.014 53.6 114.794 52.22 113.054 52.22C111.294 52.22 110.094 53.6 110.094 55.28C110.094 56.96 111.294 58.32 113.054 58.32ZM121.733 60.6L121.413 56.66V50.8H123.153V56.66L122.833 60.6H121.733ZM122.253 65.16C121.453 65.16 120.793 64.5 120.793 63.68C120.793 63.16 121.053 62.7 121.473 62.44H123.073C123.473 62.7 123.753 63.16 123.753 63.68C123.753 64.5 123.093 65.16 122.253 65.16ZM133.805 65.16C129.485 65.16 126.825 62.12 126.825 58.26C126.825 53.7 130.505 50.64 134.565 50.64C138.445 50.64 141.405 53.06 141.405 56.88C141.405 60.36 139.605 61.74 137.765 61.74C136.985 61.74 136.205 61.36 135.805 60.68C135.165 61.28 134.285 61.7 133.145 61.7C131.225 61.7 129.985 60.14 129.985 58.26C129.985 55.84 131.825 53.88 134.325 53.88C135.285 53.88 136.005 54.16 136.525 54.64L136.645 54.08H138.085L137.065 58.86C136.885 59.74 137.145 60.44 138.005 60.44C139.065 60.44 140.045 59.18 140.045 56.84C140.045 53.72 137.665 51.9 134.545 51.9C131.125 51.9 128.225 54.4 128.225 58.26C128.225 61.42 130.285 63.84 133.805 63.84C135.005 63.84 136.405 63.58 137.485 63.02L137.985 64.28C136.745 64.84 135.105 65.16 133.805 65.16ZM131.525 58.12C131.525 59.54 132.325 60.38 133.485 60.38C134.225 60.38 135.085 60.06 135.545 59.22C135.545 59.16 135.565 59.08 135.585 59L136.205 56.12C135.765 55.48 134.965 55.2 134.245 55.2C132.805 55.2 131.525 56.42 131.525 58.12ZM146.34 65H144.76L146.02 61H143.7V59.54H146.46L147.54 56.12H145.16V54.66H148L149.2 50.8H150.78L149.58 54.66H153.2L154.4 50.8H155.98L154.78 54.66H157.1V56.12H154.32L153.24 59.54H155.66V61H152.8L151.54 65H149.96L151.22 61H147.6L146.34 65ZM148.04 59.54H151.66L152.74 56.12H149.12L148.04 59.54ZM163.226 66.76V65.1C161.366 64.9 160.066 63.92 159.406 62.96L160.666 61.9C161.326 62.8 162.506 63.58 163.946 63.58C165.666 63.58 166.706 62.66 166.706 61.42C166.706 60.14 165.786 59.56 164.306 58.82L163.006 58.18C160.886 57.14 159.966 55.98 159.966 54.2C159.966 52.52 161.206 51.04 163.226 50.72V49.04H164.886V50.72C166.446 50.92 167.306 51.68 167.986 52.46L166.806 53.56C166.086 52.7 165.266 52.22 164.046 52.22C162.666 52.22 161.646 53.06 161.646 54.18C161.646 55.28 162.346 55.88 163.826 56.6L165.126 57.24C167.006 58.16 168.426 59.22 168.426 61.22C168.426 63.08 167.306 64.74 164.886 65.08V66.76H163.226ZM174.415 56.26C172.855 56.26 171.575 55.04 171.575 53.46C171.575 51.88 172.855 50.66 174.415 50.66C176.015 50.66 177.315 51.88 177.315 53.46C177.315 55.04 176.015 56.26 174.415 56.26ZM174.415 54.96C175.315 54.96 175.895 54.28 175.895 53.46C175.895 52.64 175.315 51.98 174.415 51.98C173.575 51.98 172.975 52.64 172.975 53.46C172.975 54.28 173.575 54.96 174.415 54.96ZM171.615 58.66V57.2H177.415V58.66H171.615ZM174.415 65.14C172.855 65.14 171.575 63.92 171.575 62.34C171.575 60.76 172.855 59.54 174.415 59.54C176.015 59.54 177.315 60.76 177.315 62.34C177.315 63.92 176.015 65.14 174.415 65.14ZM174.415 63.84C175.315 63.84 175.895 63.16 175.895 62.34C175.895 61.52 175.315 60.84 174.415 60.84C173.575 60.84 172.975 61.52 172.975 62.34C172.975 63.16 173.575 63.84 174.415 63.84ZM184.75 65.16C182.15 65.16 180.25 63.18 180.25 60.7C180.25 58.24 182.15 56.24 184.75 56.24C185.05 56.24 185.29 56.26 185.59 56.32L182.73 50.8H189.91V52.36H185.35L191.95 65H190.07L188.73 62.48C187.95 64.32 186.51 65.16 184.75 65.16ZM184.75 63.58C186.35 63.58 187.55 62.38 187.55 60.7C187.55 59.02 186.35 57.82 184.75 57.82C183.15 57.82 181.95 59.02 181.95 60.7C181.95 62.38 183.15 63.58 184.75 63.58ZM193.378 65L200.258 50.8H201.878L194.998 65H193.378ZM206.492 67.84C205.052 64.92 204.332 62.54 204.332 58.98C204.332 55.42 205.052 53.04 206.492 50.12L207.852 50.7C206.512 53.52 205.872 56 205.872 58.98C205.872 61.96 206.512 64.44 207.852 67.26L206.492 67.84ZM211.607 67.84L210.247 67.26C211.587 64.44 212.227 61.96 212.227 58.98C212.227 56 211.587 53.52 210.247 50.7L211.607 50.12C213.047 53.04 213.767 55.42 213.767 58.98C213.767 62.54 213.047 64.92 211.607 67.84ZM217.222 58V56.6H226.102V58H217.222ZM217.222 62.38V60.98H226.102V62.38H217.222ZM232.319 59.16V57.58H233.519C235.039 57.58 236.139 56.42 236.139 54.9C236.139 53.38 235.039 52.22 233.519 52.22C231.979 52.22 230.919 53.38 230.919 54.9H229.219C229.219 52.5 231.099 50.64 233.519 50.64C235.939 50.64 237.839 52.5 237.839 54.9C237.839 57.3 235.939 59.16 233.519 59.16H232.319ZM233.579 65.16C232.779 65.16 232.119 64.5 232.119 63.68C232.119 63.16 232.379 62.7 232.799 62.44H234.399C234.799 62.7 235.079 63.16 235.079 63.68C235.079 64.5 234.419 65.16 233.579 65.16ZM242.672 57.48L241.572 56.72L243.132 54.62L240.632 53.78L241.032 52.5L243.552 53.34V50.8H244.872V53.34L247.412 52.5L247.812 53.78L245.292 54.6L246.852 56.72L245.792 57.5L244.212 55.38L242.672 57.48Z" fill="#D7D7D7"/>
</svg>
