<svg width="203" height="36" viewBox="0 0 203 36" fill="none" xmlns="http://www.w3.org/2000/svg">
<path d="M0.375977 14.928C0.375977 8.23999 5.71998 3.50399 11.736 3.50399C17.752 3.50399 23 8.33599 23 14.928C23 21.488 17.56 26.32 11.544 26.32C5.52798 26.32 0.375977 21.488 0.375977 14.928ZM3.25598 14.928C3.25598 21.488 6.19998 26 11.416 26C16.632 26 20.152 21.488 20.152 14.928C20.152 8.33599 17.08 3.82399 11.864 3.82399C6.61598 3.82399 3.25598 8.33599 3.25598 14.928Z" fill="#FEFEFE"/>
<path d="M41.0425 10.512C40.0825 10.512 37.0745 9.93599 34.8025 9.93599V9.99999C38.0985 10.448 39.9865 12.592 39.9865 15.472C39.9865 18.864 37.1065 20.976 33.2345 20.976H32.6585C30.7385 21.104 28.8825 21.648 28.8825 22.704C28.8825 23.92 30.3545 24.08 33.1385 24.08H35.9865C39.5385 24.08 41.1385 25.872 41.1385 27.76C41.1385 31.664 35.8905 35.632 31.1545 35.6C27.2825 35.632 25.9065 33.936 25.9065 31.664C25.9065 29.2 28.6905 27.024 31.2505 26.128C28.6905 26.032 27.1865 25.52 27.1865 23.952C27.1865 22.544 29.1385 21.232 31.7305 20.848C29.0105 20.368 27.2185 18.576 27.2185 15.536C27.2185 12.272 30.1625 9.74399 33.9065 9.74399C37.0425 9.74399 40.7865 8.52799 41.5545 8.52799C41.8745 8.52799 42.4825 8.62399 42.4825 9.00799C42.4825 9.55199 41.9065 10.512 41.0425 10.512ZM56.4985 10.512C55.5385 10.512 52.5305 9.93599 50.2585 9.93599V9.99999C53.5545 10.448 55.4425 12.592 55.4425 15.472C55.4425 18.864 52.5625 20.976 48.6905 20.976H48.1145C46.1945 21.104 44.3385 21.648 44.3385 22.704C44.3385 23.92 45.8105 24.08 48.5945 24.08H51.9865C56.2105 24.08 57.5865 25.936 57.5865 27.728C57.5865 32.016 52.0185 35.6 47.4745 35.568C44.3705 35.6 42.5785 34.096 42.5785 31.632C42.5785 29.168 45.3625 27.024 47.9545 26.128H47.7945C44.7545 26.128 42.6425 25.648 42.6425 23.952C42.6425 22.544 44.5945 21.232 47.1865 20.848C44.4665 20.368 42.6745 18.576 42.6745 15.536C42.6745 12.272 45.6185 9.74399 49.3625 9.74399C52.4985 9.74399 56.2425 8.52799 57.0105 8.52799C57.3305 8.52799 57.9385 8.62399 57.9385 9.00799C57.9385 9.55199 57.3625 10.512 56.4985 10.512ZM33.0745 33.84H33.2025C37.6185 33.84 40.2105 31.632 40.2105 29.136C40.2105 27.088 38.5785 26.128 34.8665 26.128H31.9545C29.2025 26.96 27.3145 28.624 27.3145 30.416C27.3145 32.688 29.5225 33.84 33.0745 33.84ZM49.3625 33.808H49.5225C53.3625 33.808 56.6585 31.984 56.6585 29.104C56.6585 27.056 55.0585 26.128 50.6745 26.128H48.6585C45.8745 26.928 43.9865 28.592 43.9865 30.384C43.9865 32.656 46.0025 33.808 49.3625 33.808ZM33.5865 20.656C36.1785 20.656 37.6185 18.832 37.6185 15.472C37.6185 12.752 36.2425 10.064 33.7145 10.064C30.9625 10.064 29.6185 11.792 29.6185 15.184C29.6185 18.288 30.9305 20.656 33.5865 20.656ZM49.0425 20.656C51.6345 20.656 53.0745 18.832 53.0745 15.472C53.0745 12.752 51.6985 10.064 49.1705 10.064C46.4185 10.064 45.0745 11.792 45.0745 15.184C45.0745 18.288 46.3865 20.656 49.0425 20.656Z" fill="#FEFEFE"/>
<path d="M76.7847 18.096C74.6727 23.248 72.1447 29.424 70.1287 34.672C69.5847 34.832 69.6167 34.896 69.2327 34.64C71.6647 29.328 74.1927 23.184 76.3687 17.968C78.4487 12.784 81.4247 5.35999 83.1527 0.975988C83.6647 0.84799 83.6327 0.879989 84.0487 1.10399C81.8407 5.67999 78.8647 12.944 76.7847 18.096Z" fill="#FEFEFE"/>
<path d="M99.474 25.936C98.994 25.936 96.21 26 95.954 26C95.698 26 95.698 25.712 95.954 25.712C96.754 25.712 97.234 25.68 97.426 25.648C97.874 25.2 98.002 24.496 98.066 22.768C98.13 21.008 98.162 17.84 98.162 16.368V12.112C98.162 4.23999 98.002 4.11199 96.434 4.11199H95.858C95.602 4.11199 95.602 3.82399 95.858 3.82399C96.754 3.82399 98.93 3.91999 99.41 3.91999C99.858 3.91999 102.802 3.82399 103.346 3.82399C108.85 3.82399 111.538 5.67999 111.538 9.07199C111.538 11.792 108.178 13.648 104.722 14.256C107.442 14.32 108.562 15.312 110.642 19.504C113.298 25.136 113.906 25.712 115.858 25.712H116.082C116.37 25.712 116.402 26 116.082 26H114.93C113.81 26 113.202 26.128 112.722 26.128C112.018 26.128 111.602 25.936 111.09 25.36C110.418 24.592 109.522 23.088 108.434 20.528C106.034 14.992 105.106 14.544 101.906 14.48H100.594V17.712C100.594 25.584 100.754 25.712 102.322 25.712H102.962C103.218 25.712 103.218 26 102.962 26C102.066 26 99.922 25.936 99.474 25.936ZM100.594 8.94399V14.16C101.202 14.128 102.034 14.128 103.282 14.128C105.746 14.128 108.69 12.688 108.69 9.07199C108.69 5.74399 107.09 4.11199 103.09 4.11199H101.842C100.658 4.11199 100.594 4.23999 100.594 8.94399Z" fill="#FEFEFE"/>
<path d="M125.344 26.32C120.832 26.32 117.408 23.152 117.408 18.32C117.408 13.712 120.928 9.67999 125.856 9.67999C130.368 9.67999 133.728 12.848 133.728 17.776C133.728 21.904 130.176 26.32 125.344 26.32ZM125.888 25.968C129.28 25.968 131.136 23.024 131.136 18.288C131.136 14.288 128.992 9.99999 125.472 9.99999C121.728 9.99999 120.064 13.104 120.064 17.776C120.064 21.712 122.176 25.968 125.888 25.968Z" fill="#FEFEFE"/>
<path d="M137.282 26C137.026 26 137.026 25.712 137.282 25.712C138.722 25.712 138.786 25.616 138.786 22.192V13.936C138.786 13.008 138.05 12.176 137.314 11.504C137.218 11.408 137.25 11.344 137.314 11.312C137.89 11.088 139.106 10.512 139.65 9.96799C139.714 9.90399 139.746 9.90399 139.842 9.99999C140.418 10.576 141.09 11.856 141.122 13.2C142.69 10.992 144.354 9.67999 146.818 9.67999C148.738 9.67999 150.818 10.48 151.682 13.296C153.314 11.056 154.978 9.67999 157.474 9.67999C160.258 9.67999 162.818 11.152 162.818 16.176V24.4C162.818 25.616 162.882 25.744 164.45 25.712C164.706 25.712 164.706 26 164.45 26C164.194 26 162.018 25.936 161.506 25.936C161.026 25.936 159.138 26 158.21 26C157.954 26 157.954 25.712 158.21 25.712C160.386 25.712 160.418 25.648 160.418 22.256V15.856C160.418 11.888 158.37 10.64 156.418 10.64C154.05 10.64 152.994 11.984 151.81 13.616V24.4C151.81 25.616 152.162 25.744 153.73 25.712C153.986 25.712 153.986 26 153.73 26C153.474 26 151.17 25.936 150.658 25.936C150.178 25.936 148.386 26 147.458 26C147.202 26 147.202 25.712 147.458 25.712C149.442 25.712 149.41 25.648 149.41 22.256V15.856C149.41 11.888 147.714 10.64 145.762 10.64C143.746 10.64 142.594 11.536 141.154 13.552V25.712H143.042C143.298 25.712 143.298 26 143.042 26C142.786 26 140.93 25.936 140.418 25.936C139.938 25.936 138.21 26 137.282 26Z" fill="#FEFEFE"/>
<path d="M171.542 26.352C168.982 26.352 167.574 24.72 167.574 22.768C167.574 20.624 169.654 18.512 175.574 16.208L178.23 15.184C178.102 11.184 177.078 9.96799 174.806 9.96799C171.99 9.96799 171.382 12.496 170.678 13.52C170.39 13.936 170.102 14.096 169.238 14.096C168.47 14.096 167.958 13.808 167.958 13.36C167.958 12.976 168.278 12.368 169.078 11.856C170.358 11.024 173.046 9.67999 175.318 9.67999C178.454 9.67999 180.726 11.312 180.726 15.504C180.726 17.648 180.47 21.264 180.47 22.512C180.47 24.336 180.694 25.232 181.366 25.232C181.942 25.232 182.742 24.112 183.094 23.472C183.254 23.216 183.638 23.472 183.478 23.728C182.966 24.464 180.95 26.32 179.702 26.32C178.486 26.32 177.878 25.488 177.878 24.048C177.878 23.216 177.942 22.096 178.006 21.424C177.142 22.896 173.782 26.352 171.542 26.352ZM169.814 21.84C169.814 23.568 171.574 24.944 173.142 24.944C174.934 24.944 177.782 21.744 178.07 20.688C178.102 20.272 178.262 18.704 178.262 16.08V15.408L175.638 16.528C170.934 18.512 169.814 19.472 169.814 21.84Z" fill="#FEFEFE"/>
<path d="M200.427 16.176V22.864C200.427 25.68 200.875 25.744 201.963 25.712C202.219 25.712 202.219 26 201.963 26C201.707 26 199.627 25.936 199.115 25.936C198.635 25.936 197.323 26 196.395 26C196.139 26 196.139 25.712 196.395 25.712C197.707 25.712 198.059 25.488 198.059 22.672L198.027 15.856C197.995 11.888 196.107 10.64 194.155 10.64C192.139 10.64 190.827 11.536 189.323 13.552V25.712H190.987C191.243 25.712 191.243 26 190.987 26C190.731 26 189.067 25.936 188.555 25.936C188.075 25.936 186.411 26 185.483 26C185.227 26 185.227 25.712 185.483 25.712C186.859 25.712 186.923 25.328 186.923 22.192V13.936C186.923 13.008 186.187 12.176 185.451 11.504C185.355 11.408 185.387 11.344 185.451 11.312C186.027 11.088 187.243 10.512 187.787 9.96799C187.851 9.90399 187.883 9.90399 187.979 9.99999C188.555 10.576 189.227 11.856 189.291 13.168C190.923 10.992 192.747 9.67999 195.211 9.67999C198.091 9.67999 200.427 11.152 200.427 16.176Z" fill="#FEFEFE"/>
</svg>
