<svg width="435" height="85" viewBox="0 0 435 85" fill="none" xmlns="http://www.w3.org/2000/svg">
<path d="M10.3 12.04L7.95997 12.1C6.97997 12.1 4.97997 12.06 4.37997 12.04L4.03997 12.88C3.69997 13.72 3.31997 14.98 3.31997 15.86C3.31997 16.5 3.71997 16.84 4.43997 16.84C4.59997 16.84 4.91997 16.78 4.99997 16.78C5.09997 16.78 5.13997 16.82 5.13997 16.88C5.13997 16.94 5.09997 17 4.89997 17C4.53997 17 2.95997 16.96 2.61997 16.96C2.35997 16.96 1.45997 17 0.959966 17C0.879966 17 0.839966 16.96 0.839966 16.9C0.839966 16.86 0.899966 16.82 0.959966 16.82H1.03997C1.59997 16.82 2.05997 16.4 2.47997 15.62C2.97997 14.76 3.47997 13.62 3.79997 12.78L7.65997 3.14001C7.67997 3.10001 7.69997 3.08001 7.79997 3.08001H7.99997C8.11997 3.08001 8.17997 3.10001 8.19997 3.14001L11.84 11.82C13.82 16.5 14.12 16.82 15.08 16.82H15.24C15.34 16.82 15.38 16.86 15.38 16.9C15.38 16.96 15.34 17 15.26 17C14.68 17 13.54 16.94 13.24 16.94C12.94 16.94 11.4 17 10.82 17C10.66 17 10.6 16.82 10.76 16.82H11.18C12.04 16.82 12.2 16.48 10.3 12.04ZM10.2 11.82L7.21997 4.84001L4.43997 11.86L7.83997 11.84H10.2V11.82Z" fill="#D7D7D7"/>
<path d="M19.1434 17.22C17.5434 17.22 16.6634 16.2 16.6634 14.98C16.6634 13.64 17.9634 12.32 21.6634 10.88L23.3234 10.24C23.2434 7.74001 22.6034 6.98001 21.1834 6.98001C19.4234 6.98001 19.0434 8.56001 18.6034 9.20001C18.4234 9.46001 18.2434 9.56001 17.7034 9.56001C17.2234 9.56001 16.9034 9.38001 16.9034 9.10001C16.9034 8.86001 17.1034 8.48001 17.6034 8.16001C18.4034 7.64001 20.0834 6.80001 21.5034 6.80001C23.4634 6.80001 24.8834 7.82001 24.8834 10.44C24.8834 11.78 24.7234 14.04 24.7234 14.82C24.7234 15.96 24.8634 16.52 25.2834 16.52C25.6434 16.52 26.1434 15.82 26.3634 15.42C26.4634 15.26 26.7034 15.42 26.6034 15.58C26.2834 16.04 25.0234 17.2 24.2434 17.2C23.4834 17.2 23.1034 16.68 23.1034 15.78C23.1034 15.26 23.1434 14.56 23.1834 14.14C22.6434 15.06 20.5434 17.22 19.1434 17.22ZM18.0634 14.4C18.0634 15.48 19.1634 16.34 20.1434 16.34C21.2634 16.34 23.0434 14.34 23.2234 13.68C23.2434 13.42 23.3434 12.44 23.3434 10.8V10.38L21.7034 11.08C18.7634 12.32 18.0634 12.92 18.0634 14.4Z" fill="#D7D7D7"/>
<path d="M34.8487 17C34.6887 17 34.6887 16.82 34.8487 16.82H35.2087C36.1887 16.82 36.2887 16.74 36.2887 11.82V8.32001C36.2887 3.40001 36.1887 3.32001 35.2087 3.32001H34.8487C34.6887 3.32001 34.6887 3.14001 34.8487 3.14001C35.4087 3.14001 36.7687 3.20001 37.0687 3.20001C37.3487 3.20001 40.0287 3.14001 40.3887 3.14001C43.7487 3.14001 45.6487 3.94001 45.6487 6.40001C45.6487 8.40001 43.9487 9.42001 41.5687 9.72001C44.1287 9.94001 46.1087 11.06 46.1087 13.22C46.1087 15.6 44.5687 17 40.9087 17C40.5487 17 37.3487 16.94 37.0687 16.94C36.7687 16.94 35.4087 17 34.8487 17ZM38.9087 16.82H40.6087C43.2687 16.82 44.4087 15.64 44.4087 13.22C44.4087 11 43.2887 9.88001 40.4087 9.88001H37.8687V11.82C37.8687 16.74 37.9287 16.82 38.9087 16.82ZM37.8687 8.32001V9.66001H40.1487C42.6287 9.66001 43.9487 8.78001 43.9487 6.38001C43.9487 3.98001 42.6487 3.38001 40.0887 3.38001H38.6487C37.6687 3.38001 37.8687 3.40001 37.8687 8.32001Z" fill="#D7D7D7"/>
<path d="M48.9181 16.84V3.38001C48.9181 1.66001 48.6381 1.84001 47.6381 2.02001C47.4781 2.04001 47.4781 1.86001 47.6381 1.84001C48.6381 1.66001 49.3781 1.12001 50.0581 0.740012C50.1181 0.700011 50.4181 0.780011 50.4181 0.880011V8.96001C51.3581 7.62001 52.8781 6.80001 54.4181 6.80001C56.6981 6.80001 58.6381 8.74001 58.6381 11.5C58.6381 14.8 55.7981 17.2 52.9181 17.2C51.5181 17.2 50.4781 16.56 49.8781 16C49.2381 16.88 49.1181 17.02 49.0181 17.02C48.9581 17.02 48.9181 16.96 48.9181 16.84ZM53.7581 16.76C55.9181 16.76 57.1581 15.16 57.1581 12.22C57.1581 9.88001 55.9181 7.46001 53.4381 7.46001C52.3181 7.46001 51.0981 8.12001 50.4181 9.18001V14.88C51.1381 15.66 52.3181 16.76 53.7581 16.76Z" fill="#D7D7D7"/>
<path d="M70.2459 10.08C70.2459 14.18 72.3459 17 75.9859 17C79.3259 17 80.8859 14.88 81.2059 11.66H81.3659L81.1259 16.32C80.0459 16.8 78.1859 17.2 76.0259 17.2C71.7259 17.2 68.4459 14.18 68.4459 10.08C68.4459 5.90001 71.9859 2.94001 76.1059 2.94001C77.7859 2.94001 80.0059 3.34001 81.0859 3.82001L81.3259 8.18001H81.1459C80.8259 5.00001 79.2459 3.14001 76.1459 3.14001C72.5459 3.14001 70.2459 5.96001 70.2459 10.08Z" fill="#D7D7D7"/>
<path d="M85.6454 11.5C85.6454 14.14 87.5254 16.08 90.2254 16.08C92.1054 16.08 93.4054 15.16 94.4054 13.34C94.4454 13.26 94.5054 13.24 94.5454 13.26C94.5854 13.28 94.6054 13.34 94.5654 13.4C93.4454 15.5 91.3454 17.2 89.1454 17.2C86.3254 17.2 84.3454 15.22 84.3454 12.4C84.3454 9.52001 87.1254 6.80001 90.0454 6.80001C92.0054 6.80001 93.3854 7.60001 93.3854 8.30001C93.3854 8.64001 93.0454 9.12001 92.4054 9.12001C91.5654 9.12001 91.1454 7.24001 89.2054 7.24001C87.2254 7.24001 85.6454 8.78001 85.6454 11.5Z" fill="#D7D7D7"/>
<path d="M114.637 10.08C114.637 5.96001 112.317 3.32001 108.737 3.32001H107.417C106.057 3.32001 106.037 3.42001 106.037 8.32001V13.78C106.037 15.32 105.957 16.38 105.877 16.72C106.357 16.72 107.997 16.8 108.897 16.8C112.517 16.8 114.637 14.18 114.637 10.08ZM116.417 10.08C116.417 14.18 113.157 17 108.857 17C108.177 17 105.757 16.94 105.757 16.94L102.937 17C102.737 17 102.737 16.86 102.937 16.86C104.097 16.86 104.277 16.72 104.437 14.2C104.537 12.82 104.457 10.06 104.457 9.14001C104.457 8.22001 104.397 6.24001 104.397 5.14001C104.397 3.34001 104.357 3.32001 103.077 3.32001C102.917 3.32001 102.917 3.14001 103.077 3.14001C103.237 3.14001 105.217 3.18001 105.517 3.18001C105.817 3.18001 108.197 3.14001 108.777 3.14001C112.897 3.14001 116.417 5.90001 116.417 10.08Z" fill="#D7D7D7"/>
<path d="M127.403 7.74001V3.38001C127.403 1.66001 127.083 1.66001 126.083 1.84001C125.923 1.86001 125.923 1.68001 126.083 1.66001C127.083 1.48001 127.823 1.12001 128.503 0.740012C128.563 0.700011 128.903 0.780011 128.903 0.880011V14.62C128.903 16.58 128.923 16.82 129.923 16.82C130.083 16.82 130.083 17 129.923 17C128.703 17 128.163 17.06 127.503 17.2C127.343 17.24 127.263 17.16 127.263 17.02C127.263 16.9 127.383 16.1 127.403 14.96C126.443 16.36 124.863 17.2 123.303 17.2C121.023 17.2 119.103 15.26 119.103 12.5C119.103 9.20001 121.963 6.80001 124.843 6.80001C125.903 6.80001 126.783 7.26001 127.403 7.74001ZM124.003 7.24001C121.843 7.24001 120.503 8.76001 120.503 11.7C120.503 14.04 121.843 16.54 124.323 16.54C125.543 16.54 126.723 15.76 127.403 14.64V9.22001C126.683 8.46001 125.463 7.24001 124.003 7.24001Z" fill="#D7D7D7"/>
<path d="M141.947 8.32001V9.70001H143.607C146.107 9.70001 146.647 8.78001 146.647 7.40001V6.98001C146.647 6.82001 146.847 6.82001 146.847 6.98001C146.847 7.56001 146.747 9.52001 146.747 9.82001C146.747 10.1 146.847 12.26 146.847 12.56C146.847 12.72 146.647 12.72 146.647 12.56V12.26C146.647 10.88 146.107 9.94001 143.607 9.94001H141.947V13.78C141.947 15.32 141.867 16.38 141.787 16.72C142.367 16.72 144.947 16.78 145.567 16.78C147.887 16.78 149.527 14.78 149.787 12.74L149.907 11.68C149.927 11.56 150.147 11.56 150.127 11.7L150.007 12.78C149.647 16.04 149.527 16.8 149.387 16.92C149.307 17 148.107 17 146.727 17C145.327 17 141.667 16.94 141.667 16.94L138.847 17C138.647 17 138.647 16.86 138.847 16.86C140.007 16.86 140.187 16.72 140.347 14.2C140.447 12.82 140.427 10.16 140.427 8.32001C140.427 3.40001 140.247 3.32001 139.267 3.32001H138.907C138.747 3.32001 138.747 3.14001 138.907 3.14001C139.467 3.14001 140.827 3.20001 141.127 3.20001C141.407 3.20001 147.447 3.14001 148.167 3.14001C148.527 3.14001 148.987 3.16001 149.107 3.22001C149.207 3.28001 149.387 4.74001 149.687 6.90001L149.767 7.62001C149.807 7.76001 149.607 7.74001 149.567 7.62001L149.467 6.90001C149.087 4.66001 147.527 3.40001 145.247 3.38001H142.707C141.787 3.38001 141.947 3.40001 141.947 8.32001Z" fill="#D7D7D7"/>
<path d="M157.669 17.2C154.609 17.2 152.649 15.16 152.649 12.4C152.649 9.40001 155.449 6.80001 158.209 6.80001C161.089 6.80001 161.809 8.58001 161.689 9.50001C161.649 9.84001 161.469 10.12 160.849 10.12H154.009C153.909 10.58 153.849 11.1 153.849 11.66C153.849 14.12 155.989 16.04 158.689 16.04C161.129 16.04 162.609 14.54 163.709 12.16C163.809 11.92 163.949 11.98 163.849 12.2C162.789 14.66 160.689 17.2 157.669 17.2ZM158.969 9.88001C159.249 9.88001 159.709 9.76001 159.769 9.70001C159.889 9.56001 159.949 9.32001 159.949 9.06001C159.949 8.30001 159.189 7.24001 157.649 7.24001C155.929 7.24001 154.569 8.16001 154.049 9.96001C156.309 9.96001 157.669 9.88001 158.969 9.88001Z" fill="#D7D7D7"/>
<path d="M173.133 16.94C172.833 16.94 171.573 17 171.013 17C170.853 17 170.853 16.82 171.013 16.82H171.273C172.253 16.82 172.353 16.74 172.353 11.82V8.32001C172.353 3.40001 172.173 3.32001 171.193 3.32001H170.833C170.673 3.32001 170.673 3.14001 170.833 3.14001C171.393 3.14001 172.153 3.16001 173.573 3.16001C178.533 3.16001 179.893 3.10001 180.453 3.10001C180.873 3.10001 181.293 3.12001 181.513 3.16001C181.593 3.26001 181.633 4.44001 182.033 7.72001L182.193 9.04001C182.213 9.18001 181.993 9.18001 181.973 9.06001L181.813 7.76001C181.453 5.12001 180.013 3.36001 177.753 3.38001H174.633C173.713 3.38001 173.873 3.40001 173.873 8.32001V10.08H175.473C177.973 10.08 178.513 9.02001 178.513 7.46001V7.18001C178.513 7.02001 178.713 7.02001 178.713 7.18001C178.713 7.76001 178.613 9.92001 178.613 10.2C178.613 10.5 178.713 12.94 178.713 13.24C178.713 13.4 178.513 13.4 178.513 13.24V12.92C178.513 11.36 177.973 10.32 175.473 10.32H173.873V11.82C173.873 16.72 173.973 16.82 174.933 16.82H175.673C175.833 16.82 175.833 17 175.673 17C175.113 17 173.413 16.94 173.133 16.94Z" fill="#D7D7D7"/>
<path d="M188.874 7.00001H189.074C189.654 7.00001 189.774 7.00001 189.774 7.04001C189.774 7.16001 189.255 7.66001 188.835 8.12001C188.275 8.12001 187.575 8.10001 186.895 8.10001C186.895 9.94001 186.914 14.8 186.914 14.8C186.934 16.76 187.015 16.82 188.195 16.82C188.355 16.82 188.355 17 188.195 17C187.615 17 186.495 16.96 186.195 16.96C185.895 16.96 184.835 17 184.255 17C184.095 17 184.095 16.82 184.255 16.82C185.395 16.82 185.414 16.58 185.414 14.8C185.414 14.8 185.395 8.38001 185.395 8.30001V8.10001H184.574C184.394 8.10001 184.294 8.08001 184.294 7.98001L184.994 7.02001H185.514C186.134 3.94001 188.814 1.38001 190.994 1.38001C192.014 1.38001 193.035 1.62001 193.035 1.90001C193.035 2.24001 192.594 2.92001 191.954 2.92001C191.294 2.92001 190.274 2.54001 189.074 2.54001C187.714 2.54001 186.915 3.90001 186.895 7.02001C187.515 7.02001 188.154 7.00001 188.874 7.00001Z" fill="#D7D7D7"/>
<path d="M206.544 3.14001C202.884 3.14001 200.644 5.90001 200.644 10.08C200.644 14.18 202.744 17 206.384 17C208.124 17 209.284 16.52 210.404 15.88C210.464 15.76 210.464 15.48 210.464 13.28C210.464 12.28 210.444 11.24 210.424 11.04C210.064 10.94 209.504 10.9 208.864 10.88C207.964 10.84 206.004 10.8 204.524 10.8C204.384 10.8 204.404 10.66 204.544 10.66C206.004 10.66 208.944 10.66 211.864 10.44C211.924 10.44 211.984 10.5 211.984 10.6C211.964 12.5 211.964 14.66 211.964 17.04C211.964 17.16 211.904 17.14 211.804 17.06C211.484 16.8 210.864 16.46 210.564 16.46C209.744 16.46 208.264 17.2 206.424 17.2C202.124 17.2 198.844 14.18 198.844 10.08C198.844 5.90001 202.384 2.94001 206.504 2.94001C208.184 2.94001 210.404 3.34001 211.484 3.82001L211.724 8.08001C211.744 8.24001 211.564 8.28001 211.544 8.10001C211.224 4.80001 209.524 3.14001 206.544 3.14001Z" fill="#D7D7D7"/>
<path d="M223.675 7.32001C223.075 7.32001 221.195 6.96001 219.775 6.96001V7.00001C221.835 7.28001 223.015 8.62001 223.015 10.42C223.015 12.54 221.215 13.86 218.795 13.86H218.435C217.235 13.94 216.075 14.28 216.075 14.94C216.075 15.7 216.995 15.8 218.735 15.8H221.415C223.695 15.8 224.555 16.84 224.555 17.96C224.555 20.52 220.775 23.1 217.635 23.08C215.535 23.1 214.335 21.96 214.335 20.54C214.335 19 216.055 17.64 217.675 17.06C216.075 17 215.015 16.68 215.015 15.72C215.015 14.84 216.235 14.02 217.855 13.78C216.155 13.48 215.035 12.36 215.035 10.46C215.035 8.42001 216.875 6.84001 219.215 6.84001C221.175 6.84001 223.515 6.08001 223.995 6.08001C224.195 6.08001 224.575 6.14001 224.575 6.38001C224.575 6.72001 224.215 7.32001 223.675 7.32001ZM218.835 21.98H218.915C221.435 21.98 223.975 20.62 223.975 18.82C223.975 17.54 222.975 17.08 220.715 17.08H218.115C216.395 17.6 215.215 18.64 215.215 19.76C215.215 21.18 216.555 21.98 218.835 21.98ZM219.015 13.66C220.635 13.66 221.535 12.52 221.535 10.42C221.535 8.72001 220.675 7.04001 219.095 7.04001C217.375 7.04001 216.535 8.12001 216.535 10.24C216.535 12.18 217.355 13.66 219.015 13.66Z" fill="#D7D7D7"/>
<path d="M234.406 11.82V8.32001C234.406 3.40001 234.306 3.32001 233.326 3.32001H233.066C232.906 3.32001 232.906 3.14001 233.066 3.14001C233.626 3.14001 234.886 3.20001 235.186 3.20001C235.466 3.20001 236.846 3.14001 237.406 3.14001C237.566 3.14001 237.566 3.32001 237.406 3.32001H237.006C236.026 3.32001 235.926 3.40001 235.926 8.32001V9.92001L239.606 9.88001L243.166 9.94001V8.32001C243.166 3.40001 243.066 3.32001 242.086 3.32001H241.666C241.506 3.32001 241.506 3.14001 241.666 3.14001C242.246 3.14001 243.606 3.20001 243.906 3.20001C244.206 3.20001 245.486 3.14001 246.066 3.14001C246.226 3.14001 246.226 3.32001 246.066 3.32001H245.746C244.786 3.32001 244.686 3.40001 244.686 8.32001V11.82C244.686 16.74 244.786 16.82 245.746 16.82H246.066C246.226 16.82 246.226 17 246.066 17C245.486 17 244.206 16.94 243.906 16.94C243.606 16.94 242.246 17 241.666 17C241.506 17 241.506 16.82 241.666 16.82H242.086C243.066 16.82 243.166 16.74 243.166 11.82V10.14L239.626 10.16C238.186 10.16 236.686 10.14 235.926 10.12V11.82C235.926 16.74 236.026 16.82 237.006 16.82H237.406C237.566 16.82 237.566 17 237.406 17C236.846 17 235.466 16.94 235.186 16.94C234.886 16.94 233.626 17 233.066 17C232.906 17 232.906 16.82 233.066 16.82H233.326C234.306 16.82 234.406 16.74 234.406 11.82Z" fill="#D7D7D7"/>
<path d="M249.932 16.96C249.632 16.96 248.592 17 248.012 17C247.852 17 247.852 16.82 248.012 16.82C248.872 16.82 248.912 16.58 248.912 14.62V3.38001C248.912 1.66001 248.632 1.64001 247.632 1.82001C247.472 1.84001 247.472 1.66001 247.632 1.64001C248.632 1.46001 249.372 1.12001 250.052 0.740012C250.112 0.700011 250.412 0.780011 250.412 0.880011V8.94001C251.412 7.60001 252.552 6.80001 254.072 6.80001C255.872 6.80001 257.332 7.72001 257.332 10.86V16C257.332 16.76 257.612 16.84 258.292 16.82C258.452 16.82 258.452 17 258.292 17C258.132 17 256.832 16.96 256.512 16.96C256.212 16.96 255.332 17 254.752 17C254.592 17 254.592 16.82 254.752 16.82C255.652 16.82 255.812 16.78 255.812 14.66V10.66C255.812 8.18001 254.632 7.40001 253.412 7.40001C252.172 7.40001 251.332 7.94001 250.412 9.18001V16.82H251.632C251.792 16.82 251.792 17 251.632 17C251.472 17 250.252 16.96 249.932 16.96Z" fill="#D7D7D7"/>
<path d="M268.876 11.82V8.32001C268.876 3.40001 268.776 3.32001 267.796 3.32001H267.376C267.216 3.32001 267.216 3.14001 267.376 3.14001C267.936 3.14001 269.376 3.20001 269.656 3.20001C269.956 3.20001 271.356 3.14001 271.916 3.14001C272.076 3.14001 272.076 3.32001 271.916 3.32001H271.496C270.516 3.32001 270.416 3.40001 270.416 8.32001V11.82C270.416 16.74 270.516 16.82 271.496 16.82H271.916C272.076 16.82 272.076 17 271.916 17C271.356 17 269.956 16.94 269.656 16.94C269.376 16.94 267.936 17 267.376 17C267.216 17 267.216 16.82 267.376 16.82H267.796C268.776 16.82 268.876 16.74 268.876 11.82Z" fill="#D7D7D7"/>
<path d="M274.961 14.8V9.46001C274.961 7.94001 274.681 7.88001 273.681 8.10001C273.521 8.14001 273.461 7.98001 273.621 7.94001C274.621 7.72001 275.341 7.34001 276.121 6.80001C276.181 6.76001 276.481 6.84001 276.481 6.94001V14.8C276.481 16.52 276.561 16.82 277.681 16.82C277.841 16.82 277.841 17 277.681 17C277.101 17 276.061 16.96 275.761 16.96C275.461 16.96 274.321 17 273.741 17C273.581 17 273.581 16.82 273.741 16.82C274.881 16.82 274.961 16.52 274.961 14.8ZM274.601 4.04001C274.601 3.46001 275.061 2.98001 275.641 2.98001C276.221 2.98001 276.701 3.46001 276.701 4.04001C276.701 4.62001 276.221 5.08001 275.641 5.08001C275.061 5.08001 274.601 4.62001 274.601 4.04001Z" fill="#D7D7D7"/>
<path d="M289.905 8.32001V10.62C289.905 11.14 289.924 12.18 289.924 12.74C289.924 16.82 289.004 17.8 286.664 20.08C286.244 20.48 285.265 21.24 284.965 21.24C284.805 21.24 284.624 21.22 284.504 21.2C284.184 21.12 283.965 20.94 283.965 20.74C283.965 20.32 284.185 19.76 284.745 19.6C284.825 19.58 284.965 19.56 285.145 19.56C285.645 19.56 286.204 19.58 286.384 19.58C286.644 19.58 287.025 19.46 287.185 19.28C288.025 18.38 288.344 17.06 288.344 11.82V8.32001C288.344 3.28001 288.304 3.32001 287.264 3.32001H286.745C286.585 3.32001 286.585 3.14001 286.745 3.14001C287.305 3.14001 288.865 3.20001 289.145 3.20001C289.445 3.20001 290.864 3.14001 291.424 3.14001C291.584 3.14001 291.584 3.32001 291.424 3.32001H291.025C289.925 3.32001 289.905 3.34001 289.905 8.32001Z" fill="#D7D7D7"/>
<path d="M295.417 6.94001L295.437 16.02C295.377 17.74 294.557 19.02 293.317 20.54C292.537 21.5 291.817 22.22 291.177 22.22C291.057 22.22 290.917 22.2 290.817 22.18C290.557 22.12 290.377 21.98 290.377 21.82C290.377 21.48 290.757 20.9 291.197 20.78C291.257 20.76 291.377 20.74 291.517 20.74C291.917 20.74 292.337 20.76 292.477 20.76C292.697 20.76 292.997 20.66 293.117 20.52C293.337 20.26 293.937 19.84 293.937 16.56V9.46001C293.937 7.94001 293.617 7.88001 292.617 8.10001C292.457 8.14001 292.397 7.98001 292.557 7.94001C293.557 7.72001 294.277 7.34001 295.057 6.80001C295.117 6.76001 295.417 6.84001 295.417 6.94001ZM293.537 4.04001C293.537 3.46001 293.997 2.98001 294.577 2.98001C295.157 2.98001 295.637 3.46001 295.637 4.04001C295.637 4.62001 295.157 5.08001 294.577 5.08001C293.997 5.08001 293.537 4.62001 293.537 4.04001Z" fill="#D7D7D7"/>
<path d="M309.942 17C309.782 17 308.102 16.96 307.802 16.96C307.502 16.96 305.682 17 305.522 17C305.362 17 305.362 16.82 305.522 16.82C306.022 16.82 306.322 16.8 306.442 16.78C306.722 16.5 306.802 16.06 306.842 14.98C306.882 13.88 306.902 11.9 306.902 10.98V8.32001C306.902 3.40001 306.802 3.32001 305.822 3.32001H305.462C305.302 3.32001 305.302 3.14001 305.462 3.14001C306.022 3.14001 307.422 3.20001 307.722 3.20001C308.002 3.20001 309.322 3.14001 309.882 3.14001C310.042 3.14001 310.042 3.32001 309.882 3.32001H309.522C308.542 3.32001 308.422 3.40001 308.422 8.32001V11.12L312.022 7.24001C313.582 5.56001 314.342 4.36001 314.342 3.80001C314.322 3.48001 314.062 3.30001 313.562 3.30001C313.402 3.30001 313.182 3.38001 313.102 3.38001C313.002 3.38001 312.922 3.32001 312.922 3.26001C312.922 3.20001 312.982 3.14001 313.142 3.14001C313.482 3.14001 315.002 3.18001 315.322 3.18001C315.582 3.18001 316.942 3.14001 317.442 3.14001C317.582 3.14001 317.562 3.32001 317.442 3.32001H317.402C316.002 3.32001 315.322 4.06001 312.202 7.36001L310.282 9.42001C310.662 9.18001 311.122 9.00001 311.682 9.00001C312.342 9.00001 312.582 9.08001 312.922 9.26001C314.162 9.90001 314.442 11.16 315.202 12.94C316.482 16.16 316.982 16.82 318.022 16.82H318.262C318.522 16.82 318.502 17 318.222 17H317.542C316.842 17 316.402 17.08 316.102 17.08C315.662 17.08 315.402 16.96 315.102 16.6C314.722 16.12 314.302 15.16 313.722 13.58C313.102 11.82 312.322 9.40001 311.042 9.40001C310.662 9.40001 310.382 9.42001 309.782 9.94001L308.422 11.4V11.82C308.422 16.74 308.522 16.82 309.502 16.82H309.942C310.102 16.82 310.102 17 309.942 17Z" fill="#D7D7D7"/>
<path d="M330.641 17H328.761C328.501 17 328.241 16.96 328.001 16.8C327.501 16.48 326.961 15.72 326.041 14.14L324.401 11.4L322.341 13.5V16.82H323.561C323.721 16.82 323.721 17 323.561 17C323.401 17 322.181 16.96 321.861 16.96C321.561 16.96 320.521 17 319.941 17C319.781 17 319.781 16.82 319.941 16.82C320.801 16.82 320.841 16.58 320.841 14.62V3.38001C320.841 1.66001 320.561 1.64001 319.561 1.82001C319.401 1.84001 319.401 1.66001 319.561 1.64001C320.561 1.46001 321.301 1.12001 321.981 0.740012C322.041 0.700011 322.341 0.780011 322.341 0.880011V13.26L325.481 10.02C327.221 8.22001 327.141 7.20001 325.981 7.20001C325.841 7.20001 325.841 7.02001 325.981 7.02001C326.521 7.02001 327.721 7.06001 327.981 7.06001C328.261 7.06001 330.021 7.02001 330.161 7.02001C330.301 7.02001 330.301 7.20001 330.161 7.20001C328.901 7.20001 327.521 8.16001 325.621 10.14L325.361 10.4L327.301 13.48C328.901 16.06 329.861 16.82 330.641 16.82C330.801 16.82 330.821 17 330.641 17Z" fill="#D7D7D7"/>
<path d="M342.068 8.32001V13.78C342.068 15.32 341.988 16.38 341.908 16.72C342.488 16.72 345.108 16.78 345.728 16.78C348.048 16.78 349.608 14.24 349.868 12.2L350.068 10.38C350.088 10.26 350.308 10.26 350.288 10.4L350.088 12.24C349.728 15.58 349.568 16.76 349.428 16.88C349.348 16.96 348.148 17 346.768 17C345.368 17 341.788 16.94 341.788 16.94L338.968 17C338.768 17 338.768 16.86 338.968 16.86C340.128 16.86 340.308 16.72 340.468 14.2C340.568 12.82 340.488 10.06 340.488 9.14001C340.488 8.22001 340.428 6.24001 340.428 5.14001C340.428 3.34001 340.388 3.32001 339.108 3.32001C338.948 3.32001 338.948 3.14001 339.108 3.14001C339.268 3.14001 341.248 3.18001 341.548 3.18001C341.848 3.18001 343.428 3.14001 344.008 3.14001C344.168 3.14001 344.168 3.32001 344.008 3.32001H343.448C342.088 3.32001 342.068 3.42001 342.068 8.32001Z" fill="#D7D7D7"/>
<path d="M354.451 16.96C354.151 16.96 353.111 17 352.531 17C352.371 17 352.371 16.82 352.531 16.82C353.391 16.82 353.431 16.58 353.431 14.62V3.38001C353.431 1.66001 353.151 1.64001 352.151 1.82001C351.991 1.84001 351.991 1.66001 352.151 1.64001C353.151 1.46001 353.891 1.12001 354.571 0.740012C354.631 0.700011 354.931 0.780011 354.931 0.880011V14.62C354.931 16.7 355.011 16.82 356.111 16.82C356.271 16.82 356.271 17 356.111 17C355.531 17 354.751 16.96 354.451 16.96Z" fill="#D7D7D7"/>
<path d="M372.599 12.78H372.419C372.359 12.78 372.319 12.74 372.259 12.64L366.759 4.62001L366.739 11.82C366.719 16.74 367.859 16.82 368.839 16.82H369.119C369.259 16.82 369.259 17 369.119 17C368.539 17.02 366.779 16.94 366.479 16.94C366.179 16.94 365.419 17 364.859 17C364.719 17 364.699 16.82 364.879 16.82H364.999C365.899 16.8 366.459 16.56 366.479 11.82C366.479 9.54001 366.499 6.06001 366.499 4.92001C366.499 4.54001 366.399 4.24001 366.239 4.06001C365.899 3.68001 365.439 3.30001 364.939 3.30001H364.839C364.699 3.30001 364.699 3.14001 364.839 3.14001C366.919 3.14001 367.259 3.00001 367.399 3.00001C367.499 3.00001 367.559 3.04001 367.599 3.12001C367.739 3.38001 368.119 3.96001 368.399 4.36001L373.219 11.46L377.279 5.14001C378.199 3.68001 378.479 3.00001 378.859 3.00001C379.159 3.00001 380.839 3.14001 381.179 3.14001C381.339 3.14001 381.339 3.32001 381.179 3.32001H380.879C379.899 3.32001 379.799 3.40001 379.799 8.32001V11.82C379.799 16.74 379.899 16.82 380.879 16.82H381.179C381.339 16.82 381.339 17 381.179 17C380.619 17 379.319 16.94 379.039 16.94C378.739 16.94 377.359 17 376.799 17C376.639 17 376.639 16.82 376.799 16.82H377.199C378.179 16.82 378.279 16.74 378.279 11.82V4.74001C378.279 3.96001 378.079 4.38001 377.499 5.26001L372.779 12.64C372.719 12.74 372.679 12.78 372.599 12.78Z" fill="#D7D7D7"/>
<path d="M383.168 17C383.008 17 383.008 16.82 383.168 16.82C384.068 16.82 384.108 16.76 384.108 14.62V9.46001C384.108 8.88001 383.648 8.36001 383.188 7.94001C383.128 7.88001 383.148 7.84001 383.188 7.82001C383.548 7.68001 384.308 7.32001 384.648 6.98001C384.688 6.94001 384.708 6.94001 384.768 7.00001C385.128 7.36001 385.548 8.16001 385.568 9.00001C386.548 7.62001 387.588 6.80001 389.128 6.80001C390.328 6.80001 391.628 7.30001 392.168 9.06001C393.188 7.66001 394.228 6.80001 395.788 6.80001C397.528 6.80001 399.128 7.72001 399.128 10.86V16C399.128 16.76 399.168 16.84 400.148 16.82C400.308 16.82 400.308 17 400.148 17C399.988 17 398.628 16.96 398.308 16.96C398.008 16.96 396.828 17 396.248 17C396.088 17 396.088 16.82 396.248 16.82C397.608 16.82 397.628 16.78 397.628 14.66V10.66C397.628 8.18001 396.348 7.40001 395.128 7.40001C393.648 7.40001 392.988 8.24001 392.248 9.26001V16C392.248 16.76 392.468 16.84 393.448 16.82C393.608 16.82 393.608 17 393.448 17C393.288 17 391.848 16.96 391.528 16.96C391.228 16.96 390.108 17 389.528 17C389.368 17 389.368 16.82 389.528 16.82C390.768 16.82 390.748 16.78 390.748 14.66V10.66C390.748 8.18001 389.688 7.40001 388.468 7.40001C387.208 7.40001 386.488 7.96001 385.588 9.22001V16.82H386.768C386.928 16.82 386.928 17 386.768 17C386.608 17 385.448 16.96 385.128 16.96C384.828 16.96 383.748 17 383.168 17Z" fill="#D7D7D7"/>
<path d="M408.693 3.30001H408.613C408.473 3.30001 408.473 3.14001 408.613 3.14001C410.693 3.14001 411.453 3.06001 411.593 3.06001C411.693 3.06001 411.753 3.10001 411.793 3.18001C411.933 3.44001 412.253 3.86001 412.573 4.24001L420.893 14.58V8.32001C420.893 3.40001 419.573 3.32001 418.613 3.32001H418.333C418.173 3.32001 418.173 3.14001 418.333 3.14001C418.913 3.14001 420.713 3.20001 421.013 3.20001C421.293 3.20001 421.993 3.14001 422.573 3.14001C422.733 3.14001 422.733 3.32001 422.573 3.32001H422.433C421.453 3.32001 421.153 3.40001 421.153 8.32001V16.86C421.153 16.98 421.133 17.06 420.993 17.06C420.873 17.06 420.653 16.84 420.493 16.62L410.853 4.60001L410.833 11.82C410.833 16.74 411.953 16.82 412.933 16.82H413.213C413.353 16.82 413.353 17 413.213 17C412.633 17.02 410.873 16.94 410.573 16.94C410.273 16.94 409.513 17 408.953 17C408.813 17 408.793 16.82 408.973 16.82H409.093C409.993 16.8 410.553 16.56 410.573 11.82L410.593 4.64001C410.593 4.50001 410.513 4.26001 410.273 4.02001C409.813 3.56001 409.373 3.30001 408.693 3.30001Z" fill="#D7D7D7"/>
<path d="M433.752 10.86V15.04C433.752 16.8 434.032 16.84 434.712 16.82C434.872 16.82 434.872 17 434.712 17C434.552 17 433.252 16.96 432.932 16.96C432.632 16.96 431.812 17 431.232 17C431.072 17 431.072 16.82 431.232 16.82C432.052 16.82 432.272 16.68 432.272 14.92L432.252 10.66C432.232 8.18001 431.052 7.40001 429.832 7.40001C428.572 7.40001 427.752 7.96001 426.812 9.22001V16.82H427.852C428.012 16.82 428.012 17 427.852 17C427.692 17 426.652 16.96 426.332 16.96C426.032 16.96 424.992 17 424.412 17C424.252 17 424.252 16.82 424.412 16.82C425.272 16.82 425.312 16.58 425.312 14.62V9.46001C425.312 8.88001 424.852 8.36001 424.392 7.94001C424.332 7.88001 424.352 7.84001 424.392 7.82001C424.752 7.68001 425.512 7.32001 425.852 6.98001C425.892 6.94001 425.912 6.94001 425.972 7.00001C426.332 7.36001 426.752 8.16001 426.792 8.98001C427.812 7.62001 428.952 6.80001 430.492 6.80001C432.292 6.80001 433.752 7.72001 433.752 10.86Z" fill="#D7D7D7"/>
<path d="M1.85997 41.08C1.85997 36.9 5.19997 33.94 8.95997 33.94C12.72 33.94 16 36.96 16 41.08C16 45.18 12.6 48.2 8.83997 48.2C5.07997 48.2 1.85997 45.18 1.85997 41.08ZM3.65997 41.08C3.65997 45.18 5.49997 48 8.75997 48C12.02 48 14.22 45.18 14.22 41.08C14.22 36.96 12.3 34.14 9.03997 34.14C5.75997 34.14 3.65997 36.96 3.65997 41.08Z" fill="#D7D7D7"/>
<path d="M23.6565 48.2C20.8365 48.2 18.6965 46.22 18.6965 43.2C18.6965 40.32 20.8965 37.8 23.9765 37.8C26.7965 37.8 28.8965 39.78 28.8965 42.86C28.8965 45.44 26.6765 48.2 23.6565 48.2ZM23.9965 47.98C26.1165 47.98 27.2765 46.14 27.2765 43.18C27.2765 40.68 25.9365 38 23.7365 38C21.3965 38 20.3565 39.94 20.3565 42.86C20.3565 45.32 21.6765 47.98 23.9965 47.98Z" fill="#D7D7D7"/>
<path d="M40.6495 47.96C40.3495 47.96 38.3695 48 38.2095 48C38.0495 48 38.0495 47.82 38.2095 47.82C39.1695 47.82 39.4295 47.76 39.1295 47.78C39.4095 47.5 39.4895 47.06 39.5295 45.98C39.5695 44.88 39.5895 42.9 39.5895 41.98V39.32C39.5895 34.4 39.4895 34.32 38.5095 34.32H38.1495C37.9895 34.32 37.9895 34.14 38.1495 34.14C38.7095 34.14 40.0695 34.2 40.3695 34.2C40.6495 34.2 43.5895 34.14 43.9495 34.14C47.1895 34.14 49.2295 35.5 49.2295 37.98C49.2295 40.44 47.1095 42.1 44.0695 42.1C43.0695 42.08 42.0895 42.08 41.1095 42.08V42.8C41.1095 47.7 41.3495 47.82 42.0495 47.82H43.0695C43.2295 47.82 43.2295 48 43.0695 48C42.4895 48 40.9495 47.96 40.6495 47.96ZM41.1095 37.34V41.88H43.6295C46.1095 41.88 47.5095 40.36 47.5095 37.96C47.5095 35.54 46.2095 34.34 43.6495 34.34H41.8895C41.1495 34.34 41.1095 34.4 41.1095 37.34Z" fill="#D7D7D7"/>
<path d="M53.9951 37.86V39.9C54.9351 38.6 56.4351 37.8 57.9551 37.8C60.2351 37.8 62.1751 39.74 62.1751 42.5C62.1751 45.8 59.3351 48.2 56.4551 48.2C55.4351 48.2 54.5951 47.86 53.9751 47.46V53.26H55.3951C55.5551 53.26 55.5551 53.44 55.3951 53.44C55.2351 53.44 53.6551 53.4 53.3351 53.4C53.0351 53.4 51.6151 53.44 51.0351 53.44C50.8751 53.44 50.8751 53.26 51.0351 53.26C52.3951 53.26 52.5151 53.1 52.5151 50.92V40.36C52.5151 38.64 52.1151 38.82 51.1151 39C50.9551 39.02 50.9551 38.84 51.1151 38.82C52.1351 38.7 52.9551 38.1 53.6351 37.72C53.6951 37.68 53.9951 37.76 53.9951 37.86ZM53.9751 45.92C54.7151 46.68 55.8751 47.76 57.2951 47.76C59.4551 47.76 60.6951 46.16 60.6951 43.22C60.6951 40.88 59.4551 38.46 56.9751 38.46C55.8751 38.46 54.6751 39.1 53.9951 40.14C53.9951 41.8 53.9751 43.6 53.9751 45.92Z" fill="#D7D7D7"/>
<path d="M71.9811 40.98C71.9811 36.86 75.3211 33.94 79.0611 33.94C82.8211 33.94 86.1011 36.92 86.1011 40.98C86.1011 44.74 83.1611 47.56 79.7611 47.96C79.7611 50.06 80.0611 51.34 81.7011 51.34C82.3411 51.34 82.8811 50.64 83.3411 49.72C83.4211 49.56 83.6811 49.66 83.5811 49.84C82.9611 50.92 81.8811 51.9 80.5811 51.9C78.8611 51.9 78.0811 50.72 78.0811 47.94C74.7011 47.52 71.9811 44.7 71.9811 40.98ZM73.7811 40.98C73.7811 45.02 75.6211 47.84 78.8811 47.84C82.1211 47.84 84.3211 45.02 84.3211 40.98C84.3211 36.92 82.4011 34.14 79.1411 34.14C75.8811 34.14 73.7811 36.92 73.7811 40.98Z" fill="#D7D7D7"/>
<path d="M98.4976 38.06V50.56C98.4976 52.28 98.7776 52.08 99.7776 51.9C99.9376 51.88 99.9376 52.06 99.7776 52.08C98.7776 52.26 98.0576 52.8 97.3776 53.18C97.3176 53.22 96.9976 53.14 96.9976 53.04V46.1C96.0376 47.42 94.5176 48.2 92.9976 48.2C90.5376 48.2 88.7976 46.32 88.7976 43.5C88.7976 40.2 91.6176 37.8 94.4976 37.8C95.8576 37.8 96.8976 38.44 97.4976 38.98C98.1376 38.08 98.2776 37.92 98.3776 37.92C98.4776 37.92 98.4976 37.94 98.4976 38.06ZM93.6576 38.24C91.4976 38.24 90.1976 39.76 90.1976 42.7C90.1976 44.98 91.6176 47.54 93.9976 47.54C95.1176 47.54 96.3176 46.88 96.9976 45.82V40.12C96.2776 39.36 95.0776 38.24 93.6576 38.24Z" fill="#D7D7D7"/>
<path d="M110.687 47.96C110.387 47.96 108.647 48 108.487 48C108.327 48 108.327 47.82 108.487 47.82C108.987 47.82 109.287 47.8 109.407 47.78C109.687 47.5 109.767 47.06 109.807 45.98C109.847 44.88 109.867 42.9 109.867 41.98V39.32C109.867 34.4 109.767 34.32 108.787 34.32H108.427C108.267 34.32 108.267 34.14 108.427 34.14C108.987 34.14 110.347 34.2 110.647 34.2C110.927 34.2 112.767 34.14 113.107 34.14C116.547 34.14 118.227 35.3 118.227 37.42C118.227 39.12 116.127 40.28 113.967 40.66C115.667 40.7 116.367 41.32 117.667 43.94C119.327 47.46 119.707 47.82 120.927 47.82H121.067C121.247 47.82 121.267 48 121.067 48H120.347C119.647 48 119.267 48.08 118.967 48.08C118.527 48.08 118.267 47.96 117.947 47.6C117.527 47.12 116.967 46.18 116.287 44.58C114.787 41.12 114.207 40.84 112.207 40.8H111.387V42.82C111.387 47.74 111.487 47.82 112.467 47.82H112.867C113.027 47.82 113.027 48 112.867 48C112.307 48 110.967 47.96 110.687 47.96ZM111.387 37.34V40.6C111.767 40.58 112.287 40.58 113.067 40.58C114.607 40.58 116.447 39.68 116.447 37.42C116.447 35.34 115.447 34.32 112.947 34.32H112.167C111.427 34.32 111.387 34.4 111.387 37.34Z" fill="#D7D7D7"/>
<path d="M126.179 38.14C126.519 37.92 126.919 37.8 127.319 37.8C127.799 37.8 128.219 37.9 128.219 38.16C128.219 38.48 127.919 39.2 127.219 39.2H126.479C125.039 39.2 124.899 39.4 124.899 41.12V47.82H126.119C126.279 47.82 126.279 48 126.119 48C125.959 48 124.659 47.96 124.339 47.96C124.039 47.96 122.879 48 122.299 48C122.139 48 122.139 47.82 122.299 47.82C123.279 47.82 123.419 47.7 123.419 45.62V40.46C123.419 39.88 122.959 39.36 122.499 38.94C122.439 38.88 122.459 38.84 122.499 38.82C122.859 38.68 123.539 38.32 123.879 37.98C123.919 37.94 123.939 37.94 123.999 38C124.339 38.32 124.779 39.06 124.859 39.84C125.099 38.96 125.639 38.5 126.179 38.14Z" fill="#D7D7D7"/>
<path d="M142.134 33.94C144.134 33.94 145.354 34.2 146.494 34.46C146.634 34.5 146.694 34.52 146.714 34.68C146.754 35.08 146.594 36.4 146.594 39.56C146.594 39.82 146.394 39.82 146.394 39.56C146.434 36.48 145.874 34.14 142.134 34.14C139.694 34.14 138.714 35.28 138.714 36.8C138.714 38.72 140.774 39.54 142.834 40.42C144.914 41.28 147.014 42.2 147.014 44.36C147.014 46.66 145.054 48.2 142.654 48.2C140.494 48.2 139.414 47.98 137.994 47.6C137.814 47.56 137.794 47.52 137.794 47.4C137.794 46.48 137.774 43.26 137.774 42.28C137.774 42 137.994 42 137.994 42.28C137.994 46 139.334 48 142.654 48C144.854 48 145.814 46.88 145.814 45.3C145.814 43.34 143.814 42.54 141.774 41.68C139.634 40.8 137.454 39.86 137.454 37.74C137.454 35.36 139.594 33.94 142.134 33.94Z" fill="#D7D7D7"/>
<path d="M149.585 40.78C149.585 38.72 151.625 37.8 153.285 37.8C154.925 37.8 155.465 37.96 156.625 38.14C156.745 38.16 156.765 38.22 156.765 38.3C156.765 38.94 156.665 41.1 156.665 41.8C156.665 41.96 156.505 41.96 156.505 41.8C156.505 39.38 155.665 37.96 153.305 37.96C151.665 37.96 150.545 38.66 150.545 39.7C150.545 41.06 152.105 41.58 153.705 42.14C155.385 42.72 157.125 43.34 157.125 45.12C157.125 46.9 155.565 48.2 153.545 48.2C151.485 48.2 150.485 47.7 149.685 47.48C149.585 47.46 149.545 47.38 149.545 47.2C149.545 46.9 149.665 46.46 149.665 43.64C149.665 43.46 149.825 43.46 149.825 43.64C149.825 46.5 150.705 48.02 153.545 48.02C155.485 48.02 156.145 47.12 156.145 46.02C156.145 44.64 154.585 44.12 152.965 43.58C151.285 43.02 149.585 42.38 149.585 40.78Z" fill="#D7D7D7"/>
<path d="M173.223 34.12V42.82C173.223 47.74 173.323 47.82 174.303 47.82H174.663C174.823 47.82 174.823 48 174.663 48C174.103 48 172.743 47.94 172.463 47.94C172.163 47.94 170.803 48 170.243 48C170.083 48 170.083 47.82 170.243 47.82H170.603C171.583 47.82 171.683 47.74 171.683 42.82V34.12C171.123 34.14 170.503 34.14 170.043 34.14C167.903 34.14 167.143 35.62 166.743 38.22L166.583 39.36C166.543 39.48 166.343 39.5 166.383 39.36L166.543 38.22C166.823 36.06 166.643 34.14 166.763 34.08C166.883 34.02 167.823 33.94 169.203 33.94C169.703 33.94 171.563 33.98 172.443 33.98C173.323 33.98 173.643 33.94 175.663 33.94H175.683C177.063 33.94 178.003 34.02 178.123 34.08C178.243 34.14 178.063 36.06 178.363 38.22L178.503 39.36C178.543 39.5 178.363 39.48 178.323 39.36L178.143 38.22C177.743 35.62 176.983 34.14 174.823 34.12H173.223Z" fill="#D7D7D7"/>
<path d="M182.907 36.08V38.02C183.507 38.02 184.947 38.02 185.607 38C186.267 37.98 186.307 38 186.307 38.04C186.307 38.16 185.947 38.56 185.327 39.12C185.167 39.12 183.547 39.1 182.867 39.1V45.38C182.867 46.82 183.327 47.58 184.167 47.58C184.967 47.58 185.747 46.84 186.207 45.5C186.267 45.34 186.547 45.46 186.467 45.62C185.827 46.92 184.667 48.2 183.287 48.2C181.947 48.2 181.367 47.36 181.367 45.44V39.1H180.267C180.247 39.1 180.227 39.04 180.267 39L182.827 36.06C182.867 36.02 182.907 36 182.907 36.08Z" fill="#D7D7D7"/>
<path d="M206.063 43.12V39.32C206.063 34.4 204.803 34.32 203.823 34.32H203.643C203.483 34.32 203.483 34.14 203.643 34.14C204.223 34.14 205.883 34.2 206.183 34.2C206.483 34.2 207.223 34.14 207.783 34.14C207.943 34.14 207.943 34.32 207.783 34.32H207.643C206.683 34.32 206.343 34.4 206.343 39.32V43.12C206.343 45.8 204.483 48.2 201.263 48.2C198.363 48.2 196.483 46.24 196.483 42.96V39.32C196.483 34.4 196.383 34.32 195.423 34.32H195.143C194.983 34.32 194.983 34.14 195.143 34.14C195.703 34.14 196.963 34.2 197.263 34.2C197.543 34.2 198.903 34.14 199.463 34.14C199.623 34.14 199.623 34.32 199.463 34.32H199.103C198.123 34.32 198.023 34.4 198.003 39.32L197.983 42.42C197.983 45.66 199.643 47.56 202.263 47.56C204.403 47.56 206.063 45.6 206.063 43.12Z" fill="#D7D7D7"/>
<path d="M209.973 44.14V40.46C209.973 38.74 209.693 38.78 208.693 38.96C208.533 38.98 208.533 38.8 208.693 38.78C209.693 38.6 210.453 38.26 211.133 37.88C211.193 37.84 211.493 37.92 211.493 38.02V44.34C211.493 46.82 212.633 47.6 213.853 47.6C215.113 47.6 215.933 47.06 216.893 45.78V40.46C216.893 38.74 216.613 38.78 215.613 38.96C215.453 38.98 215.453 38.8 215.613 38.78C216.613 38.6 217.353 38.26 218.033 37.88C218.093 37.84 218.393 37.92 218.393 38.02V45.62C218.393 47.64 218.473 47.82 219.453 47.82C219.573 47.82 219.573 48 219.453 48C218.213 48 217.413 48.14 216.853 48.2C216.693 48.22 216.693 48.14 216.693 48.02C216.693 47.9 216.873 47.14 216.893 46.02C215.873 47.38 214.713 48.2 213.193 48.2C211.393 48.2 209.973 47.28 209.973 44.14Z" fill="#D7D7D7"/>
<path d="M235.677 46.08C235.717 46.08 235.757 46.04 235.777 45.98L238.737 38.26C239.077 37.42 239.457 36.16 239.457 35.28C239.457 34.7 239.037 34.3 238.337 34.3C238.177 34.3 237.857 34.38 237.777 34.38C237.677 34.38 237.637 34.32 237.637 34.26C237.637 34.2 237.677 34.14 237.877 34.14C238.237 34.14 239.817 34.18 240.157 34.18C240.417 34.18 241.317 34.14 241.817 34.14C241.977 34.14 241.917 34.32 241.777 34.32H241.737C241.177 34.32 240.697 34.74 240.297 35.52C239.797 36.38 239.297 37.52 238.957 38.36L235.277 48C235.257 48.04 235.237 48.06 235.137 48.06H234.937C234.817 48.06 234.797 48.04 234.777 48L230.957 38.34C229.277 34.42 229.157 34.32 228.137 34.32H227.977C227.877 34.32 227.837 34.28 227.837 34.24C227.837 34.18 227.877 34.14 227.957 34.14C228.537 34.14 229.637 34.2 229.937 34.2C230.237 34.2 231.777 34.14 232.357 34.14C232.517 34.14 232.577 34.32 232.417 34.32H231.997C230.997 34.32 230.937 34.66 232.637 38.48L235.577 45.98C235.597 46.04 235.637 46.08 235.677 46.08Z" fill="#D7D7D7"/>
<path d="M250.308 41.12L247.388 48.04C247.368 48.08 247.348 48.08 247.308 48.08H246.988C246.948 48.08 246.928 48.08 246.908 48.04L243.708 40.7C242.728 38.44 242.328 38.16 241.488 38.18C241.348 38.18 241.348 38 241.488 38C241.628 38 243.208 38.04 243.488 38.04C243.768 38.04 245.028 38.02 245.528 38.02C245.688 38.02 245.688 38.18 245.528 38.18C244.368 38.18 244.268 38.42 245.028 40.14L247.808 46.54L250.128 41C250.928 39.02 250.528 38.18 249.268 38.2C249.108 38.2 249.108 38.02 249.268 38.02C249.788 38.02 250.788 38.04 251.048 38.04C251.328 38.04 252.608 38 252.748 38C252.888 38 252.888 38.18 252.748 38.18C251.808 38.16 251.108 39.2 250.308 41.12Z" fill="#D7D7D7"/>
<path d="M268.045 46.08L270.345 41L268.785 37.34C267.485 34.38 267.385 34.32 266.385 34.32H266.225C266.125 34.32 266.085 34.28 266.085 34.24C266.085 34.18 266.125 34.14 266.205 34.14C266.785 34.14 267.885 34.2 268.185 34.2C268.485 34.2 269.825 34.14 270.405 34.14C270.565 34.14 270.565 34.32 270.405 34.32H270.245C269.865 34.32 269.565 34.4 269.565 34.82C269.565 35.16 269.605 35.64 270.385 37.56L271.245 39.56L272.065 37.56C272.425 36.72 272.665 35.74 272.665 35.26C272.665 34.62 272.385 34.3 271.965 34.3C271.805 34.3 271.565 34.36 271.485 34.36C271.385 34.36 271.365 34.32 271.365 34.26C271.365 34.2 271.385 34.14 271.585 34.14C271.945 34.14 273.125 34.18 273.445 34.18C273.705 34.18 275.005 34.14 275.485 34.14C275.645 34.14 275.625 34.32 275.485 34.32H274.965C273.965 34.32 273.245 35.28 272.305 37.64L271.365 39.86L274.085 46.18C274.105 46.24 274.145 46.28 274.185 46.28C274.225 46.28 274.245 46.24 274.265 46.18L277.305 38.26C277.625 37.42 278.005 36.18 278.005 35.3C278.005 34.66 277.685 34.3 276.985 34.3C276.825 34.3 276.505 34.38 276.425 34.38C276.325 34.38 276.285 34.32 276.285 34.26C276.285 34.2 276.325 34.14 276.525 34.14C276.885 34.14 278.425 34.18 278.765 34.18C279.025 34.18 279.965 34.14 280.465 34.14C280.625 34.14 280.605 34.32 280.465 34.32H280.405C279.425 34.32 278.625 35.58 277.565 38.36L273.825 48.02C273.805 48.06 273.785 48.08 273.685 48.08H273.485C273.365 48.08 273.365 48.06 273.345 48.02L270.465 41.32L267.465 48C267.445 48.04 267.425 48.06 267.345 48.06H267.185C267.065 48.06 267.045 48.04 267.025 48L263.345 38.3C261.845 34.46 261.645 34.32 260.585 34.32H260.545C260.445 34.32 260.425 34.28 260.425 34.24C260.425 34.18 260.445 34.14 260.525 34.14C261.105 34.14 262.085 34.2 262.385 34.2C262.685 34.2 264.605 34.14 265.185 34.14C265.345 34.14 265.365 34.32 265.205 34.32H264.685C264.065 34.32 263.825 34.54 263.805 34.88C263.805 35.28 264.225 36.62 265.285 39.32L267.865 46.08C267.885 46.14 267.925 46.18 267.965 46.18C268.005 46.18 268.025 46.14 268.045 46.08Z" fill="#D7D7D7"/>
<path d="M291.087 48.04L288.027 40.28L284.767 48.04C284.747 48.08 284.747 48.08 284.707 48.08H284.487C284.447 48.08 284.427 48.08 284.407 48.04L281.727 40.74C280.907 38.42 280.567 38.18 279.547 38.18C279.447 38.18 279.447 38 279.547 38C279.647 38 281.107 38.04 281.347 38.04C281.607 38.04 283.227 38 283.687 38C283.827 38 283.827 38.18 283.687 38.18C282.587 38.18 282.387 38.24 283.067 40.14L285.287 46.18L287.787 40.36C287.847 40.14 287.827 39.96 287.807 39.7C287.787 39.5 287.727 39.22 287.607 38.98C287.367 38.5 286.987 38.18 286.327 38.18C286.187 38.18 286.167 38 286.307 38C286.787 38 287.947 38.04 288.187 38.04C288.447 38.04 289.567 38 290.007 38C290.167 38 290.187 38.18 290.027 38.18C288.947 38.18 288.767 38.24 289.527 40.14L291.947 46.3L294.087 40.98C294.927 38.92 294.087 38.18 292.927 38.18C292.787 38.18 292.767 38 292.907 38C293.387 38 294.727 38.04 294.967 38.04C295.207 38.04 296.647 38 296.787 38C296.907 38 296.927 38.18 296.807 38.18C295.627 38.18 295.147 38.94 294.267 41.12L291.487 48.04C291.467 48.08 291.407 48.08 291.367 48.08H291.167C291.147 48.08 291.107 48.08 291.087 48.04Z" fill="#D7D7D7"/>
<path d="M310.661 37.96L311.961 40.02L313.341 38.12C314.481 36.56 314.941 35.58 314.941 34.9C314.941 34.54 314.681 34.32 314.101 34.32C313.941 34.32 313.541 34.38 313.481 34.38C313.381 34.38 313.361 34.34 313.381 34.28C313.401 34.22 313.461 34.16 313.661 34.16C314.001 34.16 315.821 34.2 316.161 34.2C316.441 34.2 317.341 34.16 317.841 34.16C318.021 34.16 317.981 34.34 317.841 34.34H317.801C317.241 34.34 316.501 34.66 315.881 35.4C315.101 36.22 314.161 37.42 313.561 38.22L312.081 40.22L314.361 43.84C316.781 47.72 317.161 47.84 318.061 47.84H318.241C318.341 47.84 318.401 47.88 318.401 47.92C318.401 47.98 318.361 48.02 318.281 48.02C317.661 48.02 316.501 47.96 316.201 47.96C315.881 47.96 314.261 48.02 313.661 48.02C313.481 48.02 313.401 47.84 313.561 47.84H314.001C315.061 47.84 315.061 47.5 312.561 43.7L311.041 41.28L309.101 43.96C308.281 45.08 307.601 46.36 307.601 46.9C307.601 47.44 308.021 47.86 308.541 47.86C308.881 47.86 309.381 47.76 309.461 47.76C309.561 47.76 309.581 47.84 309.561 47.9C309.541 47.96 309.481 48.02 309.261 48.02C308.881 48.02 306.641 47.98 306.301 47.98C306.021 47.98 305.121 48.02 304.581 48.02C304.421 48.02 304.441 47.84 304.601 47.84H304.741C305.941 47.84 306.901 46.5 308.861 43.84L310.901 41.06L309.221 38.36C306.761 34.46 306.601 34.34 305.541 34.34H305.381C305.261 34.34 305.201 34.3 305.201 34.26C305.201 34.2 305.241 34.16 305.341 34.16C305.941 34.16 307.081 34.22 307.401 34.22C307.701 34.22 309.321 34.16 309.941 34.16C310.101 34.16 310.181 34.34 310.021 34.34H309.581C308.721 34.34 308.441 34.5 310.661 37.96Z" fill="#D7D7D7"/>
<path d="M325.193 42.38L327.133 45.26C328.813 47.76 328.973 47.84 329.893 47.82C330.033 47.82 330.073 48 329.933 48C329.793 48 328.333 47.96 328.073 47.96C327.793 47.96 326.193 48 325.693 48C325.533 48 325.493 47.82 325.653 47.82C326.833 47.82 327.153 47.76 325.853 45.86L324.113 43.3L322.773 45C322.113 45.86 321.813 46.52 321.813 46.98C321.813 47.54 322.193 47.82 322.833 47.82C322.993 47.82 322.993 48 322.833 48C322.333 48 321.173 47.96 320.933 47.96C320.653 47.96 319.513 48 319.373 48C319.233 48 319.233 47.82 319.373 47.82C320.033 47.84 320.973 47.04 322.653 44.86L324.013 43.12L322.413 40.74C320.753 38.24 320.533 38.16 319.613 38.18C319.493 38.18 319.453 38 319.573 38C319.693 38 321.253 38.04 321.533 38.04C321.813 38.04 323.153 38 323.653 38C323.813 38 323.853 38.18 323.693 38.18C322.513 38.18 322.393 38.24 323.673 40.14L325.073 42.22L325.973 41.02C326.753 39.98 327.073 39.26 327.053 38.82C327.033 38.38 326.653 38.2 325.973 38.2C325.833 38.2 325.833 38.02 325.973 38.02C326.513 38.02 327.553 38.06 327.813 38.06C328.093 38.06 329.413 38.02 329.553 38.02C329.693 38.02 329.693 38.2 329.553 38.2C328.593 38.18 327.573 39.22 326.133 41.14L325.193 42.38Z" fill="#D7D7D7"/>
<path d="M347.25 37.82L345.05 41.66V42.82C345.05 47.74 345.15 47.82 346.13 47.82H346.49C346.65 47.82 346.65 48 346.49 48C345.93 48 344.61 47.94 344.31 47.94C344.03 47.94 342.67 48 342.11 48C341.95 48 341.95 47.82 342.11 47.82H342.47C343.45 47.82 343.55 47.74 343.55 42.82V41.72L341.39 37.82C339.85 35.04 339.33 34.32 338.31 34.32H338.15C338.05 34.32 338.01 34.28 338.01 34.24C338.01 34.18 338.05 34.14 338.13 34.14C338.71 34.14 339.81 34.2 340.11 34.2C340.41 34.2 341.95 34.14 342.53 34.14C342.69 34.14 342.75 34.32 342.59 34.32H342.17C341.17 34.32 341.51 35.18 343.01 37.92L344.91 41.42L347.03 37.76C347.49 36.98 348.73 34.3 346.79 34.3C346.63 34.3 346.31 34.38 346.23 34.38C346.13 34.38 346.09 34.32 346.09 34.26C346.09 34.2 346.13 34.14 346.33 34.14C346.69 34.14 348.09 34.18 348.43 34.18C348.69 34.18 350.11 34.14 350.61 34.14C350.77 34.14 350.71 34.32 350.57 34.32H350.53C349.39 34.32 347.67 37.08 347.25 37.82Z" fill="#D7D7D7"/>
<path d="M352.719 50.72C353.719 50.72 354.499 50.42 355.419 48.34L355.639 47.84L352.459 40.8C351.339 38.36 351.079 38.16 350.119 38.18C349.979 38.18 349.979 38 350.119 38C350.279 38 351.799 38.04 352.099 38.04C352.379 38.04 353.699 38 354.239 38C354.399 38 354.399 38.18 354.239 38.18C353.079 38.18 352.919 38.42 353.739 40.2L356.399 46.1L358.639 41.06C359.479 39.14 358.999 38.18 357.719 38.18C357.559 38.18 357.559 38 357.719 38C358.279 38 359.319 38.04 359.599 38.04C359.899 38.04 361.239 38 361.399 38C361.539 38 361.539 38.18 361.399 38.18C360.459 38.16 359.659 39.26 358.819 41.18L355.619 48.38C354.599 50.72 353.379 51.84 351.439 51.84C350.359 51.84 349.779 51.42 349.779 51.06C349.779 50.74 350.239 50.14 350.879 50.14C351.599 50.14 351.979 50.72 352.719 50.72Z" fill="#D7D7D7"/>
<path d="M370.953 37.9L370.753 40.02C370.733 40.16 370.513 40.14 370.513 40L370.733 37.9C370.913 35.74 371.073 34.28 371.173 34.22C371.313 34.16 371.773 34.14 372.133 34.14C372.853 34.14 378.413 34.2 378.693 34.2C378.993 34.2 379.953 34.14 380.513 34.14C380.673 34.14 380.853 34.14 380.733 34.34L371.873 47.72C372.533 47.72 375.753 47.78 376.373 47.78C378.693 47.78 380.253 45.78 380.453 43.74L380.593 41.76C380.613 41.62 380.813 41.64 380.793 41.78L380.673 43.78C380.413 47.04 380.313 47.8 380.193 47.92C380.113 48 378.913 48 377.533 48C376.133 48 372.013 47.94 372.013 47.94L370.053 48.06C369.853 48.06 369.953 47.9 370.053 47.74L378.873 34.38H375.173C372.873 34.4 371.213 35.66 370.953 37.9Z" fill="#D7D7D7"/>
<path d="M383.775 41.86L383.715 43.1C383.715 43.24 383.535 43.24 383.535 43.1L383.595 41.86C383.695 39.54 383.775 38.1 383.815 38.08C383.935 38.02 384.395 38 384.755 38C385.475 38 390.015 38.04 390.315 38.04C390.615 38.04 391.535 37.98 391.815 37.98C391.995 37.98 391.975 38.2 391.815 38.4L384.855 47.76C385.735 47.78 387.255 47.8 387.775 47.8C390.335 47.8 391.595 46.32 391.775 43.94L391.875 42.56C391.875 42.44 392.075 42.44 392.055 42.58L391.955 43.96C391.655 47.22 391.635 47.84 391.555 47.92C391.475 48 391.215 48 389.815 48C388.415 48 385.035 47.96 385.035 47.96L383.355 48C383.195 48 382.995 47.94 383.055 47.82L390.215 38.22H387.615C384.955 38.24 383.895 39.42 383.775 41.86Z" fill="#D7D7D7"/>
<path d="M7.87997 79.2C4.13997 79.2 2.09997 77 2.09997 72.18C2.09997 69.1 3.25997 67.3 4.65997 66.26C5.41997 65.7 7.11997 64.94 8.31997 64.94C12.4 64.94 14.08 67.42 14.08 71.94C14.08 74.88 12.56 77.16 11.3 78.04C10.54 78.58 9.21997 79.2 7.87997 79.2ZM8.61997 78.42C9.57997 78.42 10.7 78.2 11.22 77.94C12.36 76.76 12.64 74.76 12.64 72.06C12.64 67.96 11.12 65.68 7.73997 65.68C6.63997 65.68 5.53997 65.92 4.75997 66.34C3.97997 67.2 3.55997 68.84 3.55997 72C3.55997 75.92 5.15997 78.42 8.61997 78.42Z" fill="#D7D7D7"/>
<path d="M16.7211 78.82C17.9011 78.82 17.9611 78.16 17.9611 75.78V67.88C17.9611 66.72 17.8211 66.38 16.4611 66.84C16.3011 66.9 16.2211 66.7 16.3811 66.64C17.7011 66.2 18.5611 65.46 19.0811 65.04C19.1411 64.98 19.4411 65.08 19.4411 65.18V75.78C19.4411 78.14 19.5011 78.82 20.7411 78.82H21.0811C21.2011 78.82 21.2011 79 21.0811 79C20.5011 79 19.1211 78.92 18.8211 78.92C18.5211 78.92 17.0011 79 16.4211 79C16.3011 79 16.3011 78.82 16.4211 78.82H16.7211Z" fill="#D7D7D7"/>
<path d="M26.5401 79.02C25.2201 79.02 23.3001 79.08 23.0601 79.08C23.0601 79.08 23.0001 78.4 23.1001 78.32C25.0001 76.74 26.2201 75.64 27.4401 74.52C30.1001 72.04 31.3001 70.5 31.3001 68.24C31.3001 66.36 30.3201 65.02 28.1601 65.02C25.1001 65.02 23.9401 66.44 23.9401 71.36C23.9401 71.54 23.7601 71.54 23.7601 71.36C23.7601 69.1 23.3601 66.76 23.3601 66.26C23.3601 66.08 23.3801 65.84 23.5801 65.82C25.1401 65.36 26.5401 64.84 28.4801 64.84C31.2601 64.84 32.9601 66.08 32.9601 68.2C32.9601 70.16 30.4801 72.08 27.5601 74.66C26.5001 75.6 25.4001 76.62 24.2601 77.76C25.7001 77.76 28.7801 77.76 30.3201 77.72C31.9001 77.7 32.8401 77.06 33.1001 75.26L33.3001 73.9C33.3201 73.78 33.5401 73.78 33.5201 73.92L33.3201 75.3C33.0801 77.02 32.8201 78.82 32.7001 78.98C32.6601 79.02 32.4601 79.06 31.8201 79.06C31.3001 79.06 27.4801 79.02 26.5401 79.02Z" fill="#D7D7D7"/>
<path d="M36.1836 78.96C35.9036 78.9 35.9636 78.76 36.1436 78.78C37.0236 78.92 37.8236 78.98 38.5236 78.98C42.1836 78.98 43.5036 77.2 43.5036 74.68C43.5036 73.02 42.2036 71.7 40.7436 71.7C39.4436 71.7 38.4236 73.26 37.9436 73.26C37.4636 73.26 37.7036 72.5 37.7236 72.46C40.6636 71.52 42.6836 69.82 42.6836 67.84C42.6836 66.24 41.8636 65.04 39.8636 65.04C37.7636 65.04 36.1636 66.58 36.1636 70.24C36.1636 70.42 35.9836 70.42 35.9836 70.24C35.9836 67.88 35.8236 66.5 35.8236 66.22C35.8236 66.04 35.8436 65.8 36.0436 65.78C37.7236 65.2 39.4036 64.82 40.5036 64.82C42.7836 64.82 44.3236 65.92 44.3436 67.52C44.3636 69.06 42.2636 70.36 39.9036 71.72C40.5036 71.52 41.0836 71.36 41.6036 71.36C43.6836 71.36 45.1436 72.72 45.1436 74.86C45.1436 77.14 43.5636 79.3 39.8036 79.3C38.8036 79.3 37.1436 79.16 36.1836 78.96Z" fill="#D7D7D7"/>
<path d="M54.2322 73.52H55.7922C57.3122 73.5 58.2522 72.78 58.4922 71.22L58.6122 70.46C58.6322 70.34 58.8322 70.34 58.8122 70.48L58.6922 71.26C58.4522 72.82 58.1922 74.38 58.1322 74.5C58.0922 74.56 57.6322 74.6 56.9922 74.6H54.2322V76.38C54.2322 78.72 54.2322 78.76 56.1922 78.8C56.3122 78.8 56.3122 78.98 56.1922 78.98C55.6122 78.98 53.8722 78.94 53.5722 78.94C53.2722 78.94 51.1522 78.98 50.5722 78.98C50.4522 78.98 50.4522 78.8 50.5722 78.8C52.7722 78.74 52.8722 78.72 52.8722 76.38V74.6H48.5922C48.2722 74.6 47.8922 74.62 47.4522 74.66C47.0522 74.7 47.0522 74.54 47.8322 73.58C50.3722 70.46 51.2722 69.04 53.6522 65.26C53.8122 65 53.9322 64.86 54.1922 64.8C54.9322 64.6 55.2522 64.78 55.0122 65.28C54.7522 65.82 54.2322 66.26 54.2322 67.1V73.52ZM48.1522 73.52H52.8722V67.8C51.2722 69.76 50.1922 71.02 48.1522 73.52Z" fill="#D7D7D7"/>
<path d="M69.93 74.88C69.93 77.34 68.15 79.3 64.69 79.3C63.87 79.3 62.47 79.16 61.51 78.96C61.23 78.9 61.29 78.76 61.47 78.78C62.35 78.92 63.31 78.98 64.01 78.98C67.13 78.98 68.33 76.96 68.33 74.82C68.33 72.94 66.91 71.32 64.69 71.32C63.31 71.32 62.35 72 61.19 72.96C61.09 73.02 60.89 72.9 60.89 72.78L60.95 66.22C60.95 66.06 62.25 65.18 62.39 65.18C62.79 65.18 64.73 65.22 65.65 65.22H68.77C69.41 65.22 69.63 65.24 69.63 65.3C69.61 65.64 69.33 67.24 69.25 68.4L69.15 69.82C69.15 69.96 68.97 69.96 68.97 69.84L69.07 68.4C69.17 66.78 68.75 66.38 66.75 66.36H62.31L61.95 72.2C62.91 71.44 64.13 70.74 65.43 70.74C68.37 70.74 69.93 72.5 69.93 74.88Z" fill="#D7D7D7"/>
<path d="M72.7218 73.64C72.7218 70.9 75.0218 66.7 79.4418 65.04C79.5818 64.98 79.6418 65.12 79.5218 65.16C75.5218 66.74 74.3418 70.72 74.3418 73.4C74.3418 76.32 76.2418 78.78 78.1018 78.78C78.8418 78.78 79.5218 78.66 80.0618 78.34C80.7618 77.34 81.0218 76.48 81.0218 75C81.0218 72.46 79.1618 71.22 77.4818 71.22C76.8618 71.22 75.7618 71.58 75.1218 72.16C75.0018 72.22 74.9618 72.14 75.0218 72.08C75.8218 71.28 77.2818 70.5 78.2618 70.5C80.5618 70.5 82.5018 71.74 82.5018 74.66C82.5018 76.4 81.4418 77.52 80.8818 78.08C79.6018 78.8 78.3218 79.26 77.5018 79.26C75.1218 79.26 72.7218 77.46 72.7218 73.64Z" fill="#D7D7D7"/>
<path d="M88.2222 78.98C87.9422 78.98 86.1422 79.02 85.6422 79.02C85.4822 79.02 85.5022 78.84 85.6622 78.84H86.2222C87.1422 78.84 88.0422 77.96 89.4622 74.86L90.8622 71.8C91.8422 69.62 92.5022 68.2 93.0622 66.82H87.6021C85.4222 66.84 85.0622 67 84.9622 68.78L84.8422 70.78C84.8422 70.98 84.6222 70.98 84.6422 70.76L84.7822 68.78C84.8622 67.64 84.8822 65.7 84.9022 65.36C84.9022 65.3 85.1222 65.28 85.7222 65.28H88.4022C89.2622 65.28 93.2022 65.24 93.5822 65.24C93.6822 65.24 93.8022 66.56 93.7222 66.66C93.1022 67.8 92.1422 69.58 91.0622 71.88L89.6622 74.96C89.2222 75.94 88.9822 76.92 88.9822 77.72C88.9822 78.5 89.4821 78.86 90.2822 78.86C90.6022 78.86 90.8222 78.8 90.9022 78.8C91.0022 78.8 91.0222 78.86 91.0222 78.92C91.0222 78.98 91.0021 79.02 90.7822 79.02C90.4421 79.02 88.5222 78.98 88.2222 78.98Z" fill="#D7D7D7"/>
<path d="M96.0306 68.46C96.0306 67.1 96.6706 66.28 97.6706 65.66C98.1906 65.38 99.5506 64.82 100.351 64.82C102.811 64.82 103.971 66.18 103.971 67.76C103.971 69.34 102.251 70.56 101.151 71.36C102.871 72.3 104.491 73.34 104.491 74.98C104.491 76.46 103.851 77.44 102.611 78.2C102.211 78.42 100.511 79.2 99.5706 79.2C96.5906 79.2 95.2706 77.42 95.2706 75.72C95.2706 73.84 97.1706 72.38 98.4706 71.66C97.1306 70.88 96.0306 69.98 96.0306 68.46ZM100.471 78.46C101.211 78.46 102.031 78.34 102.551 78.12C103.231 77.34 103.371 76.98 103.371 76.18C103.371 73.84 100.711 72.94 98.5906 71.74C97.4706 72.46 96.6506 73.62 96.6506 75.1C96.6506 77.06 98.1106 78.46 100.471 78.46ZM102.591 67.96C102.591 66.32 101.611 65.42 99.5706 65.42C98.9706 65.42 98.0506 65.56 97.7306 65.74C97.2906 66.42 97.1106 66.88 97.1106 67.68C97.1106 69.3 99.1306 70.26 101.051 71.32C101.971 70.42 102.591 69.42 102.591 67.96Z" fill="#D7D7D7"/>
<path d="M117.162 70.72C117.162 73.14 115.042 77.6 110.362 79.38C110.222 79.44 110.162 79.3 110.282 79.26C114.602 77.56 115.402 73.26 115.462 70.76C115.502 67.84 113.922 65.48 111.702 65.48C110.962 65.48 110.342 65.6 109.802 65.92C109.102 66.92 108.742 67.78 108.742 69.26C108.742 71.8 110.422 73.06 112.102 73.06C112.842 73.06 113.822 72.7 114.462 72.12C114.582 72.06 114.622 72.14 114.562 72.2C113.762 73 112.322 73.82 111.282 73.82C108.982 73.82 107.282 72.58 107.282 69.66C107.282 67.92 108.322 66.74 108.882 66.18C110.162 65.46 111.482 65 112.302 65C114.862 65 117.162 66.9 117.162 70.72Z" fill="#D7D7D7"/>
<path d="M120.504 77.92C120.504 77.3 121.004 76.76 121.664 76.76C122.284 76.76 122.825 77.3 122.825 77.92C122.825 78.58 122.284 79.08 121.664 79.08C121.004 79.08 120.504 78.58 120.504 77.92ZM121.024 66.84V66.74C121.024 66.3 121.884 65.2 122.104 65.2C122.384 65.2 122.584 65.44 122.584 65.9V65.98C122.584 68.02 121.764 72.4 121.764 75.74C121.764 75.84 121.645 75.84 121.645 75.74C121.645 72.4 121.024 68.42 121.024 66.84Z" fill="#D7D7D7"/>
<path d="M140.984 80.66L141.044 80.7C139.664 82.06 137.364 83.4 134.784 83.4C130.024 83.4 126.224 80.62 126.224 75.6C126.224 69.58 131.744 65.72 136.344 65.72C141.764 65.72 143.724 69.74 143.744 72.06C143.744 75.92 140.884 78.98 137.384 78.98C137.184 78.98 136.244 78.72 136.144 78.62C135.804 78.24 135.624 77.54 135.604 77.2C135.544 76.32 136.384 74.82 137.004 73.74C135.604 75.38 133.584 77.4 132.124 78.64C131.984 78.78 131.384 78.72 131.304 78.64C130.444 78.02 130.384 76 131.084 74.32C132.204 71.58 135.184 69.88 136.704 69.88C137.544 69.88 137.864 70.08 138.904 71.22C139.144 71 139.764 70.38 140.104 70C140.304 69.82 140.324 70.02 140.324 70.02C139.224 71.4 136.844 75.74 136.944 77.18C136.964 77.46 137.604 78.5 137.944 78.6C140.644 78.6 143.304 76.08 143.304 72.3C143.304 70 141.304 66.02 136.104 66.02C131.644 66.02 126.664 69.74 126.664 75.08C126.664 80.44 130.404 82.98 135.124 82.98C137.304 82.98 139.724 81.72 140.984 80.66ZM132.384 77.8C133.204 77.56 136.304 74.38 137.984 72.06C136.824 70.7 136.444 70.36 135.784 70.36C134.564 70.36 133.004 72.02 132.344 74.1C131.824 75.8 131.904 77.24 132.384 77.8Z" fill="#D7D7D7"/>
<path d="M156.455 71.98V74.46C158.055 74.44 159.215 74.4 160.515 74.36C160.695 74.6 160.675 74.62 160.635 74.9C159.195 74.78 158.035 74.7 156.455 74.66C156.455 75.82 156.475 76.7 156.535 78.72C156.275 78.92 156.295 78.98 156.035 78.92C156.115 76.78 156.195 75.88 156.235 74.64C155.535 74.62 154.755 74.62 153.815 74.62C152.755 74.62 151.915 74.64 151.195 74.64C151.195 75.8 151.215 76.7 151.275 78.72C151.015 78.92 151.035 78.98 150.775 78.92C150.855 76.8 150.935 75.88 150.975 74.66C149.635 74.68 148.615 74.74 147.075 74.78C146.875 74.52 146.815 74.54 146.875 74.28C148.495 74.38 149.575 74.44 150.975 74.46C150.995 73.8 151.015 73.06 151.015 72C151.015 70.92 151.015 70.14 150.995 69.44C149.635 69.46 148.635 69.52 147.075 69.56C146.875 69.3 146.815 69.32 146.875 69.06C148.515 69.16 149.575 69.22 150.995 69.24L150.935 65.38C151.175 65.2 151.195 65.22 151.475 65.26C151.355 67.1 151.275 68.02 151.235 69.24C151.955 69.26 152.755 69.26 153.795 69.26H156.255L156.195 65.38C156.435 65.2 156.455 65.22 156.735 65.26C156.615 67.1 156.535 68.02 156.495 69.26C158.075 69.24 159.215 69.2 160.515 69.16C160.695 69.4 160.675 69.42 160.635 69.7C159.195 69.58 158.055 69.5 156.475 69.46C156.455 70.12 156.455 70.92 156.455 71.98ZM153.815 69.42C152.755 69.42 151.935 69.44 151.215 69.44C151.195 70.12 151.195 70.9 151.195 71.98V74.46H156.235C156.255 73.8 156.275 73.06 156.275 72C156.275 70.92 156.275 70.14 156.255 69.44C155.555 69.42 154.755 69.42 153.815 69.42Z" fill="#D7D7D7"/>
<path d="M163.947 68.74C163.947 66.4 165.867 64.98 168.307 64.94C168.287 64.42 168.287 63.9 168.287 63.38C168.527 63.2 168.487 63.22 168.767 63.26C168.727 63.84 168.707 64.4 168.687 64.94C170.507 64.96 171.427 65.22 172.527 65.46C172.667 65.5 172.727 65.52 172.747 65.68C172.787 66.08 172.627 68.64 172.627 69.78C172.627 70.02 172.427 70.02 172.427 69.78C172.427 66.96 171.327 65.34 168.687 65.14C168.627 67.08 168.587 68.96 168.587 71.08C170.727 72.04 173.107 72.98 173.107 75.36C173.107 77.66 171.387 79.42 168.627 79.42H168.607C168.607 79.96 168.627 80.54 168.647 81.12C168.547 81.3 168.427 81.38 168.167 81.32L168.227 79.42C166.307 79.38 165.607 79.12 164.367 78.82C164.187 78.76 164.127 78.74 164.107 78.56C164.047 78.1 164.227 75.44 164.227 74.08C164.227 73.86 164.427 73.86 164.427 74.08C164.427 76.98 165.567 78.98 168.247 79.2C168.307 76.88 168.347 74.68 168.347 72.54C166.227 71.58 163.947 70.76 163.947 68.74ZM168.607 79.22H168.787C170.787 79.22 171.907 77.96 171.907 76.3C171.907 74.4 170.327 73.46 168.567 72.64C168.567 74.94 168.567 76.98 168.607 79.22ZM165.207 67.8C165.207 69.4 166.667 70.2 168.347 70.96C168.347 68.86 168.327 66.96 168.307 65.12H168.267C166.267 65.12 165.207 66.28 165.207 67.8Z" fill="#D7D7D7"/>
<path d="M182.778 72.2C180.998 74.32 179.018 76.86 177.298 79.02C176.998 79.08 176.678 79.12 176.478 79.02C178.478 76.82 180.698 74.28 182.538 72.16C184.318 70 186.758 66.96 188.198 65.16C188.498 65.1 188.698 65.12 188.898 65.2C187.118 67.1 184.558 70.06 182.778 72.2ZM184.558 73.06C184.918 72.8 186.118 72.18 186.858 72.18C188.858 72.18 189.778 73.2 189.778 75.34C189.778 76.72 188.898 77.74 188.278 78.16C187.918 78.42 186.798 79.14 185.958 79.14C184.158 79.14 183.098 78.22 183.098 76.06C183.098 74.6 183.898 73.56 184.558 73.06ZM184.658 73.2C184.418 73.56 184.258 74.08 184.258 75.58C184.258 77.52 185.178 78.38 186.638 78.38C187.318 78.38 187.918 78.18 188.158 78.06C188.398 77.8 188.578 77.14 188.578 75.66C188.578 73.76 187.938 72.88 186.258 72.88C185.578 72.88 185.018 72.98 184.658 73.2ZM177.358 65.9C177.718 65.64 178.918 65.02 179.658 65.02C181.658 65.02 182.578 66.04 182.578 68.18C182.578 69.56 181.698 70.58 181.078 71C180.718 71.26 179.598 71.98 178.758 71.98C176.958 71.98 175.898 71.06 175.898 68.9C175.898 67.44 176.698 66.4 177.358 65.9ZM177.458 66.04C177.218 66.4 177.058 66.92 177.058 68.42C177.058 70.36 177.978 71.22 179.438 71.22C180.118 71.22 180.718 71.02 180.958 70.9C181.198 70.64 181.378 69.98 181.378 68.5C181.378 66.6 180.738 65.72 179.058 65.72C178.378 65.72 177.818 65.82 177.458 66.04Z" fill="#D7D7D7"/>
<path d="M203.604 79.04C202.884 79.04 201.565 78.14 199.725 76.3C199.225 77.18 197.365 79.1 195.805 79.1C194.405 79.1 192.904 77.46 192.904 76.02C192.904 74.54 194.684 72.8 196.324 72.6L196.384 72.64C195.184 71.16 194.305 69.8 194.305 68.98C194.305 66.58 195.924 65.14 198.044 65.1C199.064 65.08 201.104 65.58 201.484 65.86C201.484 65.86 201.285 67.66 201.285 69.3C201.285 69.62 201.064 69.62 201.064 69.3C200.884 67.06 199.984 65.26 198.024 65.26C196.364 65.26 195.404 66.18 195.404 67.68C195.404 69.24 197.284 71.38 199.264 73.58C202.104 76.74 204.145 78.26 205.165 78.26C205.925 78.26 206.164 76.7 206.164 75.24C206.164 73.96 205.904 72.78 205.524 72.26L203.285 72.24C202.204 72.24 201.564 72.24 201.124 72.3C201.024 72.32 200.964 72.3 201.044 72.2C201.404 71.76 201.845 71.04 202.025 71.04H204.785C205.505 71.04 206.345 70.96 206.585 70.92C206.725 70.9 206.825 70.92 206.665 71.04C206.205 71.4 206.045 71.9 205.725 72.24C206.625 72.92 207.544 73.82 207.544 75.36C207.544 76.98 205.304 79.04 203.604 79.04ZM197.904 74.38C197.404 73.84 196.904 73.28 196.464 72.72C194.804 73.14 194.184 73.68 194.104 75.04C194.184 76.68 195.884 78.06 196.904 78.06C197.964 78.06 198.924 77.28 199.564 76.16C199.044 75.64 198.504 75.04 197.904 74.38Z" fill="#D7D7D7"/>
<path d="M213.182 74.06C211.862 77.28 210.282 81.14 209.022 84.42C208.682 84.52 208.702 84.56 208.462 84.4C209.982 81.08 211.562 77.24 212.922 73.98C214.222 70.74 216.082 66.1 217.162 63.36C217.482 63.28 217.462 63.3 217.722 63.44C216.342 66.3 214.482 70.84 213.182 74.06Z" fill="#D7D7D7"/>
<path d="M219.591 73.76C219.591 69.54 221.751 65.3 224.791 63.22C224.971 63.1 225.151 63.26 224.991 63.4C222.071 65.48 220.211 69.68 220.211 73.76C220.211 77.84 221.951 82.16 224.871 84.24C225.051 84.38 224.851 84.52 224.691 84.42C221.631 82.34 219.591 77.98 219.591 73.76Z" fill="#D7D7D7"/>
<path d="M232.519 73.76C232.519 77.98 230.479 82.34 227.419 84.42C227.259 84.52 227.059 84.38 227.239 84.24C230.159 82.16 231.899 77.84 231.899 73.76C231.899 69.68 230.039 65.48 227.119 63.4C226.959 63.26 227.139 63.1 227.319 63.22C230.359 65.3 232.519 69.54 232.519 73.76Z" fill="#D7D7D7"/>
<path d="M241.166 72.66C239.526 72.66 238.966 72.6 237.726 72.68C237.606 72.58 237.586 72.38 237.626 72.24C238.906 72.38 239.506 72.38 241.146 72.38C242.786 72.38 243.586 72.36 244.566 72.3C244.686 72.44 244.686 72.62 244.626 72.78C243.546 72.6 242.786 72.66 241.166 72.66ZM241.166 75.76C239.526 75.76 238.966 75.7 237.726 75.78C237.586 75.74 237.546 75.5 237.626 75.34C238.906 75.48 239.506 75.48 241.146 75.48C242.786 75.48 243.586 75.46 244.566 75.4C244.706 75.5 244.706 75.72 244.626 75.88C243.546 75.7 242.786 75.76 241.166 75.76Z" fill="#D7D7D7"/>
<path d="M250.119 77.92C250.119 77.3 250.639 76.76 251.299 76.76C251.919 76.76 252.439 77.3 252.439 77.92C252.439 78.58 251.899 79.08 251.279 79.08C250.619 79.08 250.119 78.58 250.119 77.92ZM250.339 72.18C250.339 72.08 250.339 72.02 250.499 71.96C252.579 70.94 253.539 70.06 253.519 68.6C253.499 67.12 252.119 66.2 249.439 66.2C249.379 66.2 249.319 66.18 249.319 66.08C249.339 65.86 249.839 64.26 249.979 63.62C250.019 63.52 250.099 63.54 250.099 63.64C249.999 64.26 249.899 64.68 249.919 64.78C249.939 64.88 250.099 64.86 250.279 64.86C253.039 64.86 254.439 66.34 254.439 67.78C254.439 69.44 252.939 70.96 251.639 71.58C251.639 71.98 251.859 74.28 251.819 74.48C251.799 74.58 250.379 75.4 250.359 75.3C250.339 75.18 250.339 72.86 250.339 72.18Z" fill="#D7D7D7"/>
<path d="M259.509 70.4C259.509 70.34 259.989 68.86 260.029 68.16C259.429 68.52 258.389 69.68 258.329 69.72C257.849 70 257.389 69.86 257.269 69.7C257.189 69.52 257.289 69.04 257.789 68.76C257.869 68.72 259.349 68.42 259.969 68.08C259.349 67.74 257.869 67.44 257.789 67.4C257.289 67.12 257.189 66.64 257.269 66.48C257.389 66.3 257.849 66.16 258.329 66.44C258.409 66.48 259.429 67.64 260.029 68.02C259.989 67.3 259.509 65.84 259.509 65.76C259.509 65.2 259.869 64.86 260.069 64.86C260.269 64.86 260.629 65.2 260.629 65.76C260.629 65.86 260.129 67.3 260.109 68.02C260.689 67.64 261.749 66.48 261.809 66.44C262.289 66.16 262.749 66.3 262.869 66.48C262.949 66.64 262.849 67.12 262.349 67.4C262.289 67.44 260.789 67.74 260.149 68.08C260.789 68.42 262.289 68.72 262.349 68.76C262.849 69.04 262.949 69.52 262.869 69.7C262.749 69.86 262.289 70 261.809 69.72C261.749 69.7 260.689 68.52 260.109 68.16C260.129 68.86 260.629 70.34 260.629 70.4C260.629 70.96 260.269 71.3 260.069 71.3C259.869 71.3 259.509 70.96 259.509 70.4Z" fill="#D7D7D7"/>
</svg>
