<svg width="470" height="56" viewBox="0 0 470 56" fill="none" xmlns="http://www.w3.org/2000/svg">
<path d="M7.59226 21.2426C6.1329 21.2426 6.09548 20.4194 6.88129 18.96C10.7355 11.9252 17.4335 9.75484 22.7845 9.75484C29.0335 9.75484 36.2181 11.0645 43.7394 11.0645C45.9471 11.0645 47.0697 10.5406 47.3316 10.6155C47.7058 10.7277 46.0594 12.5613 45.3858 12.8981C44.4503 13.4219 43.5897 13.7213 41.4194 13.7213C39.4361 13.7213 35.5445 13.1226 31.4658 12.4865C28.5845 14.5445 27.5368 18.7355 24.7677 25.6955C21.6994 32.9923 16.1239 41.1123 7.25548 41.1123C5.01032 41.1123 1.19355 40.4761 0.856774 40.0271C0.370323 39.3535 1.75484 37.6697 2.50323 37.4452C4.44903 37.1832 11.409 41.3368 15.6374 37.9316C18.2568 35.8735 19.0426 31.9445 21.6994 25.3587C24.6929 18.2865 27.8361 14.2077 31.1665 12.4116C26.3394 11.6258 21.2877 10.8026 18.6684 10.8026C14.7019 10.8026 12.3071 13.4219 9.9871 19.1097C9.27613 20.9058 8.93935 21.2426 7.59226 21.2426ZM55.4159 21.8039C57.7359 22.3277 57.6985 24.9845 53.7695 31.5703C52.4224 33.9652 50.8882 36.2477 50.963 37.6323C51.0005 38.2684 51.2998 38.9045 52.0482 39.129C53.2456 38.7174 55.3037 37.3703 56.6882 35.9484L56.9127 36.2103C55.5282 37.5574 53.3579 39.4658 51.0005 40.8877C50.6263 41.1123 49.5037 41 49.3166 40.8503C48.3811 40.1394 47.9321 38.6426 47.8947 37.8942C47.7824 36.36 49.9527 33.2542 51.2624 31.009C54.4056 25.6206 54.2559 24.2735 53.3953 23.4503C51.0753 23.9742 44.8263 28.951 40.5979 35.1626C39.3256 37.071 38.1656 39.391 37.3798 40.7006C36.594 40.7381 34.4611 41.2619 35.2843 39.1665C37.1927 36.1355 45.163 21.4297 46.9592 18.6232C49.6908 14.1329 57.1747 7.62194 66.6418 7.62194C68.2134 7.62194 70.0843 7.65935 70.9824 7.80903C72.1798 7.99613 70.6082 10.4284 69.7101 10.4284C67.3153 10.4284 63.9101 9.79226 60.2805 9.79226C56.6508 9.79226 54.443 10.5032 49.6908 18.6981C47.6327 22.1406 44.8263 27.3419 41.683 32.9923C46.1359 27.529 52.9837 22.1781 55.4159 21.8039ZM73.6333 37.8568C73.4462 35.5368 76.0282 32.4684 77.3004 30.4103C74.0449 33.9277 69.4798 38.1935 66.3365 40.8877C65.9998 41.1497 65.0269 41.0374 64.8398 40.8877C63.0062 39.5032 63.1559 35.1252 64.6153 31.4955C67.0101 25.5458 73.8578 21.8413 77.1133 21.8413C78.9469 21.8413 79.9946 22.1406 82.2024 24.5729C82.7262 24.1239 83.9985 22.9265 84.8217 22.0284C85.1959 21.6542 85.1585 22.1032 85.1585 22.1032C82.7262 25.1342 76.5895 34.4142 76.7765 37.52C76.814 38.1561 77.3753 38.8671 78.1236 39.0916C79.0591 38.68 81.1172 37.3703 82.614 35.7987L82.8385 36.0606C81.454 37.4077 79.2836 39.4658 76.9262 40.8877C76.552 41.1123 74.9804 41 74.8307 40.8503C74.0449 39.9523 73.6707 38.6052 73.6333 37.8568ZM67.1972 39.0168C68.9933 38.5303 76.0282 31.5703 80.1817 26.5561C77.7495 23.4877 76.4398 22.7394 74.943 22.7394C72.3236 22.7394 68.8436 26.4439 67.3843 31.009C66.1869 34.7135 66.1869 37.8568 67.1972 39.0168ZM90.6542 40.8503C89.8684 40.8877 87.6606 41.4116 88.409 39.3161C90.6167 36.2852 95.5187 28.6516 95.3316 25.5458C95.2942 24.9097 94.92 24.1987 94.1342 23.9742C93.0864 24.2361 91.2155 25.4335 89.7561 27.0052L89.4942 26.7432C90.8787 25.3961 93.2361 23.3755 95.5561 22.0658C97.3148 21.0929 98.2129 24.2735 98.2877 25.5084C98.4374 27.4542 96.4916 30.7845 95.1071 33.2168C99.4103 27.7535 105.921 22.5523 108.503 21.8039C110.823 22.3277 110.786 24.9845 106.857 31.5703C105.51 33.9652 103.975 36.2477 104.05 37.6323C104.088 38.2684 104.387 38.9045 105.135 39.129C106.333 38.7174 108.279 37.3703 109.663 35.9484L109.888 36.2103C108.503 37.5574 106.445 39.4658 104.088 40.8877C103.714 41.1123 102.591 41 102.404 40.8503C101.468 40.1394 101.019 38.6426 100.982 37.8942C100.87 36.36 103.04 33.2542 104.35 31.009C107.493 25.6206 107.343 24.5355 106.483 23.7123C104.275 24.3858 98.4374 28.951 94.1716 35.1626C92.8993 37.071 91.44 39.5406 90.6542 40.8503ZM116.636 40.7006C115.851 40.7381 113.718 41.2619 114.541 39.1665C116.449 36.1355 124.42 21.4297 126.216 18.6232C128.947 14.1329 136.431 7.62194 145.898 7.62194C147.47 7.62194 149.341 7.65935 150.239 7.80903C151.436 7.99613 149.865 10.4284 148.967 10.4284C146.572 10.4284 143.167 9.79226 139.537 9.79226C135.907 9.79226 133.7 10.5032 128.947 18.6981C127.413 21.28 125.018 25.6206 122.511 30.1484C127.338 24.9097 132.053 21.4297 134.186 21.4297C135.683 21.7665 137.516 24.2735 137.067 25.8452C136.731 27.1923 135.496 28.8387 134.149 29.5497C132.39 30.6723 130.032 31.009 124.943 31.72C125.991 31.8697 127.189 32.431 127.9 33.4039C128.685 34.4516 128.985 37.2955 129.733 38.68C129.92 39.0168 130.482 39.4284 131.155 39.4284C132.352 39.0168 134.635 37.2581 136.02 35.8361L136.244 36.0981C134.86 37.4452 132.764 39.391 130.407 40.8129C130.07 41.0374 127.712 41.0374 127.189 40.2516C125.954 38.4181 126.029 35.2374 124.943 33.7032C124.12 32.6181 123.185 32.0942 121.351 32.2439C119.705 35.2374 118.058 38.1935 116.636 40.7006ZM134.111 25.7329C134.261 24.7974 133.251 22.9265 132.165 22.8142C129.883 23.3381 124.532 27.9406 121.688 31.6077L121.501 31.9819C131.978 30.56 133.999 27.8658 134.111 25.7329ZM156.617 25.9948H156.467C154.933 22.9265 153.137 21.6916 150.892 22.2903C148.983 23.4129 149.432 25.4335 151.715 30.2981C153.661 34.5265 153.698 38.0065 150.742 39.84C149.17 40.8129 147.636 41.2994 145.653 41.2994C144.044 41.3368 142.398 40.7006 141.649 39.4658C140.826 38.1187 141.574 35.6116 143.745 35.0503L143.894 35.1626C143.819 36.6968 144.418 38.1561 145.503 39.0916C146.813 40.2516 148.272 40.551 149.844 39.9148C152.089 38.9045 150.779 36.0606 148.834 31.3084C146.776 26.2942 147.15 23.6 149.881 22.3652C151.116 21.8039 152.576 21.3174 154.147 21.3548C155.906 21.3548 157.328 21.6916 157.889 22.889C158.376 23.9742 157.59 25.2839 156.617 25.9948ZM165.279 44.1806C165.205 44.8916 165.279 45.9768 165.429 46.6503C165.728 47.9974 166.664 49.4568 168.011 49.4568C169.845 49.4568 170.818 49.0077 174.821 41.8606C176.618 38.6052 180.883 30.0735 184.064 24.1239H181.707C181.407 24.049 181.407 23.7871 181.594 23.6748L185.523 21.4297C186.122 20.3071 186.646 19.409 187.058 18.7729C191.286 12.0748 197.161 7.43484 203.447 7.43484C205.543 7.43484 207.975 7.77161 209.322 8.29548C210.07 8.59484 208.424 10.4658 207.414 10.4658C205.356 10.4658 203.11 9.00645 199.518 9.00645C196.225 9.00645 194.392 10.4284 189.714 18.6606L187.881 21.991C190.276 21.991 193.232 21.8039 193.531 21.8787C193.943 21.991 192.147 24.1987 191.436 24.2361C191.248 24.2361 189.153 24.1987 186.721 24.1613C183.428 30.3355 180.509 36.2103 177.478 41.6361C174.073 47.7729 169.208 50.2426 166.514 50.2426C164.082 50.2426 162.735 49.0077 162.735 47.249C162.735 45.7523 163.82 44.4052 165.279 44.1806ZM209.101 33.5161C207.642 36.1355 204.836 38.3058 202.254 39.7277C200.981 40.4387 199.634 41.2245 198.212 41.2245C196.416 41.2245 194.583 39.9148 194.021 38.2684C193.61 36.7342 193.198 34.3019 195.892 29.7742C197.314 27.2297 200.345 24.4232 202.852 23.0013C204.312 22.2155 205.883 21.6542 207.268 21.6542H207.305C208.989 21.6542 210.636 23.0013 211.159 24.6477C211.571 25.9574 211.646 29.2129 209.101 33.5161ZM198.998 39.3161C200.196 39.6529 201.767 39.3535 203.264 38.7548C205.359 37.7071 208.615 30.4103 208.39 26.4065C208.241 24.6852 207.642 23.6 206.407 23.1884C205.996 23.0761 204.948 22.6271 203.451 23.0013C200.981 24.5355 196.379 31.3832 196.828 36.8465C197.239 38.3058 197.988 39.0542 198.998 39.3161ZM218.656 40.8503C217.87 40.8877 215.663 41.4116 216.411 39.3161C218.619 36.2852 223.521 28.6516 223.334 25.5458C223.296 24.9097 222.922 24.1987 222.136 23.9742C221.088 24.2361 219.217 25.4335 217.758 27.0052L217.496 26.7432C218.881 25.3961 221.238 23.3755 223.558 22.0658C225.317 21.0929 226.215 24.2735 226.29 25.5084C226.365 26.4813 225.915 27.791 225.279 29.1755C228.235 25.3213 230.78 22.4026 233.25 21.9535C234.522 21.8413 237.029 21.9161 237.141 22.1781C237.066 23.0013 235.457 24.7974 234.784 24.9471C233.736 24.9097 232.426 24.4606 230.518 24.4981C227.225 25.471 224.568 31.4206 218.656 40.8503ZM289.959 12C289.173 12.1871 286.142 11.9626 281.502 11.6632C280.305 19.7084 278.621 35.4245 277.985 41.5239C290.857 23.6748 295.422 17.1639 300.249 9.97935C302.644 6.46194 304.478 3.54323 305.451 1.85936C306.162 0.549676 307.621 1.89677 306.76 2.86968C305.301 4.47871 303.168 7.09807 300.848 10.3161C292.541 21.9535 284.645 32.9923 276.338 44.8542C276.076 45.2658 274.542 45.1161 274.617 44.5548C275.365 40.1768 277.461 23.1135 278.134 16.2658C271.549 25.6206 264.851 35.2748 258.527 44.7794C258.227 45.191 257.03 44.6297 257.105 44.1058C258.302 38.1935 261.707 21.5045 262.344 17.3884C262.793 14.6194 262.867 12.5239 262.493 11.7755C262.156 11.0645 261.745 10.9148 260.847 10.9148C257.741 10.84 252.764 12.449 251.305 12.2245C250.631 12.1123 252.053 10.391 252.614 10.0542C253.138 9.79226 256.768 9.90452 259.425 9.90452H276.825C284.009 9.90452 288.649 9.53032 290.371 9.53032C290.633 9.53032 291.231 9.53032 291.568 9.68C291.568 10.129 290.894 11.4387 289.959 12ZM260.585 40.8129C272.11 24.1239 277.124 16.9394 280.866 11.6258C276.563 11.3639 270.987 11.1019 264.514 11.0645C264.888 11.3639 265.113 11.7006 265.225 12.1497C265.374 12.8606 265.487 14.6568 265.038 17.2013C264.439 21.0929 261.932 34.04 260.585 40.8129ZM304.888 37.8568C304.701 35.5368 307.283 32.4684 308.555 30.4103C305.299 33.9277 300.734 38.1935 297.591 40.8877C297.254 41.1497 296.281 41.0374 296.094 40.8877C294.261 39.5032 294.41 35.1252 295.87 31.4955C298.265 25.5458 305.112 21.8413 308.368 21.8413C310.201 21.8413 311.249 22.1406 313.457 24.5729C313.981 24.1239 315.253 22.9265 316.076 22.0284C316.45 21.6542 316.413 22.1032 316.413 22.1032C313.981 25.1342 307.844 34.4142 308.031 37.52C308.068 38.1561 308.63 38.8671 309.378 39.0916C310.314 38.68 312.372 37.3703 313.868 35.7987L314.093 36.0606C312.708 37.4077 310.538 39.4658 308.181 40.8877C307.807 41.1123 306.235 41 306.085 40.8503C305.299 39.9523 304.925 38.6052 304.888 37.8568ZM298.452 39.0168C300.248 38.5303 307.283 31.5703 311.436 26.5561C309.004 23.4877 307.694 22.7394 306.198 22.7394C303.578 22.7394 300.098 26.4439 298.639 31.009C297.441 34.7135 297.441 37.8568 298.452 39.0168ZM330.079 35.0877L330.341 35.2748C328.657 36.809 324.99 39.6903 322.895 40.9252C322.521 41.1497 321.435 41.0374 321.248 40.8877C320.313 40.1768 320.013 38.5303 319.976 37.7819C319.864 36.2477 320.837 34.1148 322.146 31.8697C323.793 29.0632 325.402 26.4439 326.899 24.049H326.487C325.477 24.049 324.504 24.0865 324.317 24.049C324.167 24.0116 324.055 23.8619 324.354 23.7123C327.011 22.2529 330.379 20.1948 333.035 18.1368C333.26 17.9497 333.484 18.0619 333.335 18.2865C332.699 19.3342 331.913 20.4942 330.902 22.1032C334.083 22.1032 336.029 21.8787 336.328 21.9535C336.74 22.0658 334.906 24.1239 334.195 24.1613C334.008 24.1613 332.399 24.1239 329.668 24.0865C327.797 27.0426 326.15 29.6994 324.653 32.5058C323.306 34.9381 322.857 36.1355 322.932 37.52C322.97 38.231 323.269 39.0542 324.017 39.2787C325.028 38.9419 328.433 36.5845 330.079 35.0877ZM341.602 41.2245C339.881 41.2245 338.122 40.1394 337.523 38.3806C337.112 36.8465 336.438 34.3019 339.132 29.7742C340.554 27.2297 343.623 24.6477 346.99 22.8142C348.45 22.0284 349.872 21.6542 351.518 21.6542C353.876 21.6542 355.036 22.7019 355.036 24.049C355.036 25.3213 353.689 26.1071 352.865 26.2194C352.416 24.4232 351.294 22.8142 348.824 22.8142C348.113 22.8142 347.701 22.889 347.178 23.0387C345.344 24.311 343.735 26.1071 342.5 28.1652C340.929 30.7845 340.03 33.8529 340.292 36.8465C340.704 38.3058 341.602 39.0542 342.612 39.3161C343.81 39.6529 345.643 39.2787 347.028 38.6426C348.001 38.1935 350.134 36.6594 351.331 35.1626L351.668 35.3497C350.134 37.1832 348.338 38.5303 346.354 39.6155C345.082 40.3265 343.398 41.2245 341.602 41.2245ZM376.585 21.8039C378.905 22.3277 378.868 24.9845 374.939 31.5703C373.592 33.9652 372.057 36.2477 372.132 37.6323C372.17 38.2684 372.469 38.9045 373.217 39.129C374.415 38.7174 376.473 37.3703 377.857 35.9484L378.082 36.2103C376.697 37.5574 374.527 39.4658 372.17 40.8877C371.795 41.1123 370.673 41 370.486 40.8503C369.55 40.1394 369.101 38.6426 369.064 37.8942C368.952 36.36 371.122 33.2542 372.432 31.009C375.575 25.6206 375.425 24.2735 374.564 23.4503C372.244 23.9742 365.995 28.951 361.767 35.1626C360.495 37.071 359.335 39.391 358.549 40.7006C357.763 40.7381 355.63 41.2619 356.453 39.1665C358.362 36.1355 366.332 21.4297 368.128 18.6232C370.86 14.1329 378.344 7.62194 387.811 7.62194C389.383 7.62194 391.253 7.65935 392.152 7.80903C393.349 7.99613 391.777 10.4284 390.879 10.4284C388.484 10.4284 385.079 9.79226 381.45 9.79226C377.82 9.79226 375.612 10.5032 370.86 18.6981C368.802 22.1406 365.995 27.3419 362.852 32.9923C367.305 27.529 374.153 22.1781 376.585 21.8039ZM394.756 24.9097C394.756 26.4065 392.025 29.6245 390.715 31.7574C389.256 34.1148 387.609 36.4348 387.684 37.8194C387.721 38.4555 388.545 38.9794 389.293 39.2039C390.49 38.7923 392.399 37.3703 393.783 35.9484L394.008 36.2103C392.623 37.5574 390.565 39.4658 388.208 40.8877C387.834 41.1123 386.337 41 386.15 40.8503C385.214 40.1394 384.653 38.8297 384.616 38.0813C384.503 36.5471 386.636 33.4413 388.021 31.1587C390.041 27.9032 391.239 26.4065 391.576 25.1716C391.763 24.4606 391.014 23.6374 390.453 23.5252C389.555 23.8245 387.198 25.4335 385.813 26.6684L385.551 26.4813C386.898 25.1716 389.817 22.9639 391.725 21.8039C392.174 21.5419 392.623 21.5419 392.96 21.6916C393.821 22.1032 394.756 23.9742 394.756 24.9097ZM395.13 19.0723L394.906 18.8477C398.536 15.1432 402.016 11.1768 403.924 8.48258C404.448 7.88387 405.346 8.52 404.785 9.11871C402.577 11.6632 398.835 15.2929 395.13 19.0723ZM401.884 40.8503C401.098 40.8877 398.89 41.4116 399.639 39.3161C401.846 36.2852 406.748 28.6516 406.561 25.5458C406.524 24.9097 406.15 24.1987 405.364 23.9742C404.316 24.2361 402.445 25.4335 400.986 27.0052L400.724 26.7432C402.108 25.3961 404.466 23.3755 406.786 22.0658C408.544 21.0929 409.443 24.2735 409.517 25.5084C409.667 27.4542 407.721 30.7845 406.337 33.2168C410.64 27.7535 417.151 22.5523 419.733 21.8039C422.053 22.3277 422.015 24.9845 418.086 31.5703C416.739 33.9652 415.205 36.2477 415.28 37.6323C415.317 38.2684 415.617 38.9045 416.365 39.129C417.563 38.7174 419.508 37.3703 420.893 35.9484L421.117 36.2103C419.733 37.5574 417.675 39.4658 415.317 40.8877C414.943 41.1123 413.821 41 413.633 40.8503C412.698 40.1394 412.249 38.6426 412.212 37.8942C412.099 36.36 414.27 33.2542 415.579 31.009C418.723 25.6206 418.573 24.5355 417.712 23.7123C415.504 24.3858 409.667 28.951 405.401 35.1626C404.129 37.071 402.67 39.5406 401.884 40.8503ZM425.196 55.8181C422.427 55.7806 418.722 55.0697 417.75 52.7871C416.215 49.12 423.961 45.3781 430.135 41C429.799 41 429.462 40.9626 429.387 40.8877C427.553 39.5032 427.666 35.1626 429.162 31.5329C431.595 25.5832 438.592 21.8039 441.848 21.8039C443.681 21.8039 444.28 22.2529 446.562 24.9471C447.311 24.311 448.695 23.1135 449.781 22.1032L450.042 22.2529C448.845 23.6748 447.685 25.209 446.75 26.6684C438.031 40.5135 440.014 46.8748 437.694 50.6916C435.748 54.0219 429.948 55.8929 425.196 55.8181ZM430.884 40.8129C424.859 45.1161 419.433 48.7458 420.968 52.4877C421.866 54.6206 424.373 55.4439 427.067 55.4439C429.724 55.4439 432.493 53.9845 434.439 51.2155C436.871 47.511 435.748 40.4387 442.184 30.111C438.742 33.6284 433.69 38.4555 430.884 40.8129ZM431.819 39.0916C433.877 37.7071 440.837 31.6077 444.617 26.6684C442.11 23.6 441.249 22.7019 439.752 22.7019C437.133 22.7019 433.353 26.4813 431.932 31.0465C430.772 34.751 430.697 37.7819 431.819 39.0916ZM451.183 40.7381C450.809 40.1019 451.445 37.8942 452.268 37.4826C452.53 37.3329 453.241 37.2206 453.84 37.2206C454.439 37.2206 455.15 37.4077 455.262 37.5948C455.412 38.7548 454.738 40.3639 454.102 40.8129C453.877 40.9626 453.354 41.0374 452.717 41.0374C452.006 41.0374 451.445 41 451.183 40.7381ZM465.889 8.93161C466.301 8.14581 469.032 8.7071 468.77 9.30581C467.61 12 465.44 15.7045 464.13 17.9871C461.548 22.4774 458.966 26.4065 455.225 34.2645L454.888 34.1897C458.667 26.2942 460.388 21.9535 462.222 17.351C463.307 14.5819 464.617 11.3265 465.889 8.93161Z" fill="#E6A912"/>
</svg>
